<svg width="34" height="35" viewBox="0 0 34 35" fill="none" xmlns="http://www.w3.org/2000/svg">
<g clip-path="url(#clip0_4423_562)">
<mask id="mask0_4423_562" style="mask-type:luminance" maskUnits="userSpaceOnUse" x="0" y="0" width="34" height="35">
<path d="M34 0.5H0V34.5H34V0.5Z" fill="white"/>
<path d="M8.30468 13.1172C7.57116 13.1172 6.97656 13.7118 6.97656 14.4453C6.97656 15.1788 7.57116 15.7734 8.30468 15.7734C9.0382 15.7734 9.6328 15.1788 9.6328 14.4453C9.6328 13.7118 9.0382 13.1172 8.30468 13.1172Z" fill="white"/>
<path d="M14.0781 13.1172C13.3446 13.1172 12.75 13.7118 12.75 14.4453C12.75 15.1788 13.3446 15.7734 14.0781 15.7734C14.8116 15.7734 15.4062 15.1788 15.4062 14.4453C15.4062 13.7118 14.8116 13.1172 14.0781 13.1172Z" fill="white"/>
<path d="M19.8594 13.1172C19.1258 13.1172 18.5312 13.7118 18.5312 14.4453C18.5312 15.1788 19.1258 15.7734 19.8594 15.7734C20.5929 15.7734 21.1875 15.1788 21.1875 14.4453C21.1875 13.7118 20.5929 13.1172 19.8594 13.1172Z" fill="white"/>
<path d="M25.6328 13.1172C24.8993 13.1172 24.3047 13.7118 24.3047 14.4453C24.3047 15.1788 24.8993 15.7734 25.6328 15.7734C26.3663 15.7734 26.9609 15.1788 26.9609 14.4453C26.9609 13.7118 26.3663 13.1172 25.6328 13.1172Z" fill="white"/>
<path d="M9.62499 20.2188C9.62499 19.4852 9.03039 18.8906 8.29687 18.8906C7.56335 18.8906 6.96875 19.4852 6.96875 20.2188C6.96875 20.9523 7.56335 21.5469 8.29687 21.5469C9.03039 21.5469 9.62499 20.9523 9.62499 20.2188Z" fill="white"/>
<path d="M9.62499 26C9.62499 25.2665 9.03039 24.6719 8.29687 24.6719C7.56335 24.6719 6.96875 25.2665 6.96875 26C6.96875 26.7335 7.56335 27.3281 8.29687 27.3281C9.03039 27.3281 9.62499 26.7335 9.62499 26Z" fill="white"/>
<path d="M15.4062 20.2188C15.4062 19.4852 14.8116 18.8906 14.0781 18.8906C13.3446 18.8906 12.75 19.4852 12.75 20.2188C12.75 20.9523 13.3446 21.5469 14.0781 21.5469C14.8116 21.5469 15.4062 20.9523 15.4062 20.2188Z" fill="white"/>
<path d="M15.4062 26C15.4062 25.2665 14.8116 24.6719 14.0781 24.6719C13.3446 24.6719 12.75 25.2665 12.75 26C12.75 26.7335 13.3446 27.3281 14.0781 27.3281C14.8116 27.3281 15.4062 26.7335 15.4062 26Z" fill="white"/>
<path d="M14.0781 13.1172C13.3446 13.1172 12.75 13.7118 12.75 14.4453C12.75 15.1788 13.3446 15.7734 14.0781 15.7734C14.8116 15.7734 15.4062 15.1788 15.4062 14.4453C15.4062 13.7118 14.8116 13.1172 14.0781 13.1172Z" fill="white"/>
<path d="M15.4062 20.2188C15.4062 19.4852 14.8116 18.8906 14.0781 18.8906C13.3446 18.8906 12.75 19.4852 12.75 20.2188C12.75 20.9523 13.3446 21.5469 14.0781 21.5469C14.8116 21.5469 15.4062 20.9523 15.4062 20.2188Z" fill="white"/>
<path d="M15.4062 26C15.4062 25.2665 14.8116 24.6719 14.0781 24.6719C13.3446 24.6719 12.75 25.2665 12.75 26C12.75 26.7335 13.3446 27.3281 14.0781 27.3281C14.8116 27.3281 15.4062 26.7335 15.4062 26Z" fill="white"/>
<path d="M21.1797 20.2188C21.1797 19.4852 20.5851 18.8906 19.8516 18.8906C19.118 18.8906 18.5234 19.4852 18.5234 20.2188C18.5234 20.9523 19.118 21.5469 19.8516 21.5469C20.5851 21.5469 21.1797 20.9523 21.1797 20.2188Z" fill="white"/>
<path d="M26.9609 20.2188C26.9609 19.4852 26.3663 18.8906 25.6328 18.8906C24.8993 18.8906 24.3047 19.4852 24.3047 20.2188C24.3047 20.9523 24.8993 21.5469 25.6328 21.5469C26.3663 21.5469 26.9609 20.9523 26.9609 20.2188Z" fill="white"/>
</mask>
<g mask="url(#mask0_4423_562)">
<mask id="mask1_4423_562" style="mask-type:luminance" maskUnits="userSpaceOnUse" x="0" y="0" width="34" height="35">
<path d="M0 0.500099H33.9999V34.5H0V0.500099Z" fill="white"/>
</mask>
<g mask="url(#mask1_4423_562)">
<path d="M16.4687 33.1719H5.31249C3.11199 33.1719 1.32812 31.388 1.32812 29.1875V8.46882C1.32812 6.26833 3.11199 4.48446 5.31249 4.48446H28.6874C30.8879 4.48446 32.6718 6.26833 32.6718 8.46882V17.8985" stroke="#005C94" stroke-width="2" stroke-miterlimit="10" stroke-linecap="round" stroke-linejoin="round"/>
<path d="M8.29687 14.1172C8.11563 14.1172 7.96875 14.2641 7.96875 14.4453C7.96875 14.6266 8.11563 14.7734 8.29687 14.7734C8.47811 14.7734 8.62499 14.6266 8.62499 14.4453C8.62499 14.2641 8.47811 14.1172 8.29687 14.1172Z" fill="#005C94" stroke="#005C94" stroke-width="2"/>
<path d="M14.0781 14.1172C13.8969 14.1172 13.75 14.2641 13.75 14.4453C13.75 14.6266 13.8969 14.7734 14.0781 14.7734C14.2594 14.7734 14.4062 14.6266 14.4062 14.4453C14.4062 14.2641 14.2594 14.1172 14.0781 14.1172Z" fill="#005C94" stroke="#005C94" stroke-width="2"/>
<path d="M19.8516 14.1172C19.6703 14.1172 19.5234 14.2641 19.5234 14.4453C19.5234 14.6266 19.6703 14.7734 19.8516 14.7734C20.0328 14.7734 20.1797 14.6266 20.1797 14.4453C20.1797 14.2641 20.0328 14.1172 19.8516 14.1172Z" fill="#005C94" stroke="#005C94" stroke-width="2"/>
<path d="M25.6328 14.1172C25.4516 14.1172 25.3047 14.2641 25.3047 14.4453C25.3047 14.6266 25.4516 14.7734 25.6328 14.7734C25.814 14.7734 25.9609 14.6266 25.9609 14.4453C25.9609 14.2641 25.814 14.1172 25.6328 14.1172Z" fill="#005C94" stroke="#005C94" stroke-width="2"/>
<path d="M8.62499 20.2266C8.62499 20.0453 8.47811 19.8984 8.29687 19.8984C8.11563 19.8984 7.96875 20.0453 7.96875 20.2266C7.96875 20.4078 8.11563 20.5547 8.29687 20.5547C8.47811 20.5547 8.62499 20.4078 8.62499 20.2266Z" fill="#005C94" stroke="#005C94" stroke-width="2"/>
<path d="M8.62499 26C8.62499 25.8188 8.47811 25.6719 8.29687 25.6719C8.11563 25.6719 7.96875 25.8188 7.96875 26C7.96875 26.1812 8.11563 26.3281 8.29687 26.3281C8.47811 26.3281 8.62499 26.1812 8.62499 26Z" fill="#005C94" stroke="#005C94" stroke-width="2"/>
<path d="M14.4062 20.2266C14.4062 20.0453 14.2594 19.8984 14.0781 19.8984C13.8969 19.8984 13.75 20.0453 13.75 20.2266C13.75 20.4078 13.8969 20.5547 14.0781 20.5547C14.2594 20.5547 14.4062 20.4078 14.4062 20.2266Z" fill="#005C94" stroke="#005C94" stroke-width="2"/>
<path d="M14.4062 26C14.4062 25.8188 14.2594 25.6719 14.0781 25.6719C13.8969 25.6719 13.75 25.8188 13.75 26C13.75 26.1812 13.8969 26.3281 14.0781 26.3281C14.2594 26.3281 14.4062 26.1812 14.4062 26Z" fill="#005C94" stroke="#005C94" stroke-width="2"/>
<path d="M14.0781 14.1172C13.8969 14.1172 13.75 14.2641 13.75 14.4453C13.75 14.6266 13.8969 14.7734 14.0781 14.7734C14.2594 14.7734 14.4062 14.6266 14.4062 14.4453C14.4062 14.2641 14.2594 14.1172 14.0781 14.1172Z" fill="#005C94" stroke="#005C94" stroke-width="2"/>
<path d="M14.4062 20.2266C14.4062 20.0453 14.2594 19.8984 14.0781 19.8984C13.8969 19.8984 13.75 20.0453 13.75 20.2266C13.75 20.4078 13.8969 20.5547 14.0781 20.5547C14.2594 20.5547 14.4062 20.4078 14.4062 20.2266Z" fill="#005C94" stroke="#005C94" stroke-width="2"/>
<path d="M14.4062 26C14.4062 25.8188 14.2594 25.6719 14.0781 25.6719C13.8969 25.6719 13.75 25.8188 13.75 26C13.75 26.1812 13.8969 26.3281 14.0781 26.3281C14.2594 26.3281 14.4062 26.1812 14.4062 26Z" fill="#005C94" stroke="#005C94" stroke-width="2"/>
<path d="M8.29688 1.82814V7.14062" stroke="#005C94" stroke-width="2" stroke-miterlimit="10" stroke-linecap="round" stroke-linejoin="round"/>
<path d="M25.6328 7.14062V1.82814" stroke="#005C94" stroke-width="2" stroke-miterlimit="10" stroke-linecap="round" stroke-linejoin="round"/>
<path d="M20.1797 20.2266C20.1797 20.0453 20.0328 19.8984 19.8516 19.8984C19.6703 19.8984 19.5234 20.0453 19.5234 20.2266C19.5234 20.4078 19.6703 20.5547 19.8516 20.5547C20.0328 20.5547 20.1797 20.4078 20.1797 20.2266Z" fill="#005C94" stroke="#005C94" stroke-width="2"/>
<path d="M25.9609 20.2266C25.9609 20.0453 25.814 19.8984 25.6328 19.8984C25.4516 19.8984 25.3047 20.0453 25.3047 20.2266C25.3047 20.4078 25.4516 20.5547 25.6328 20.5547C25.814 20.5547 25.9609 20.4078 25.9609 20.2266Z" fill="#005C94" stroke="#005C94" stroke-width="2"/>
<path d="M16.9297 1.82814V7.14062" stroke="#005C94" stroke-width="2" stroke-miterlimit="10" stroke-linecap="round" stroke-linejoin="round"/>
<path d="M18.7969 28.4607L23.035 32.5966C23.9196 33.4387 25.3351 33.3443 26.1001 32.3923L32.6731 23.2109" stroke="#005C94" stroke-width="2" stroke-miterlimit="10" stroke-linecap="round" stroke-linejoin="round"/>
</g>
</g>
</g>
<defs>
<clipPath id="clip0_4423_562">
<rect width="34" height="34" fill="white" transform="translate(0 0.5)"/>
</clipPath>
</defs>
</svg>
