<svg width="20" height="20" viewBox="0 0 20 20" fill="none" xmlns="http://www.w3.org/2000/svg">
<path d="M9.82917 17.4974H4.16667C3.24619 17.4974 2.5 16.7512 2.5 15.8307V5.83073C2.5 4.91025 3.24619 4.16406 4.16667 4.16406H14.1667C15.0871 4.16406 15.8333 4.91025 15.8333 5.83073V9.16406" stroke="#4B465C" stroke-width="1.5" stroke-linecap="round" stroke-linejoin="round"/>
<path d="M9.82917 17.4974H4.16667C3.24619 17.4974 2.5 16.7512 2.5 15.8307V5.83073C2.5 4.91025 3.24619 4.16406 4.16667 4.16406H14.1667C15.0871 4.16406 15.8333 4.91025 15.8333 5.83073V9.16406" stroke="white" stroke-opacity="0.2" stroke-width="1.5" stroke-linecap="round" stroke-linejoin="round"/>
<path d="M15 11.6641V14.9974H18.3333" stroke="#4B465C" stroke-width="1.5" stroke-linecap="round" stroke-linejoin="round"/>
<path d="M15 11.6641V14.9974H18.3333" stroke="white" stroke-opacity="0.2" stroke-width="1.5" stroke-linecap="round" stroke-linejoin="round"/>
<circle cx="14.9974" cy="14.9974" r="3.33333" stroke="#4B465C" stroke-width="1.5" stroke-linecap="round" stroke-linejoin="round"/>
<circle cx="14.9974" cy="14.9974" r="3.33333" stroke="white" stroke-opacity="0.2" stroke-width="1.5" stroke-linecap="round" stroke-linejoin="round"/>
<path d="M12.5026 2.5V5.83333" stroke="#4B465C" stroke-width="1.5" stroke-linecap="round" stroke-linejoin="round"/>
<path d="M12.5026 2.5V5.83333" stroke="white" stroke-opacity="0.2" stroke-width="1.5" stroke-linecap="round" stroke-linejoin="round"/>
<path d="M5.83073 2.5V5.83333" stroke="#4B465C" stroke-width="1.5" stroke-linecap="round" stroke-linejoin="round"/>
<path d="M5.83073 2.5V5.83333" stroke="white" stroke-opacity="0.2" stroke-width="1.5" stroke-linecap="round" stroke-linejoin="round"/>
<path d="M2.5 9.16667H15.8333" stroke="#4B465C" stroke-width="1.5" stroke-linecap="round" stroke-linejoin="round"/>
<path d="M2.5 9.16667H15.8333" stroke="white" stroke-opacity="0.2" stroke-width="1.5" stroke-linecap="round" stroke-linejoin="round"/>
</svg>
