<svg width="18" height="18" viewBox="0 0 18 18" fill="none" xmlns="http://www.w3.org/2000/svg">
<path fill-rule="evenodd" clip-rule="evenodd" d="M8.9996 1.13281C11.0635 1.17011 13.0303 2.01619 14.4768 3.48898C15.9232 4.96177 16.7336 6.94354 16.7336 9.00781C16.7336 11.0721 15.9232 13.0539 14.4768 14.5266C13.0303 15.9994 11.0635 16.8455 8.9996 16.8828C6.93566 16.8455 4.96886 15.9994 3.52245 14.5266C2.07603 13.0539 1.26562 11.0721 1.26562 9.00781C1.26562 6.94354 2.07603 4.96177 3.52245 3.48898C4.96886 2.01619 6.93566 1.17011 8.9996 1.13281ZM7.36417 11.566L5.4356 9.63567C5.27774 9.47726 5.1891 9.26274 5.1891 9.0391C5.1891 8.81546 5.27774 8.60094 5.4356 8.44253C5.59427 8.28482 5.80889 8.1963 6.0326 8.1963C6.25631 8.1963 6.47094 8.28482 6.6296 8.44253L7.98817 9.80281L11.3696 6.42138C11.528 6.26352 11.7425 6.17488 11.9662 6.17488C12.1898 6.17488 12.4043 6.26352 12.5627 6.42138C12.7204 6.5799 12.8089 6.79439 12.8089 7.01796C12.8089 7.24153 12.7204 7.45601 12.5627 7.61453L8.58389 11.5934C8.50312 11.6737 8.40695 11.737 8.30115 11.7792C8.19535 11.8215 8.0821 11.842 7.96819 11.8394C7.85428 11.8369 7.74207 11.8113 7.63827 11.7643C7.53448 11.7173 7.44125 11.6499 7.36417 11.566Z" fill="#00BAD1"/>
</svg>
