<svg width="111" height="110" viewBox="0 0 111 110" fill="none" xmlns="http://www.w3.org/2000/svg">
<mask id="mask0_990_3945" style="mask-type:luminance" maskUnits="userSpaceOnUse" x="0" y="0" width="111" height="110">
<path d="M54.9983 0.000732422C30.2927 0.000732422 7.82571 16.742 1.62486 41.7917C-5.67756 71.2709 12.3209 101.087 41.8238 108.375C71.3266 115.672 101.167 97.6876 108.47 68.2084C115.772 38.7293 97.7824 8.9217 68.2706 1.62515C63.8288 0.524451 59.3869 0.000732422 54.9983 0.000732422C55.0072 0.000732422 54.9983 0.000732422 54.9983 0.000732422Z" fill="white"/>
</mask>
<g mask="url(#mask0_990_3945)">
<path d="M115.763 0.000732422H-5.67761V115.672H115.763V0.000732422Z" fill="url(#paint0_radial_990_3945)"/>
</g>
<path d="M1.62489 41.7914C8.92732 12.3033 38.7589 -5.67175 68.2618 1.6248C97.7735 8.92136 115.763 38.7289 108.461 68.2081C101.158 97.6872 71.3267 115.671 41.8149 108.375C12.3209 101.078 -5.67753 71.2705 1.62489 41.7914Z" fill="#223C72"/>
<path d="M94.0867 16.2264L71.9573 30.9704V2.67186C70.7491 2.28129 69.5232 1.9351 68.2706 1.62442C57.8855 -0.94091 47.4649 -0.381685 37.9948 2.71624V30.9704L15.9543 16.2885C10.9083 21.366 6.80401 27.4819 4.01451 34.4145L9.85113 38.3025H2.61977C2.25554 39.4476 1.92684 40.6015 1.63367 41.7821C-0.951492 52.2299 -0.365166 62.722 2.78856 72.2377H10.0021L4.22772 76.0812C7.0261 82.8097 11.1482 88.9345 16.3451 94.083L38.0037 79.6585V107.274C39.2563 107.682 40.5355 108.046 41.8326 108.365C52.1643 110.922 62.5317 110.372 71.9662 107.318V79.6674L93.7136 94.1451C98.8217 89.121 102.997 83.0494 105.858 76.1611L99.9588 72.2377H107.315C107.75 70.9151 108.141 69.5747 108.478 68.2077C111.019 57.9553 110.495 47.6762 107.501 38.3025H100.11L106.062 34.3346C103.308 27.5884 99.2392 21.4192 94.0867 16.2264Z" fill="#EFEBE7"/>
<path d="M29.5288 38.3027L9.09624 24.7215C7.73703 26.7809 6.50219 28.9468 5.41837 31.2103L16.0877 38.3027H29.5288ZM100.918 24.615C99.5415 22.5467 98.0313 20.5673 96.3878 18.6943L71.9575 34.9296V38.3116H80.326L100.918 24.615ZM9.24726 85.4817C10.6242 87.55 12.1434 89.5206 13.7868 91.3935L37.995 75.3092V72.2467H29.1735L9.24726 85.4817ZM109.243 45.3684H64.8861V0.896731C58.1611 -0.328238 51.4628 -0.274979 45.0665 0.914484V45.3773H0.869899C-0.329405 52.0969 -0.249451 58.781 0.949853 65.1721H45.0665V109.076C51.7915 110.318 58.4809 110.283 64.8861 109.12V65.1632H109.136C110.397 58.4525 110.38 51.7685 109.243 45.3684ZM80.7968 72.2379L100.821 85.5439C102.189 83.4934 103.433 81.3364 104.534 79.0728L94.2379 72.2379H80.7968Z" fill="#EF3827"/>
<path d="M71.9575 8.39697V11.9654C72.1707 11.2907 72.2862 10.6516 72.2862 10.048C72.2862 9.45329 72.1796 8.90294 71.9575 8.39697Z" fill="#303F66"/>
<defs>
<radialGradient id="paint0_radial_990_3945" cx="0" cy="0" r="1" gradientUnits="userSpaceOnUse" gradientTransform="translate(55.0408 54.9971) scale(55.044 54.9997)">
<stop stop-color="white"/>
<stop offset="0.7809" stop-color="white"/>
<stop offset="0.8218" stop-color="#F6F4F1"/>
<stop offset="0.8832" stop-color="#E5DED9"/>
<stop offset="0.9571" stop-color="#C9C0B7"/>
<stop offset="1" stop-color="#B6ABA1"/>
</radialGradient>
</defs>
</svg>
