<svg width="24" height="24" viewBox="0 0 24 24" fill="none" xmlns="http://www.w3.org/2000/svg">
<path d="M16.8534 20.8688H7.15344C5.43344 20.8688 3.90344 19.9788 3.04344 18.4887C2.18344 16.9987 2.18344 15.2287 3.04344 13.7387L7.89344 5.34875C8.75344 3.85875 10.2934 2.96875 12.0034 2.96875C13.7134 2.96875 15.2534 3.85875 16.1134 5.34875L20.9634 13.7387C21.8234 15.2287 21.8234 16.9987 20.9634 18.4887C20.1034 19.9788 18.5634 20.8688 16.8534 20.8688ZM12.0034 4.46875C10.8334 4.46875 9.77344 5.07875 9.19344 6.09875L4.34344 14.4887C3.75344 15.5087 3.75344 16.7188 4.34344 17.7387C4.93344 18.7587 5.98344 19.3588 7.15344 19.3588H16.8434C18.0134 19.3588 19.0734 18.7487 19.6534 17.7387C20.2434 16.7188 20.2434 15.5087 19.6534 14.4887L14.8034 6.09875C14.5217 5.60223 14.113 5.18959 13.6192 4.90315C13.1254 4.61671 12.5643 4.46678 11.9934 4.46875H12.0034Z" fill="#E68F3C"/>
<path d="M12 14.6566C11.59 14.6566 11.25 14.3166 11.25 13.9066V8.47656C11.25 8.06656 11.59 7.72656 12 7.72656C12.41 7.72656 12.75 8.06656 12.75 8.47656V13.9066C12.75 14.3166 12.41 14.6566 12 14.6566ZM12 17.3966C11.59 17.3966 11.25 17.0566 11.25 16.6466V16.3366C11.25 15.9266 11.59 15.5866 12 15.5866C12.41 15.5866 12.75 15.9266 12.75 16.3366V16.6466C12.75 17.0566 12.41 17.3966 12 17.3966Z" fill="#E68F3C"/>
</svg>
