<svg width="25" height="25" viewBox="0 0 25 25" fill="none" xmlns="http://www.w3.org/2000/svg">
<path fill-rule="evenodd" clip-rule="evenodd" d="M11.75 15.5035C11.75 14.9065 11.513 14.3343 11.0908 13.9128C10.882 13.7037 10.634 13.5378 10.361 13.4247C10.0881 13.3116 9.79548 13.2534 9.5 13.2535H4.25C3.653 13.2535 3.08075 13.4905 2.65925 13.9128C2.45017 14.1216 2.28432 14.3695 2.1712 14.6425C2.05808 14.9155 1.9999 15.208 2 15.5035V20.7535C2 21.3505 2.237 21.9228 2.65925 22.3443C2.86804 22.5534 3.11601 22.7192 3.38897 22.8323C3.66193 22.9454 3.95453 23.0036 4.25 23.0035H9.5C10.097 23.0035 10.6693 22.7665 11.0908 22.3443C11.2998 22.1355 11.4657 21.8875 11.5788 21.6146C11.6919 21.3416 11.7501 21.049 11.75 20.7535V15.5035ZM23 15.5035C23 14.9065 22.763 14.3343 22.3408 13.9128C22.132 13.7037 21.884 13.5378 21.611 13.4247C21.3381 13.3116 21.0455 13.2534 20.75 13.2535H15.5C14.903 13.2535 14.3308 13.4905 13.9093 13.9128C13.7002 14.1216 13.5343 14.3695 13.4212 14.6425C13.3081 14.9155 13.2499 15.208 13.25 15.5035V20.7535C13.25 21.3505 13.487 21.9228 13.9093 22.3443C14.118 22.5534 14.366 22.7192 14.639 22.8323C14.9119 22.9454 15.2045 23.0036 15.5 23.0035H20.75C21.347 23.0035 21.9193 22.7665 22.3408 22.3443C22.5498 22.1355 22.7157 21.8875 22.8288 21.6146C22.9419 21.3416 23.0001 21.049 23 20.7535V15.5035ZM10.25 15.5035V20.7535C10.2503 20.8521 10.2311 20.9498 10.1935 21.0409C10.1559 21.132 10.1007 21.2148 10.031 21.2845C9.96129 21.3542 9.87849 21.4095 9.78736 21.447C9.69624 21.4846 9.59858 21.5038 9.5 21.5035H4.25C4.15143 21.5038 4.05377 21.4846 3.96264 21.447C3.87151 21.4095 3.78871 21.3542 3.71901 21.2845C3.6493 21.2148 3.59407 21.132 3.55649 21.0409C3.5189 20.9498 3.4997 20.8521 3.5 20.7535V15.5035C3.4997 15.4049 3.5189 15.3073 3.55649 15.2162C3.59407 15.125 3.6493 15.0422 3.71901 14.9725C3.78871 14.9028 3.87151 14.8476 3.96264 14.81C4.05377 14.7724 4.15143 14.7532 4.25 14.7535H9.5C9.59858 14.7532 9.69624 14.7724 9.78736 14.81C9.87849 14.8476 9.96129 14.9028 10.031 14.9725C10.1007 15.0422 10.1559 15.125 10.1935 15.2162C10.2311 15.3073 10.2503 15.4049 10.25 15.5035ZM21.5 15.5035V20.7535C21.5003 20.8521 21.4811 20.9498 21.4435 21.0409C21.4059 21.132 21.3507 21.2148 21.281 21.2845C21.2113 21.3542 21.1285 21.4095 21.0374 21.447C20.9462 21.4846 20.8486 21.5038 20.75 21.5035H15.5C15.4014 21.5038 15.3038 21.4846 15.2126 21.447C15.1215 21.4095 15.0387 21.3542 14.969 21.2845C14.8993 21.2148 14.8441 21.132 14.8065 21.0409C14.7689 20.9498 14.7497 20.8521 14.75 20.7535V15.5035C14.7497 15.4049 14.7689 15.3073 14.8065 15.2162C14.8441 15.125 14.8993 15.0422 14.969 14.9725C15.0387 14.9028 15.1215 14.8476 15.2126 14.81C15.3038 14.7724 15.4014 14.7532 15.5 14.7535H20.75C20.8486 14.7532 20.9462 14.7724 21.0374 14.81C21.1285 14.8476 21.2113 14.9028 21.281 14.9725C21.3507 15.0422 21.4059 15.125 21.4435 15.2162C21.4811 15.3073 21.5003 15.4049 21.5 15.5035ZM19.7158 11.5983L22.8448 8.46927C23.2666 8.04733 23.5035 7.47514 23.5035 6.87852C23.5035 6.2819 23.2666 5.70971 22.8448 5.28777L19.7158 2.15877C19.2938 1.73696 18.7216 1.5 18.125 1.5C17.5284 1.5 16.9562 1.73696 16.5343 2.15877L13.4053 5.28777C12.9834 5.70971 12.7465 6.2819 12.7465 6.87852C12.7465 7.47514 12.9834 8.04733 13.4053 8.46927L16.5343 11.5983C16.9562 12.0201 17.5284 12.257 18.125 12.257C18.7216 12.257 19.2938 12.0201 19.7158 11.5983ZM11.75 4.25352C11.75 3.65652 11.513 3.08427 11.0908 2.66277C10.882 2.45369 10.634 2.28784 10.361 2.17472C10.0881 2.0616 9.79548 2.00342 9.5 2.00352H4.25C3.653 2.00352 3.08075 2.24052 2.65925 2.66277C2.45017 2.87155 2.28432 3.11953 2.1712 3.39249C2.05808 3.66545 1.9999 3.95805 2 4.25352V9.50352C2 10.1005 2.237 10.6728 2.65925 11.0943C2.86804 11.3033 3.11601 11.4692 3.38897 11.5823C3.66193 11.6954 3.95453 11.7536 4.25 11.7535H9.5C10.097 11.7535 10.6693 11.5165 11.0908 11.0943C11.2998 10.8855 11.4657 10.6375 11.5788 10.3646C11.6919 10.0916 11.7501 9.799 11.75 9.50352V4.25352ZM21.7843 7.40877L18.6553 10.5378C18.5146 10.6784 18.3239 10.7574 18.125 10.7574C17.9261 10.7574 17.7354 10.6784 17.5948 10.5378L14.4658 7.40877C14.3251 7.26812 14.2462 7.07739 14.2462 6.87852C14.2462 6.67965 14.3251 6.48892 14.4658 6.34827L17.5948 3.21927C17.7354 3.07867 17.9261 2.99968 18.125 2.99968C18.3239 2.99968 18.5146 3.07867 18.6553 3.21927L21.7843 6.34827C21.9249 6.48892 22.0038 6.67965 22.0038 6.87852C22.0038 7.07739 21.9249 7.26812 21.7843 7.40877ZM10.25 4.25352V9.50352C10.2503 9.60209 10.2311 9.69976 10.1935 9.79088C10.1559 9.88201 10.1007 9.96481 10.031 10.0345C9.96129 10.1042 9.87849 10.1594 9.78736 10.197C9.69624 10.2346 9.59858 10.2538 9.5 10.2535H4.25C4.15143 10.2538 4.05377 10.2346 3.96264 10.197C3.87151 10.1594 3.78871 10.1042 3.71901 10.0345C3.6493 9.96481 3.59407 9.88201 3.55649 9.79088C3.5189 9.69976 3.4997 9.60209 3.5 9.50352V4.25352C3.4997 4.15495 3.5189 4.05728 3.55649 3.96616C3.59407 3.87503 3.6493 3.79223 3.71901 3.72253C3.78871 3.65282 3.87151 3.59759 3.96264 3.56C4.05377 3.52242 4.15143 3.50322 4.25 3.50352H9.5C9.59858 3.50322 9.69624 3.52242 9.78736 3.56C9.87849 3.59759 9.96129 3.65282 10.031 3.72253C10.1007 3.79223 10.1559 3.87503 10.1935 3.96616C10.2311 4.05728 10.2503 4.15495 10.25 4.25352Z" fill="#2F2B3D" fill-opacity="0.7"/>
</svg>
