<svg width="22" height="24" viewBox="0 0 22 24" fill="none" xmlns="http://www.w3.org/2000/svg">
<path d="M10.0006 23.9999C11.8116 23.9999 13.3267 22.7089 13.6746 20.9999H6.32654C6.67464 22.7089 8.18964 23.9999 10.0006 23.9999ZM17.0126 11.999C17.0086 11.999 17.0045 11.9999 17.0005 11.9999C13.1416 11.9999 10.0006 8.85988 10.0006 5C10.0006 3.93889 10.2446 2.93586 10.6696 2.03389C10.4495 2.01298 10.2265 2 10.0006 2C6.13464 2 3.00062 5.13383 3.00062 8.99994V11.7879C3.00062 13.7669 2.13362 15.635 0.612528 16.9209C0.105528 17.354 -0.119472 18.0439 0.0624967 18.717C0.274512 19.4999 1.04851 20 1.86062 20H18.1355C18.9875 20 19.7906 19.448 19.9635 18.613C20.0975 17.967 19.8675 17.3219 19.3665 16.901C17.9124 15.682 17.0716 13.8909 17.0126 11.999Z" fill="white"/>
<path d="M21.9999 5.00006C21.9999 7.76147 19.7615 9.99994 16.9999 9.99994C14.2385 9.99994 12 7.76147 12 5.00006C12 2.23866 14.2385 0 16.9999 0C19.7615 0 21.9999 2.23866 21.9999 5.00006Z" fill="#FF4C51"/>
</svg>
