<svg width="28" height="25" viewBox="0 0 28 25" fill="none" xmlns="http://www.w3.org/2000/svg">
<path d="M23.9558 6.95078H17.3233V2.32282C17.3215 1.31593 16.5049 0.50046 15.498 0.5H12.8693C11.8632 0.50138 11.048 1.31671 11.0468 2.32282V6.95137H3.88024C2.10901 6.95341 0.673715 8.38883 0.671875 10.1601V21.291C0.673715 23.0623 2.10894 24.4978 3.88024 24.5H23.9558C25.7272 24.498 27.1627 23.0625 27.1647 21.291V18.4153C27.1647 18.2726 27.1081 18.1358 27.0072 18.035C26.9063 17.9341 26.7696 17.8774 26.6269 17.8774C26.4843 17.8774 26.3475 17.9341 26.2466 18.035C26.1458 18.1358 26.0891 18.2726 26.0891 18.4153V21.291C26.0877 22.4687 25.1335 23.4229 23.9558 23.4243H3.88024C2.70282 23.4228 1.74876 22.4685 1.74757 21.291V10.1601C1.74876 8.9827 2.70282 8.02845 3.88024 8.02713H11.0475V8.90306C11.0478 9.90995 11.863 10.7266 12.87 10.7286H15.4981C16.5058 10.7275 17.3224 9.91074 17.3234 8.90306V8.02713H23.9558C25.1334 8.02832 26.0877 8.98251 26.0891 10.1601V14.3153C26.0891 14.458 26.1458 14.5948 26.2466 14.6956C26.3475 14.7965 26.4843 14.8531 26.6269 14.8531C26.7696 14.8531 26.9063 14.7965 27.0072 14.6956C27.1081 14.5948 27.1647 14.458 27.1647 14.3153V10.1601C27.163 8.38844 25.7273 6.95262 23.9558 6.95078ZM16.2476 8.9024C16.2473 9.31628 15.9119 9.65182 15.498 9.65228H12.8693C12.4563 9.6509 12.1222 9.31549 12.1225 8.9024V2.32282C12.1228 1.91045 12.457 1.57616 12.8693 1.5757H15.4974C15.9108 1.57517 16.2465 1.90947 16.2477 2.32282L16.2476 8.9024ZM27.1647 16.2589V16.6204C27.1647 16.763 27.108 16.8998 27.0071 17.0007C26.9063 17.1015 26.7695 17.1582 26.6268 17.1582C26.4842 17.1582 26.3474 17.1015 26.2466 17.0007C26.1457 16.8998 26.089 16.763 26.089 16.6204V16.2589C26.089 16.1163 26.1457 15.9795 26.2466 15.8786C26.3474 15.7778 26.4842 15.7211 26.6268 15.7211C26.7695 15.7211 26.9063 15.7778 27.0071 15.8786C27.108 15.9795 27.1647 16.1163 27.1647 16.2589ZM4.66732 18.8147V19.7183C4.66732 19.789 4.68123 19.8589 4.70826 19.9241C4.73528 19.9894 4.7749 20.0487 4.82484 20.0986C4.87478 20.1486 4.93407 20.1882 4.99932 20.2152C5.06457 20.2422 5.13451 20.2562 5.20513 20.2562H11.3415C11.4122 20.2562 11.4821 20.2422 11.5473 20.2152C11.6126 20.1882 11.6719 20.1486 11.7218 20.0986C11.7718 20.0487 11.8114 19.9894 11.8384 19.9241C11.8654 19.8589 11.8793 19.789 11.8793 19.7183V18.8147C11.8789 18.1616 11.7011 17.5209 11.365 16.9609C11.029 16.4009 10.5472 15.9426 9.97109 15.635C11.0242 14.6976 11.118 13.084 10.1806 12.0309C9.24323 10.9778 7.62958 10.884 6.57649 11.8214C5.5234 12.7587 5.42962 14.3724 6.36699 15.4255C6.4327 15.4993 6.50269 15.5692 6.57649 15.635C6.00033 15.9426 5.51849 16.4008 5.18236 16.9609C4.84623 17.5209 4.66783 18.1616 4.66732 18.8147ZM6.79624 13.7397C6.79184 12.9239 7.44952 12.259 8.26531 12.2546C9.08104 12.2502 9.74595 12.9079 9.75035 13.7237C9.75476 14.5394 9.09708 15.2043 8.28128 15.2087H8.273C7.4603 15.2093 6.79966 14.5524 6.79624 13.7397ZM5.74361 18.8147C5.74341 17.4174 6.87602 16.2846 8.27333 16.2844C9.67064 16.2842 10.8035 17.4168 10.8037 18.8141V19.1805H5.74361V18.8147ZM14.1854 4.15675C13.3806 4.15675 12.7283 4.80911 12.7283 5.61386C12.7283 6.41861 13.3806 7.07097 14.1854 7.07097C14.9901 7.07097 15.6425 6.41861 15.6425 5.61386C15.6416 4.80943 14.9897 4.1576 14.1854 4.15675ZM14.1854 5.99494C14.1099 5.99496 14.0362 5.97259 13.9734 5.93068C13.9107 5.88877 13.8618 5.82919 13.8329 5.75948C13.804 5.68977 13.7964 5.61306 13.8112 5.53906C13.8259 5.46505 13.8622 5.39707 13.9156 5.34372C13.9689 5.29036 14.0369 5.25403 14.1109 5.23931C14.1849 5.22459 14.2616 5.23215 14.3313 5.26103C14.401 5.28992 14.4606 5.33882 14.5025 5.40157C14.5444 5.46431 14.5668 5.53807 14.5668 5.61353C14.5666 5.7146 14.5264 5.81181 14.4549 5.88325C14.3834 5.95469 14.2864 5.99486 14.1854 5.99494ZM14.1832 14.0965C14.1832 14.0259 14.197 13.956 14.224 13.8908C14.251 13.8255 14.2905 13.7663 14.3404 13.7163C14.3903 13.6664 14.4495 13.6267 14.5147 13.5997C14.5799 13.5727 14.6498 13.5587 14.7204 13.5587H16.8829C17.0255 13.5587 17.1623 13.6153 17.2632 13.7162C17.364 13.8171 17.4207 13.9539 17.4207 14.0965C17.4207 14.2391 17.364 14.3759 17.2632 14.4768C17.1623 14.5777 17.0255 14.6343 16.8829 14.6343H14.721C14.5784 14.6343 14.4416 14.5777 14.3407 14.4768C14.2399 14.3759 14.1832 14.2391 14.1832 14.0965ZM23.7864 14.0965C23.7864 14.2391 23.7297 14.3759 23.6288 14.4767C23.528 14.5776 23.3912 14.6342 23.2486 14.6343H19.5427C19.4001 14.6343 19.2633 14.5777 19.1624 14.4768C19.0616 14.3759 19.0049 14.2391 19.0049 14.0965C19.0049 13.9539 19.0616 13.8171 19.1624 13.7162C19.2633 13.6153 19.4001 13.5587 19.5427 13.5587H23.2486C23.3192 13.5587 23.3892 13.5726 23.4544 13.5996C23.5197 13.6266 23.579 13.6662 23.6289 13.7162C23.6789 13.7661 23.7185 13.8254 23.7455 13.8907C23.7725 13.9559 23.7864 14.0259 23.7864 14.0965ZM23.7864 16.2528C23.7864 16.3234 23.7725 16.3933 23.7455 16.4586C23.7185 16.5238 23.6788 16.5831 23.6289 16.6331C23.579 16.683 23.5197 16.7226 23.4544 16.7496C23.3892 16.7767 23.3192 16.7906 23.2486 16.7906H14.7211C14.5784 16.7906 14.4417 16.7339 14.3408 16.6331C14.2399 16.5322 14.1833 16.3954 14.1833 16.2528C14.1833 16.1101 14.2399 15.9733 14.3408 15.8725C14.4417 15.7716 14.5784 15.7149 14.7211 15.7149H23.2486C23.3912 15.715 23.528 15.7717 23.6288 15.8726C23.7296 15.9734 23.7863 16.1101 23.7864 16.2528ZM19.5829 17.8715C19.7255 17.8715 19.8623 17.9282 19.9632 18.0291C20.064 18.1299 20.1207 18.2667 20.1207 18.4093C20.1207 18.552 20.064 18.6888 19.9632 18.7896C19.8623 18.8905 19.7255 18.9472 19.5829 18.9472H14.721C14.5784 18.9472 14.4416 18.8905 14.3407 18.7896C14.2399 18.6888 14.1832 18.552 14.1832 18.4093C14.1832 18.2667 14.2399 18.1299 14.3407 18.0291C14.4416 17.9282 14.5784 17.8715 14.721 17.8715H19.5829ZM23.7864 18.4094C23.7864 18.552 23.7297 18.6888 23.6288 18.7896C23.528 18.8905 23.3912 18.9472 23.2486 18.9472H22.1452C22.0026 18.9472 21.8658 18.8906 21.7649 18.7897C21.6641 18.6888 21.6074 18.552 21.6074 18.4094C21.6074 18.2668 21.6641 18.13 21.7649 18.0291C21.8658 17.9283 22.0026 17.8716 22.1452 17.8716H23.2486C23.3912 17.8717 23.528 17.9284 23.6288 18.0292C23.7296 18.1301 23.7863 18.2668 23.7864 18.4094Z" fill="#444444"/>
</svg>
