<svg width="25" height="25" viewBox="0 0 25 25" fill="none" xmlns="http://www.w3.org/2000/svg">
<path d="M24.4514 0.5H6.64491C6.54224 0.5 6.44379 0.540783 6.37119 0.613378C6.2986 0.685973 6.25781 0.784432 6.25781 0.887097V13.6303C6.25781 13.733 6.2986 13.8314 6.37119 13.904C6.44379 13.9766 6.54224 14.0174 6.64491 14.0174C6.74757 14.0174 6.84603 13.9766 6.91863 13.904C6.99122 13.8314 7.03201 13.733 7.03201 13.6303V1.27419H24.0643V23.7258H7.03201C7.03201 23.6231 6.99122 23.5247 6.91863 23.4521C6.84603 23.3795 6.74757 23.3387 6.64491 23.3387C6.54224 23.3387 6.44379 23.3795 6.37119 23.4521C6.2986 23.5247 6.25781 23.6231 6.25781 23.7258V24.1129C6.25781 24.2156 6.2986 24.314 6.37119 24.3866C6.44379 24.4592 6.54224 24.5 6.64491 24.5H24.4514C24.554 24.5 24.6525 24.4592 24.7251 24.3866C24.7977 24.314 24.8385 24.2156 24.8385 24.1129V0.887097C24.8385 0.784432 24.7977 0.685973 24.7251 0.613378C24.6525 0.540783 24.554 0.5 24.4514 0.5Z" fill="#444444"/>
<path d="M5.75478 11.997C5.82529 11.924 5.86431 11.8262 5.86343 11.7247C5.86254 11.6232 5.82183 11.5261 5.75006 11.4544C5.67829 11.3826 5.5812 11.3419 5.47971 11.341C5.37821 11.3401 5.28043 11.3791 5.20742 11.4496L3.95207 12.705C3.69971 12.956 3.49964 13.2546 3.36343 13.5834C3.22722 13.9122 3.15757 14.2648 3.15852 14.6207C3.05633 18.2699 3.42097 18.9872 2.77142 19.8524L0.913358 22.3298C0.85176 22.4119 0.825311 22.5151 0.83983 22.6168C0.854349 22.7184 0.908646 22.8101 0.990778 22.8717C1.07291 22.9333 1.17615 22.9598 1.27778 22.9452C1.37941 22.9307 1.47111 22.8764 1.53271 22.7943L3.39078 20.3169C4.27181 19.1428 3.80458 18.1042 3.93271 14.6207C3.93202 14.3665 3.98175 14.1147 4.07902 13.8798C4.1763 13.6449 4.31919 13.4316 4.49942 13.2524L5.75478 11.997ZM9.73917 16.0824L11.1157 13.605C11.3014 13.2683 11.3595 12.8759 11.2793 12.4999C11.1991 12.1238 10.986 11.7893 10.679 11.5576C10.5459 11.4578 10.3939 11.3862 10.2322 11.347C10.0705 11.3078 9.90247 11.3019 9.73843 11.3298C9.57438 11.3576 9.41771 11.4185 9.27796 11.5088C9.1382 11.599 9.01828 11.7168 8.92549 11.8549L6.3211 15.7344C6.29172 15.7766 6.27103 15.8242 6.26023 15.8744C6.24944 15.9247 6.24875 15.9766 6.25823 16.0271C6.2677 16.0776 6.28713 16.1257 6.3154 16.1686C6.34366 16.2115 6.38019 16.2484 6.42285 16.2771C6.46552 16.3057 6.51346 16.3256 6.56388 16.3355C6.6143 16.3455 6.6662 16.3453 6.71654 16.3349C6.76689 16.3246 6.81467 16.3043 6.8571 16.2753C6.89953 16.2463 6.93576 16.2092 6.96368 16.166L9.56768 12.2862C9.60186 12.2352 9.64606 12.1918 9.69758 12.1584C9.7491 12.1251 9.80687 12.1027 9.86736 12.0924C9.92785 12.0822 9.98979 12.0843 10.0494 12.0988C10.109 12.1133 10.1651 12.1398 10.2141 12.1766C10.3718 12.2956 10.4812 12.4675 10.5224 12.6606C10.5637 12.8538 10.5339 13.0553 10.4386 13.2284L9.01375 15.7933C8.98175 15.8508 8.96497 15.9155 8.96497 15.9814C8.96497 20.7554 6.65129 21.3868 6.55646 21.4104C6.47359 21.4291 6.39925 21.4747 6.3451 21.5401L4.40962 23.8627C4.3468 23.9418 4.31744 24.0424 4.3278 24.1429C4.33815 24.2435 4.38741 24.336 4.46504 24.4007C4.54267 24.4653 4.64253 24.4971 4.74327 24.4892C4.84401 24.4812 4.93766 24.4342 5.0042 24.3582L6.86613 22.1242C7.45878 21.9179 9.70742 20.824 9.73917 16.0824ZM21.7392 12.4975H12.8359C12.7333 12.4975 12.6348 12.5383 12.5622 12.6109C12.4896 12.6835 12.4488 12.7819 12.4488 12.8846C12.4488 12.9873 12.4896 13.0857 12.5622 13.1583C12.6348 13.2309 12.7333 13.2717 12.8359 13.2717H21.7392C21.8418 13.2717 21.9403 13.2309 22.0129 13.1583C22.0855 13.0857 22.1263 12.9873 22.1263 12.8846C22.1263 12.7819 22.0855 12.6835 22.0129 12.6109C21.9403 12.5383 21.8418 12.4975 21.7392 12.4975ZM21.7392 14.8201H15.9327C15.83 14.8201 15.7316 14.8609 15.659 14.9335C15.5864 15.0061 15.5456 15.1045 15.5456 15.2072C15.5456 15.3099 15.5864 15.4083 15.659 15.4809C15.7316 15.5535 15.83 15.5943 15.9327 15.5943H21.7392C21.8418 15.5943 21.9403 15.5535 22.0129 15.4809C22.0855 15.4083 22.1263 15.3099 22.1263 15.2072C22.1263 15.1045 22.0855 15.0061 22.0129 14.9335C21.9403 14.8609 21.8418 14.8201 21.7392 14.8201ZM13.9972 15.5943C14.0999 15.5943 14.1984 15.5535 14.2709 15.4809C14.3435 15.4083 14.3843 15.3099 14.3843 15.2072C14.3843 15.1045 14.3435 15.0061 14.2709 14.9335C14.1984 14.8609 14.0999 14.8201 13.9972 14.8201H11.6746C11.572 14.8201 11.4735 14.8609 11.4009 14.9335C11.3283 15.0061 11.2876 15.1045 11.2876 15.2072C11.2876 15.3099 11.3283 15.4083 11.4009 15.4809C11.4735 15.5535 11.572 15.5943 11.6746 15.5943H13.9972ZM22.1263 17.5298C22.1263 17.4271 22.0855 17.3286 22.0129 17.2561C21.9403 17.1835 21.8418 17.1427 21.7392 17.1427H18.6424C18.5397 17.1427 18.4413 17.1835 18.3687 17.2561C18.2961 17.3286 18.2553 17.4271 18.2553 17.5298C18.2553 17.6324 18.2961 17.7309 18.3687 17.8035C18.4413 17.8761 18.5397 17.9169 18.6424 17.9169H21.7392C21.8418 17.9169 21.9403 17.8761 22.0129 17.8035C22.0855 17.7309 22.1263 17.6324 22.1263 17.5298ZM10.5134 17.5298C10.5134 17.6324 10.5541 17.7309 10.6267 17.8035C10.6993 17.8761 10.7978 17.9169 10.9005 17.9169H16.7069C16.8096 17.9169 16.908 17.8761 16.9806 17.8035C17.0532 17.7309 17.094 17.6324 17.094 17.5298C17.094 17.4271 17.0532 17.3286 16.9806 17.2561C16.908 17.1835 16.8096 17.1427 16.7069 17.1427H10.9005C10.7978 17.1427 10.6993 17.1835 10.6267 17.2561C10.5541 17.3286 10.5134 17.4271 10.5134 17.5298ZM12.8611 22.0201C12.9074 22.0696 12.9634 22.109 13.0258 22.1357C13.0881 22.1623 13.1553 22.1757 13.223 22.1749C13.9415 22.1749 14.3154 21.3976 14.6704 21.0779C14.7327 21.6779 14.8558 22.1749 15.5456 22.1749C15.9602 22.1749 16.2927 21.8068 16.5954 21.5296C16.8296 21.8873 17.3263 22.1749 18.6424 22.1749C18.7451 22.1749 18.8435 22.1341 18.9161 22.0616C18.9887 21.989 19.0295 21.8905 19.0295 21.7878C19.0295 21.6852 18.9887 21.5867 18.9161 21.5141C18.8435 21.4415 18.7451 21.4007 18.6424 21.4007C17.3491 21.4007 17.238 21.1162 17.1958 21.009C17.166 20.9013 17.1024 20.8061 17.0144 20.7372C16.9264 20.6684 16.8186 20.6296 16.7069 20.6265C16.2196 20.6265 15.781 21.3458 15.5456 21.4007C15.5205 21.4007 15.5069 21.398 15.5015 21.4007C15.3997 21.2169 15.5553 20.2394 14.7714 20.2394C14.1703 20.2394 13.8459 20.9029 13.4855 21.2494C13.513 20.8422 13.5799 20.3498 13.302 20.0494C13.2427 19.9855 13.1704 19.9349 13.0901 19.9009C13.0098 19.8669 12.9231 19.8504 12.8359 19.8524C12.0408 19.8524 11.2577 21.2037 10.8617 21.4007C10.7591 21.4059 10.6627 21.4516 10.5937 21.5278C10.5247 21.604 10.4889 21.7045 10.494 21.8072C10.4991 21.9099 10.5448 22.0063 10.6211 22.0752C10.6973 22.1442 10.7978 22.1801 10.9005 22.1749C11.5237 22.1749 12.1825 20.9978 12.7365 20.6653C12.7605 21.1077 12.575 21.7104 12.8611 22.0201Z" fill="#444444"/>
</svg>
