<svg width="21" height="21" viewBox="0 0 21 21" fill="none" xmlns="http://www.w3.org/2000/svg">
<path d="M7.63478 19.2733V16.2156C7.63478 15.4351 8.27217 14.8023 9.05844 14.8023H11.9326C12.3102 14.8023 12.6723 14.9512 12.9393 15.2163C13.2063 15.4813 13.3563 15.8408 13.3563 16.2156V19.2733C13.3539 19.5978 13.4821 19.9099 13.7124 20.1402C13.9427 20.3705 14.256 20.5 14.5829 20.5H16.5438C17.4596 20.5024 18.3388 20.1428 18.9872 19.5008C19.6356 18.8588 20 17.987 20 17.0778V8.36686C20 7.63246 19.6721 6.93584 19.1046 6.46467L12.434 1.17587C11.2737 0.248562 9.61111 0.278502 8.48539 1.24698L1.96701 6.46467C1.37274 6.92195 1.01755 7.62064 1 8.36686V17.0689C1 18.9639 2.54738 20.5 4.45617 20.5H6.37229C7.05123 20.5 7.603 19.9562 7.60792 19.2822L7.63478 19.2733Z" stroke="#444444"/>
</svg>
