<svg width="25" height="24" viewBox="0 0 25 24" fill="none" xmlns="http://www.w3.org/2000/svg">
<path d="M12.499 22.4922C11.3172 22.4944 10.1466 22.263 9.05445 21.8114C7.96234 21.3597 6.97026 20.6967 6.13522 19.8604C6.06358 19.7913 6.00645 19.7085 5.96714 19.617C5.92783 19.5255 5.90714 19.4271 5.90628 19.3275C5.90541 19.2279 5.92439 19.1291 5.9621 19.037C5.99981 18.9448 6.0555 18.8611 6.12592 18.7906C6.19634 18.7202 6.28008 18.6645 6.37225 18.6268C6.46442 18.5891 6.56318 18.5701 6.66277 18.571C6.76235 18.5719 6.86077 18.5926 6.95227 18.6319C7.04377 18.6712 7.12653 18.7283 7.19572 18.7999C8.2446 19.8488 9.58098 20.5632 11.0358 20.8526C12.4907 21.142 13.9987 20.9935 15.3692 20.4258C16.7396 19.8581 17.911 18.8969 18.7351 17.6635C19.5592 16.4301 19.9991 14.9801 19.9991 13.4967C19.9991 12.0133 19.5592 10.5633 18.7351 9.3299C17.911 8.09652 16.7396 7.13523 15.3692 6.56758C13.9987 5.99992 12.4907 5.85141 11.0358 6.14081C9.58098 6.43021 8.2446 7.14453 7.19572 8.19344C7.12653 8.26507 7.04377 8.32221 6.95227 8.36151C6.86077 8.40082 6.76235 8.42151 6.66277 8.42237C6.56318 8.42324 6.46442 8.40426 6.37225 8.36655C6.28008 8.32884 6.19634 8.27315 6.12592 8.20273C6.0555 8.13231 5.99981 8.04857 5.9621 7.9564C5.92439 7.86423 5.90541 7.76547 5.90628 7.66589C5.90714 7.5663 5.92783 7.46789 5.96714 7.37638C6.00645 7.28488 6.06358 7.20212 6.13522 7.13294C7.18135 6.08526 8.46979 5.31184 9.88633 4.88124C11.3029 4.45064 12.8038 4.37615 14.256 4.66439C15.7082 4.95262 17.0669 5.59467 18.2116 6.53362C19.3564 7.47258 20.2518 8.67944 20.8185 10.0472C21.3852 11.415 21.6057 12.9015 21.4605 14.3749C21.3153 15.8483 20.8088 17.2632 19.986 18.494C19.1632 19.7248 18.0494 20.7337 16.7434 21.4311C15.4374 22.1285 13.9795 22.493 12.499 22.4922Z" fill="#424242"/>
<path d="M16.25 18C16.0511 18 15.8604 17.9209 15.7197 17.7803L11.9698 14.0303C11.8291 13.8896 11.75 13.6989 11.75 13.5V8.25C11.75 8.05109 11.829 7.86032 11.9697 7.71967C12.1103 7.57902 12.3011 7.5 12.5 7.5C12.6989 7.5 12.8897 7.57902 13.0303 7.71967C13.171 7.86032 13.25 8.05109 13.25 8.25V13.1895L16.7803 16.7197C16.8851 16.8246 16.9565 16.9583 16.9854 17.1037C17.0144 17.2492 16.9995 17.4 16.9428 17.537C16.886 17.674 16.7899 17.7911 16.6666 17.8736C16.5433 17.956 16.3983 18 16.25 18Z" fill="#424242"/>
<path d="M9.5 14.25H2.75C2.55109 14.25 2.36032 14.171 2.21967 14.0303C2.07902 13.8897 2 13.6989 2 13.5C2 13.3011 2.07902 13.1103 2.21967 12.9697C2.36032 12.829 2.55109 12.75 2.75 12.75H9.5C9.69891 12.75 9.88968 12.829 10.0303 12.9697C10.171 13.1103 10.25 13.3011 10.25 13.5C10.25 13.6989 10.171 13.8897 10.0303 14.0303C9.88968 14.171 9.69891 14.25 9.5 14.25Z" fill="#424242"/>
<path d="M7.24984 16.4986C7.10153 16.4986 6.95655 16.4546 6.83325 16.3721C6.70994 16.2897 6.61383 16.1726 6.55708 16.0356C6.50033 15.8986 6.48548 15.7478 6.5144 15.6023C6.54333 15.4569 6.61473 15.3232 6.71959 15.2183L8.43934 13.4986L6.71959 11.7788C6.58297 11.6374 6.50738 11.4479 6.50908 11.2513C6.51079 11.0546 6.58967 10.8665 6.72873 10.7275C6.86778 10.5884 7.05589 10.5095 7.25254 10.5078C7.44919 10.5061 7.63864 10.5817 7.78009 10.7183L10.0301 12.9683C10.1707 13.109 10.2497 13.2997 10.2497 13.4986C10.2497 13.6975 10.1707 13.8882 10.0301 14.0288L7.78009 16.2788C7.63947 16.4195 7.44874 16.4986 7.24984 16.4986Z" fill="#424242"/>
<path d="M14 3H11C10.8011 3 10.6103 2.92098 10.4697 2.78033C10.329 2.63968 10.25 2.44891 10.25 2.25C10.25 2.05109 10.329 1.86032 10.4697 1.71967C10.6103 1.57902 10.8011 1.5 11 1.5H14C14.1989 1.5 14.3897 1.57902 14.5303 1.71967C14.671 1.86032 14.75 2.05109 14.75 2.25C14.75 2.44891 14.671 2.63968 14.5303 2.78033C14.3897 2.92098 14.1989 3 14 3Z" fill="#424242"/>
</svg>
