<svg width="20" height="22" viewBox="0 0 20 22" fill="none" xmlns="http://www.w3.org/2000/svg">
<path d="M13.7891 12.4609H18.1641C18.3298 12.4609 18.4888 12.3951 18.606 12.2779C18.7232 12.1607 18.7891 12.0017 18.7891 11.8359C18.7891 11.6702 18.7232 11.5112 18.606 11.394C18.4888 11.2768 18.3298 11.2109 18.1641 11.2109H13.7891C13.6233 11.2109 13.4643 11.2768 13.3471 11.394C13.2299 11.5112 13.1641 11.6702 13.1641 11.8359C13.1641 12.0017 13.2299 12.1607 13.3471 12.2779C13.4643 12.3951 13.6233 12.4609 13.7891 12.4609Z" fill="#424242"/>
<path d="M15.6642 14.3379C15.7878 14.3379 15.9086 14.3012 16.0114 14.2325C16.1141 14.1638 16.1942 14.0662 16.2415 13.9519C16.2888 13.8377 16.3012 13.712 16.2771 13.5908C16.253 13.4695 16.1935 13.3581 16.1061 13.2707L14.6717 11.837L16.1017 10.4033C16.2155 10.2854 16.2785 10.1275 16.2771 9.96355C16.2757 9.79962 16.21 9.6428 16.0941 9.52688C15.9782 9.41095 15.8214 9.3452 15.6576 9.34377C15.4937 9.34235 15.3358 9.40537 15.2179 9.51926L13.3429 11.395C13.2258 11.5122 13.16 11.6712 13.16 11.837C13.16 12.0028 13.2258 12.1618 13.3429 12.279L15.2179 14.1547C15.2765 14.2133 15.3461 14.2597 15.4227 14.2911C15.4993 14.3226 15.5814 14.3385 15.6642 14.3379Z" fill="#424242"/>
<path d="M10.0061 19.3337C10.9909 19.3355 11.9664 19.1427 12.8765 18.7662C13.7866 18.3896 14.6133 17.8369 15.3092 17.1398C15.3689 17.0821 15.4165 17.0131 15.4493 16.9368C15.482 16.8605 15.4993 16.7785 15.5 16.6955C15.5007 16.6124 15.4849 16.5301 15.4535 16.4533C15.422 16.3764 15.3756 16.3066 15.3169 16.2479C15.2583 16.1892 15.1885 16.1428 15.1117 16.1114C15.0349 16.0799 14.9526 16.0641 14.8696 16.0648C14.7866 16.0655 14.7046 16.0828 14.6283 16.1156C14.5521 16.1483 14.4831 16.196 14.4254 16.2557C13.5514 17.1301 12.4377 17.7256 11.2253 17.9668C10.013 18.2081 8.75629 18.0843 7.61424 17.6111C6.4722 17.1378 5.49607 16.3365 4.80931 15.3083C4.12254 14.2801 3.75599 13.0713 3.75599 11.8347C3.75599 10.5981 4.12254 9.38924 4.80931 8.36105C5.49607 7.33285 6.4722 6.53148 7.61424 6.05826C8.75629 5.58504 10.013 5.46123 11.2253 5.70249C12.4377 5.94374 13.5514 6.53923 14.4254 7.41365C14.4831 7.47336 14.5521 7.52099 14.6283 7.55376C14.7046 7.58653 14.7866 7.60378 14.8696 7.6045C14.9526 7.60522 15.0349 7.5894 15.1117 7.55796C15.1885 7.52653 15.2583 7.4801 15.3169 7.4214C15.3756 7.36269 15.422 7.29288 15.4535 7.21604C15.4849 7.1392 15.5007 7.05687 15.5 6.97386C15.4993 6.89084 15.482 6.8088 15.4493 6.73251C15.4165 6.65623 15.3689 6.58724 15.3092 6.52957C14.4374 5.65618 13.3637 5.01142 12.1833 4.65246C11.0028 4.29349 9.75206 4.23139 8.54187 4.47168C7.33169 4.71196 6.19945 5.2472 5.24552 6.02995C4.29158 6.81271 3.54541 7.8188 3.07315 8.95905C2.60089 10.0993 2.41712 11.3385 2.53813 12.5668C2.65914 13.7951 3.0812 14.9746 3.76689 16.0006C4.45257 17.0267 5.38072 17.8677 6.46905 18.4491C7.55738 19.0305 8.77228 19.3344 10.0061 19.3337Z" fill="#424242"/>
<path d="M13.125 15.5892C12.9593 15.5892 12.8003 15.5233 12.6831 15.406L9.55813 12.2798C9.44091 12.1626 9.37504 12.0036 9.375 11.8378V7.46117C9.375 7.29535 9.44085 7.13632 9.55806 7.01906C9.67527 6.90181 9.83424 6.83594 10 6.83594C10.1658 6.83594 10.3247 6.90181 10.4419 7.01906C10.5592 7.13632 10.625 7.29535 10.625 7.46117V11.5789L13.5669 14.5219C13.6543 14.6094 13.7138 14.7208 13.7379 14.842C13.762 14.9633 13.7496 15.089 13.7023 15.2032C13.655 15.3174 13.5749 15.4151 13.4722 15.4838C13.3694 15.5525 13.2486 15.5892 13.125 15.5892Z" fill="#424242"/>
<path d="M11.25 3.08594H8.75C8.58424 3.08594 8.42527 3.02009 8.30806 2.90288C8.19085 2.78567 8.125 2.6267 8.125 2.46094C8.125 2.29518 8.19085 2.13621 8.30806 2.019C8.42527 1.90179 8.58424 1.83594 8.75 1.83594H11.25C11.4158 1.83594 11.5747 1.90179 11.6919 2.019C11.8092 2.13621 11.875 2.29518 11.875 2.46094C11.875 2.6267 11.8092 2.78567 11.6919 2.90288C11.5747 3.02009 11.4158 3.08594 11.25 3.08594Z" fill="#424242"/>
</svg>
