<svg width="25" height="24" viewBox="0 0 25 24" fill="none" xmlns="http://www.w3.org/2000/svg">
<path d="M12.999 22.4922C11.8172 22.4944 10.6466 22.263 9.55445 21.8114C8.46234 21.3597 7.47026 20.6967 6.63522 19.8604C6.56358 19.7913 6.50645 19.7085 6.46714 19.617C6.42783 19.5255 6.40714 19.4271 6.40628 19.3275C6.40541 19.2279 6.42439 19.1291 6.4621 19.037C6.49981 18.9448 6.5555 18.8611 6.62592 18.7906C6.69634 18.7202 6.78008 18.6645 6.87225 18.6268C6.96442 18.5891 7.06318 18.5701 7.16277 18.571C7.26235 18.5719 7.36077 18.5926 7.45227 18.6319C7.54377 18.6712 7.62653 18.7283 7.69572 18.7999C8.7446 19.8488 10.081 20.5632 11.5358 20.8526C12.9907 21.142 14.4987 20.9935 15.8692 20.4258C17.2396 19.8581 18.411 18.8969 19.2351 17.6635C20.0592 16.4301 20.4991 14.9801 20.4991 13.4967C20.4991 12.0133 20.0592 10.5633 19.2351 9.3299C18.411 8.09652 17.2396 7.13523 15.8692 6.56758C14.4987 5.99992 12.9907 5.85141 11.5358 6.14081C10.081 6.43021 8.7446 7.14453 7.69572 8.19344C7.62653 8.26507 7.54377 8.32221 7.45227 8.36151C7.36077 8.40082 7.26235 8.42151 7.16277 8.42237C7.06318 8.42324 6.96442 8.40426 6.87225 8.36655C6.78008 8.32884 6.69634 8.27315 6.62592 8.20273C6.5555 8.13231 6.49981 8.04857 6.4621 7.9564C6.42439 7.86423 6.40541 7.76547 6.40628 7.66589C6.40714 7.5663 6.42783 7.46789 6.46714 7.37638C6.50645 7.28488 6.56358 7.20212 6.63522 7.13294C7.68135 6.08526 8.96979 5.31184 10.3863 4.88124C11.8029 4.45064 13.3038 4.37615 14.756 4.66439C16.2082 4.95262 17.5669 5.59467 18.7116 6.53362C19.8564 7.47258 20.7518 8.67944 21.3185 10.0472C21.8852 11.415 22.1057 12.9015 21.9605 14.3749C21.8153 15.8483 21.3088 17.2632 20.486 18.494C19.6632 19.7248 18.5494 20.7337 17.2434 21.4311C15.9374 22.1285 14.4795 22.493 12.999 22.4922Z" fill="#424242"/>
<path d="M16.75 18C16.5511 18 16.3604 17.9209 16.2197 17.7803L12.4698 14.0303C12.3291 13.8896 12.25 13.6989 12.25 13.5V8.25C12.25 8.05109 12.329 7.86032 12.4697 7.71967C12.6103 7.57902 12.8011 7.5 13 7.5C13.1989 7.5 13.3897 7.57902 13.5303 7.71967C13.671 7.86032 13.75 8.05109 13.75 8.25V13.1895L17.2803 16.7197C17.3851 16.8246 17.4565 16.9583 17.4854 17.1037C17.5144 17.2492 17.4995 17.4 17.4428 17.537C17.386 17.674 17.2899 17.7911 17.1666 17.8736C17.0433 17.956 16.8983 18 16.75 18Z" fill="#424242"/>
<path d="M14.5 3H11.5C11.3011 3 11.1103 2.92098 10.9697 2.78033C10.829 2.63968 10.75 2.44891 10.75 2.25C10.75 2.05109 10.829 1.86032 10.9697 1.71967C11.1103 1.57902 11.3011 1.5 11.5 1.5H14.5C14.6989 1.5 14.8897 1.57902 15.0303 1.71967C15.171 1.86032 15.25 2.05109 15.25 2.25C15.25 2.44891 15.171 2.63968 15.0303 2.78033C14.8897 2.92098 14.6989 3 14.5 3Z" fill="#424242"/>
<path d="M4.5 18C3.60999 18 2.73996 17.7361 1.99994 17.2416C1.25991 16.7471 0.683138 16.0443 0.342544 15.2221C0.00194977 14.3998 -0.0871652 13.495 0.0864682 12.6221C0.260102 11.7492 0.688686 10.9474 1.31802 10.318C1.94736 9.68869 2.74918 9.2601 3.62209 9.08647C4.49501 8.91283 5.39981 9.00195 6.22208 9.34254C7.04434 9.68314 7.74715 10.2599 8.24161 10.9999C8.73608 11.74 9 12.61 9 13.5C8.99864 14.6931 8.5241 15.8369 7.68048 16.6805C6.83686 17.5241 5.69306 17.9986 4.5 18ZM4.5 10.2857C3.86428 10.2857 3.24283 10.4742 2.71424 10.8274C2.18565 11.1806 1.77367 11.6826 1.53039 12.2699C1.28711 12.8573 1.22345 13.5036 1.34748 14.1271C1.4715 14.7506 1.77763 15.3233 2.22716 15.7728C2.67668 16.2224 3.24941 16.5285 3.87292 16.6525C4.49644 16.7765 5.14272 16.7129 5.73005 16.4696C6.31739 16.2263 6.81939 15.8143 7.17258 15.2858C7.52577 14.7572 7.71429 14.1357 7.71429 13.5C7.71326 12.6478 7.37429 11.8309 6.77172 11.2283C6.16914 10.6257 5.35217 10.2867 4.5 10.2857Z" fill="#424242"/>
<path d="M4.45703 13.1992C4.33582 13.1992 4.21957 13.1511 4.13386 13.0654C4.04815 12.9796 4 12.8634 4 12.7422V11.457C4 11.3358 4.04815 11.2196 4.13386 11.1339C4.21957 11.0482 4.33582 11 4.45703 11C4.57824 11 4.69449 11.0482 4.7802 11.1339C4.86591 11.2196 4.91406 11.3358 4.91406 11.457V12.7422C4.91406 12.8634 4.86591 12.9796 4.7802 13.0654C4.69449 13.1511 4.57824 13.1992 4.45703 13.1992ZM4.45703 15.4844C4.33582 15.4844 4.21957 15.4362 4.13386 15.3505C4.04815 15.2648 4 15.1486 4 15.0273V14.5703C4 14.4491 4.04815 14.3329 4.13386 14.2471C4.21957 14.1614 4.33582 14.1133 4.45703 14.1133C4.57824 14.1133 4.69449 14.1614 4.7802 14.2471C4.86591 14.3329 4.91406 14.4491 4.91406 14.5703V15.0273C4.91406 15.1486 4.86591 15.2648 4.7802 15.3505C4.69449 15.4362 4.57824 15.4844 4.45703 15.4844Z" fill="#424242"/>
</svg>
