<svg width="25" height="24" viewBox="0 0 25 24" fill="none" xmlns="http://www.w3.org/2000/svg">
<path d="M10.25 19.5H5.75C4.7558 19.4988 3.80267 19.1033 3.09966 18.4003C2.39666 17.6973 2.00119 16.7442 2 15.75V12.75C2 12.5511 2.07902 12.3603 2.21967 12.2197C2.36032 12.079 2.55109 12 2.75 12C2.94891 12 3.13968 12.079 3.28033 12.2197C3.42098 12.3603 3.5 12.5511 3.5 12.75V15.75C3.5 16.3467 3.73705 16.919 4.15901 17.341C4.58097 17.7629 5.15326 18 5.75 18H10.25C10.4489 18 10.6397 18.079 10.7803 18.2197C10.921 18.3603 11 18.5511 11 18.75C11 18.9489 10.921 19.1397 10.7803 19.2803C10.6397 19.421 10.4489 19.5 10.25 19.5ZM11.75 12C11.6695 12.0001 11.5894 11.9871 11.513 11.9618L2.513 8.96175C2.3636 8.91199 2.23364 8.81646 2.14157 8.68871C2.04949 8.56096 1.99996 8.40747 2 8.25V6.75C2 6.15326 2.23705 5.58097 2.65901 5.15901C3.08097 4.73705 3.65326 4.5 4.25 4.5H19.25C19.8467 4.5 20.419 4.73705 20.841 5.15901C21.2629 5.58097 21.5 6.15326 21.5 6.75V8.25C21.5 8.40747 21.4505 8.56096 21.3584 8.68871C21.2664 8.81646 21.1364 8.91199 20.987 8.96175L11.987 11.9618C11.9106 11.9871 11.8305 12.0001 11.75 12ZM3.5 7.70925L11.75 10.4595L20 7.70925V6.75C20 6.55109 19.921 6.36032 19.7803 6.21967C19.6397 6.07902 19.4489 6 19.25 6H4.25C4.05109 6 3.86032 6.07902 3.71967 6.21967C3.57902 6.36032 3.5 6.55109 3.5 6.75V7.70925Z" fill="#424242"/>
<path d="M14.75 5.25C14.5511 5.25 14.3603 5.17098 14.2197 5.03033C14.079 4.88968 14 4.69891 14 4.5V3.75C14 3.55109 13.921 3.36032 13.7803 3.21967C13.6397 3.07902 13.4489 3 13.25 3H10.25C10.0511 3 9.86032 3.07902 9.71967 3.21967C9.57902 3.36032 9.5 3.55109 9.5 3.75V4.5C9.5 4.69891 9.42098 4.88968 9.28033 5.03033C9.13968 5.17098 8.94891 5.25 8.75 5.25C8.55109 5.25 8.36032 5.17098 8.21967 5.03033C8.07902 4.88968 8 4.69891 8 4.5V3.75C8 3.15326 8.23705 2.58097 8.65901 2.15901C9.08097 1.73705 9.65326 1.5 10.25 1.5H13.25C13.8467 1.5 14.419 1.73705 14.841 2.15901C15.2629 2.58097 15.5 3.15326 15.5 3.75V4.5C15.5 4.69891 15.421 4.88968 15.2803 5.03033C15.1397 5.17098 14.9489 5.25 14.75 5.25Z" fill="#424242"/>
<path d="M17.75 22.5C16.7117 22.5 15.6966 22.1921 14.8333 21.6152C13.9699 21.0383 13.297 20.2184 12.8996 19.2591C12.5023 18.2998 12.3983 17.2442 12.6009 16.2258C12.8035 15.2074 13.3035 14.2719 14.0377 13.5377C14.7719 12.8035 15.7074 12.3035 16.7258 12.1009C17.7442 11.8983 18.7998 12.0023 19.7591 12.3996C20.7184 12.797 21.5383 13.4699 22.1152 14.3333C22.6921 15.1966 23 16.2117 23 17.25C22.9984 18.6419 22.4448 19.9763 21.4606 20.9606C20.4763 21.9448 19.1419 22.4984 17.75 22.5ZM17.75 13.5C17.0083 13.5 16.2833 13.7199 15.6666 14.132C15.0499 14.544 14.5693 15.1297 14.2855 15.8149C14.0016 16.5002 13.9274 17.2542 14.0721 17.9816C14.2168 18.709 14.5739 19.3772 15.0984 19.9017C15.6228 20.4261 16.291 20.7833 17.0184 20.9279C17.7458 21.0726 18.4998 20.9984 19.1851 20.7146C19.8703 20.4307 20.456 19.9501 20.868 19.3334C21.2801 18.7167 21.5 17.9917 21.5 17.25C21.4988 16.2558 21.1033 15.3027 20.4003 14.5997C19.6973 13.8967 18.7442 13.5012 17.75 13.5Z" fill="#424242"/>
<path d="M16 17.5L17.3333 19L20 16" stroke="#424242" stroke-width="1.5" stroke-linecap="round" stroke-linejoin="round"/>
<path d="M16 17.5L17.3333 19L20 16" stroke="#424242" stroke-width="1.5" stroke-linecap="round" stroke-linejoin="round"/>
</svg>
