<svg width="24" height="24" viewBox="0 0 24 24" fill="none" xmlns="http://www.w3.org/2000/svg">
<path d="M11.9971 22.4922C10.5166 22.493 9.05868 22.1285 7.75268 21.4311C6.44668 20.7337 5.33291 19.7248 4.51009 18.494C3.68726 17.2632 3.1808 15.8483 3.03558 14.3749C2.89037 12.9015 3.11089 11.415 3.67761 10.0472C4.24432 8.67944 5.13972 7.47258 6.28444 6.53362C7.42916 5.59467 8.78785 4.95262 10.2401 4.66439C11.6923 4.37615 13.1932 4.45064 14.6097 4.88124C16.0263 5.31184 17.3147 6.08526 18.3609 7.13294C18.4975 7.27439 18.5731 7.46384 18.5714 7.66049C18.5697 7.85714 18.4908 8.04524 18.3517 8.1843C18.2127 8.32336 18.0246 8.40223 17.8279 8.40394C17.6313 8.40565 17.4418 8.33006 17.3004 8.19344C16.2515 7.14453 14.9151 6.43021 13.4602 6.14081C12.0054 5.85141 10.4974 5.99992 9.12691 6.56758C7.75646 7.13523 6.58511 8.09652 5.76099 9.3299C4.93688 10.5633 4.49701 12.0133 4.49701 13.4967C4.49701 14.9801 4.93688 16.4301 5.76099 17.6635C6.58511 18.8969 7.75646 19.8581 9.12691 20.4258C10.4974 20.9935 12.0054 21.142 13.4602 20.8526C14.9151 20.5632 16.2515 19.8488 17.3004 18.7999C17.4418 18.6633 17.6313 18.5877 17.8279 18.5894C18.0246 18.5911 18.2127 18.67 18.3517 18.8091C18.4908 18.9481 18.5697 19.1362 18.5714 19.3329C18.5731 19.5295 18.4975 19.719 18.3609 19.8604C17.5258 20.6967 16.5337 21.3597 15.4416 21.8114C14.3495 22.263 13.1789 22.4944 11.9971 22.4922Z" fill="#424242"/>
<path d="M15.75 18C15.5511 18 15.3604 17.9209 15.2197 17.7803L11.4698 14.0303C11.3291 13.8896 11.25 13.6989 11.25 13.5V8.25C11.25 8.05109 11.329 7.86032 11.4697 7.71967C11.6103 7.57902 11.8011 7.5 12 7.5C12.1989 7.5 12.3897 7.57902 12.5303 7.71967C12.671 7.86032 12.75 8.05109 12.75 8.25V13.1895L16.2803 16.7197C16.3851 16.8246 16.4565 16.9583 16.4854 17.1037C16.5144 17.2492 16.4995 17.4 16.4428 17.537C16.386 17.674 16.2899 17.7911 16.1666 17.8736C16.0433 17.956 15.8983 18 15.75 18Z" fill="#424242"/>
<path d="M21.75 14.25H16.5C16.3011 14.25 16.1103 14.171 15.9697 14.0303C15.829 13.8897 15.75 13.6989 15.75 13.5C15.75 13.3011 15.829 13.1103 15.9697 12.9697C16.1103 12.829 16.3011 12.75 16.5 12.75H21.75C21.9489 12.75 22.1397 12.829 22.2803 12.9697C22.421 13.1103 22.5 13.3011 22.5 13.5C22.5 13.6989 22.421 13.8897 22.2803 14.0303C22.1397 14.171 21.9489 14.25 21.75 14.25Z" fill="#424242"/>
<path d="M19.4998 16.4986C19.3515 16.4986 19.2066 16.4546 19.0832 16.3721C18.9599 16.2897 18.8638 16.1726 18.8071 16.0356C18.7503 15.8986 18.7355 15.7478 18.7644 15.6023C18.7933 15.4569 18.8647 15.3232 18.9696 15.2183L20.6908 13.4986L18.9748 11.7788C18.8382 11.6374 18.7626 11.4479 18.7643 11.2513C18.766 11.0546 18.8449 10.8665 18.984 10.7275C19.123 10.5884 19.3111 10.5095 19.5078 10.5078C19.7044 10.5061 19.8939 10.5817 20.0353 10.7183L22.2853 12.9683C22.4259 13.109 22.5049 13.2997 22.5049 13.4986C22.5049 13.6975 22.4259 13.8882 22.2853 14.0288L20.0353 16.2788C19.9651 16.3491 19.8816 16.4047 19.7896 16.4425C19.6977 16.4802 19.5992 16.4993 19.4998 16.4986Z" fill="#424242"/>
<path d="M13.5 3H10.5C10.3011 3 10.1103 2.92098 9.96967 2.78033C9.82902 2.63968 9.75 2.44891 9.75 2.25C9.75 2.05109 9.82902 1.86032 9.96967 1.71967C10.1103 1.57902 10.3011 1.5 10.5 1.5H13.5C13.6989 1.5 13.8897 1.57902 14.0303 1.71967C14.171 1.86032 14.25 2.05109 14.25 2.25C14.25 2.44891 14.171 2.63968 14.0303 2.78033C13.8897 2.92098 13.6989 3 13.5 3Z" fill="#424242"/>
</svg>
