<svg width="20" height="21" viewBox="0 0 20 21" fill="none" xmlns="http://www.w3.org/2000/svg">
<path fill-rule="evenodd" clip-rule="evenodd" d="M10.0695 3.25C9.36285 3.25 4.90452 4.82 4.39035 5.24917C4.23869 5.40167 4.23202 5.66667 4.26535 7.44083C4.28035 8.29583 4.30119 9.4575 4.30119 11.0658C4.30119 15.4 9.06952 17.3242 10.0679 17.6783C11.067 17.3225 15.8379 15.3875 15.8379 11.0658C15.8379 9.45583 15.8587 8.29333 15.8745 7.43833C15.9062 5.66583 15.8995 5.40083 15.7395 5.24083C15.2354 4.82 10.7762 3.25 10.0695 3.25ZM10.0695 18.9633C10.0082 18.9636 9.94728 18.9546 9.88869 18.9367C9.60952 18.8525 3.05119 16.8008 3.05119 11.0658C3.05119 9.46833 3.03035 8.3125 3.01535 7.46417C2.97702 5.345 2.96869 4.90333 3.51535 4.35667C4.17119 3.70083 9.12452 2 10.0704 2C11.0145 2 15.9687 3.70083 16.6245 4.35667C17.1712 4.90333 17.1629 5.345 17.1245 7.46167C17.1095 8.31 17.0887 9.46583 17.0887 11.0658C17.0887 16.8008 10.5304 18.8525 10.2512 18.9367C10.1926 18.9546 10.1308 18.9636 10.0695 18.9633Z" fill="white"/>
<path fill-rule="evenodd" clip-rule="evenodd" d="M9.4795 12.43C9.31379 12.4299 9.15493 12.3639 9.03783 12.2467L7.46033 10.6675C7.35176 10.5485 7.29327 10.3922 7.29705 10.2311C7.30082 10.07 7.36657 9.91662 7.4806 9.80281C7.59462 9.689 7.74815 9.62354 7.90923 9.62007C8.0703 9.6166 8.22651 9.67538 8.34533 9.78418L9.4795 10.9192L12.2862 8.11251C12.3442 8.05451 12.4131 8.00851 12.489 7.97714C12.5648 7.94577 12.6461 7.92965 12.7281 7.92969C12.8102 7.92973 12.8914 7.94593 12.9672 7.97737C13.043 8.00881 13.1119 8.05487 13.1699 8.11293C13.2279 8.17098 13.2739 8.23989 13.3053 8.31572C13.3367 8.39156 13.3528 8.47282 13.3527 8.55489C13.3527 8.63695 13.3365 8.7182 13.3051 8.79401C13.2736 8.86981 13.2276 8.93868 13.1695 8.99668L9.92117 12.2467C9.86327 12.3048 9.79444 12.351 9.71864 12.3824C9.64284 12.4139 9.56157 12.4301 9.4795 12.43Z" fill="white"/>
</svg>
