<svg width="24" height="24" viewBox="0 0 24 24" fill="none" xmlns="http://www.w3.org/2000/svg">
<path d="M18.75 22.5H6.75C6.15326 22.5 5.58097 22.2629 5.15901 21.841C4.73705 21.419 4.5 20.8467 4.5 20.25V6.75C4.5 6.15326 4.73705 5.58097 5.15901 5.15901C5.58097 4.73705 6.15326 4.5 6.75 4.5H20.25C20.8467 4.5 21.419 4.73705 21.841 5.15901C22.2629 5.58097 22.5 6.15326 22.5 6.75V20.25C22.5 20.4489 22.421 20.6397 22.2803 20.7803C22.1397 20.921 21.9489 21 21.75 21C21.5511 21 21.3603 20.921 21.2197 20.7803C21.079 20.6397 21 20.4489 21 20.25V6.75C21 6.55109 20.921 6.36032 20.7803 6.21967C20.6397 6.07902 20.4489 6 20.25 6H6.75C6.55109 6 6.36032 6.07902 6.21967 6.21967C6.07902 6.36032 6 6.55109 6 6.75V20.25C6 20.4489 6.07902 20.6397 6.21967 20.7803C6.36032 20.921 6.55109 21 6.75 21H18.75C18.9489 21 19.1397 21.079 19.2803 21.2197C19.421 21.3603 19.5 21.5511 19.5 21.75C19.5 21.9489 19.421 22.1397 19.2803 22.2803C19.1397 22.421 18.9489 22.5 18.75 22.5Z" fill="#424242"/>
<path d="M2.25 19.5C2.05109 19.5 1.86032 19.421 1.71967 19.2803C1.57902 19.1397 1.5 18.9489 1.5 18.75V3.75C1.5 3.15326 1.73705 2.58097 2.15901 2.15901C2.58097 1.73705 3.15326 1.5 3.75 1.5H18.75C18.9489 1.5 19.1397 1.57902 19.2803 1.71967C19.421 1.86032 19.5 2.05109 19.5 2.25C19.5 2.44891 19.421 2.63968 19.2803 2.78033C19.1397 2.92098 18.9489 3 18.75 3H3.75C3.55109 3 3.36032 3.07902 3.21967 3.21967C3.07902 3.36032 3 3.55109 3 3.75V18.75C3 18.9489 2.92098 19.1397 2.78033 19.2803C2.63968 19.421 2.44891 19.5 2.25 19.5Z" fill="#424242"/>
<path d="M14.25 12H8.25C8.05109 12 7.86032 11.921 7.71967 11.7803C7.57902 11.6397 7.5 11.4489 7.5 11.25C7.5 11.0511 7.57902 10.8603 7.71967 10.7197C7.86032 10.579 8.05109 10.5 8.25 10.5H14.25C14.4489 10.5 14.6397 10.579 14.7803 10.7197C14.921 10.8603 15 11.0511 15 11.25C15 11.4489 14.921 11.6397 14.7803 11.7803C14.6397 11.921 14.4489 12 14.25 12ZM18.75 15H8.25C8.05109 15 7.86032 14.921 7.71967 14.7803C7.57902 14.6397 7.5 14.4489 7.5 14.25C7.5 14.0511 7.57902 13.8603 7.71967 13.7197C7.86032 13.579 8.05109 13.5 8.25 13.5H18.75C18.9489 13.5 19.1397 13.579 19.2803 13.7197C19.421 13.8603 19.5 14.0511 19.5 14.25C19.5 14.4489 19.421 14.6397 19.2803 14.7803C19.1397 14.921 18.9489 15 18.75 15ZM18.75 18H8.25C8.05109 18 7.86032 17.921 7.71967 17.7803C7.57902 17.6397 7.5 17.4489 7.5 17.25C7.5 17.0511 7.57902 16.8603 7.71967 16.7197C7.86032 16.579 8.05109 16.5 8.25 16.5H18.75C18.9489 16.5 19.1397 16.579 19.2803 16.7197C19.421 16.8603 19.5 17.0511 19.5 17.25C19.5 17.4489 19.421 17.6397 19.2803 17.7803C19.1397 17.921 18.9489 18 18.75 18Z" fill="#424242"/>
</svg>
