<svg width="25" height="24" viewBox="0 0 25 24" fill="none" xmlns="http://www.w3.org/2000/svg">
<path d="M5.24 19.9062H11.6323C11.8312 19.9062 12.0219 19.8272 12.1626 19.6865C12.3032 19.5459 12.3823 19.3551 12.3823 19.1562C12.3823 18.9573 12.3032 18.7665 12.1626 18.6259C12.0219 18.4852 11.8312 18.4062 11.6323 18.4062H5.24C4.77964 18.4068 4.33785 18.2247 4.01163 17.8999C3.6854 17.575 3.50139 17.134 3.5 16.6737V8.69669H18.1663V9.95369C18.1663 10.1526 18.2453 10.3434 18.3859 10.484C18.5266 10.6247 18.7173 10.7037 18.9163 10.7037C19.1152 10.7037 19.3059 10.6247 19.4466 10.484C19.5872 10.3434 19.6663 10.1526 19.6663 9.95369V6.69869C19.6653 5.83969 19.3236 5.01616 18.7162 4.40876C18.1088 3.80136 17.2852 3.45968 16.4263 3.45869H15.6238V2.99219C15.6238 2.79328 15.5447 2.60251 15.4041 2.46186C15.2634 2.32121 15.0727 2.24219 14.8738 2.24219C14.6748 2.24219 14.4841 2.32121 14.3434 2.46186C14.2028 2.60251 14.1238 2.79328 14.1238 2.99219V3.45869H7.54025V2.99219C7.54025 2.79328 7.46124 2.60251 7.32058 2.46186C7.17993 2.32121 6.98917 2.24219 6.79025 2.24219C6.59134 2.24219 6.40057 2.32121 6.25992 2.46186C6.11927 2.60251 6.04025 2.79328 6.04025 2.99219V3.45869H5.24C4.70931 3.45878 4.18676 3.58926 3.71832 3.83865C3.24987 4.08804 2.84988 4.44871 2.5535 4.88894C2.19194 5.42287 1.9991 6.0531 2 6.69794V16.6729C2.00199 17.5309 2.34422 18.3531 2.95162 18.9591C3.55903 19.5651 4.382 19.9054 5.24 19.9054V19.9062ZM18.164 7.19744H3.5V6.69869C3.5006 6.23812 3.68377 5.79658 4.00937 5.47083C4.33497 5.14509 4.77644 4.96173 5.237 4.96094H6.041V5.42894C6.041 5.62785 6.12002 5.81862 6.26067 5.95927C6.40133 6.09992 6.59209 6.17894 6.791 6.17894C6.98991 6.17894 7.18068 6.09992 7.32133 5.95927C7.46199 5.81862 7.541 5.62785 7.541 5.42894V4.96094H14.123V5.42894C14.123 5.62785 14.202 5.81862 14.3427 5.95927C14.4833 6.09992 14.6741 6.17894 14.873 6.17894C15.0719 6.17894 15.2627 6.09992 15.4033 5.95927C15.544 5.81862 15.623 5.62785 15.623 5.42894V4.96094H16.4278C16.8882 4.96153 17.3296 5.14475 17.6551 5.4704C17.9806 5.79604 18.1636 6.23751 18.164 6.69794V7.19744Z" fill="#424242"/>
<path d="M17.7876 11.3438C14.9151 11.3438 12.5781 13.68 12.5781 16.5525C12.5781 19.425 14.9151 21.7627 17.7876 21.7627C20.6601 21.7627 22.9971 19.4258 22.9971 16.5525C22.9971 13.6793 20.6601 11.3438 17.7876 11.3438ZM14.0781 16.5525C14.0793 15.5691 14.4705 14.6264 15.166 13.9311C15.8614 13.2358 16.8042 12.8447 17.7876 12.8438C18.771 12.8449 19.7137 13.236 20.4091 13.9313C21.1044 14.6265 21.4957 15.5692 21.4971 16.5525C21.4961 17.5361 21.105 18.4791 20.4096 19.1747C19.7142 19.8703 18.7712 20.2616 17.7876 20.2627C16.804 20.2616 15.8611 19.8703 15.1657 19.1747C14.4702 18.4791 14.0791 17.5361 14.0781 16.5525Z" fill="#424242"/>
<path d="M19.493 14.8449C19.3524 14.7043 19.1617 14.6253 18.9628 14.6253C18.7639 14.6253 18.5732 14.7043 18.4325 14.8449L17.7868 15.4899L17.1418 14.8449C17.0721 14.7752 16.9895 14.7199 16.8985 14.6822C16.8075 14.6445 16.7099 14.625 16.6114 14.625C16.5129 14.625 16.4154 14.6443 16.3243 14.682C16.2333 14.7197 16.1506 14.7749 16.0809 14.8445C16.0112 14.9142 15.9559 14.9968 15.9182 15.0878C15.8805 15.1788 15.861 15.2764 15.861 15.3749C15.861 15.4734 15.8803 15.571 15.918 15.662C15.9557 15.753 16.0109 15.8357 16.0805 15.9054L16.7255 16.5504L16.0805 17.1962C16.0089 17.2653 15.9518 17.3481 15.9125 17.4396C15.8731 17.5311 15.8525 17.6295 15.8516 17.7291C15.8507 17.8287 15.8697 17.9274 15.9074 18.0196C15.9451 18.1118 16.0008 18.1955 16.0712 18.2659C16.1417 18.3364 16.2254 18.3921 16.3176 18.4298C16.4097 18.4675 16.5085 18.4865 16.6081 18.4856C16.7077 18.4847 16.8061 18.464 16.8976 18.4247C16.9891 18.3854 17.0718 18.3283 17.141 18.2567L17.7868 17.6117L18.4318 18.2567C18.5013 18.3267 18.5839 18.3822 18.675 18.4201C18.7661 18.458 18.8638 18.4776 18.9624 18.4776C19.061 18.4776 19.1587 18.458 19.2498 18.4201C19.3409 18.3822 19.4235 18.3267 19.493 18.2567C19.6336 18.116 19.7126 17.9253 19.7126 17.7264C19.7126 17.5275 19.6336 17.3368 19.493 17.1962L18.8473 16.5512L19.4923 15.9062C19.562 15.8365 19.6173 15.7538 19.6551 15.6627C19.6928 15.5717 19.7122 15.4741 19.7122 15.3755C19.7122 15.277 19.6928 15.1794 19.6551 15.0883C19.6173 14.9973 19.562 14.9146 19.4923 14.8449H19.493Z" fill="#424242"/>
</svg>
