<svg width="59" height="51" viewBox="0 0 59 51" fill="none" xmlns="http://www.w3.org/2000/svg">
<path d="M50.5711 32.1165C50.7486 32.1165 50.5772 32.1298 54.904 31.0682C55.0995 31.0168 55.267 30.8906 55.3702 30.7168C55.4734 30.543 55.504 30.3356 55.4555 30.1394C55.407 29.9432 55.2832 29.7739 55.1109 29.6682C54.9386 29.5625 54.7316 29.5289 54.5347 29.5746L50.3864 30.6004C49.5073 30.8189 49.6694 32.1165 50.5711 32.1165ZM50.174 36.0604C50.1334 36.1529 50.1115 36.2526 50.1094 36.3536C50.1074 36.4546 50.1253 36.555 50.162 36.6491C50.1988 36.7432 50.2537 36.8292 50.3237 36.9021C50.3937 36.975 50.4774 37.0333 50.5699 37.0739L56.6631 39.7409C57.6068 40.1533 58.2018 38.7346 57.2806 38.3315L51.1874 35.6644C51.0949 35.6239 50.9953 35.602 50.8943 35.5999C50.7932 35.5979 50.6928 35.6157 50.5987 35.6525C50.5046 35.6893 50.4186 35.7442 50.3458 35.8142C50.2729 35.8842 50.2145 35.9678 50.174 36.0604ZM14.9435 48.4663L13.7864 45.631C13.7483 45.5375 13.6921 45.4523 13.6211 45.3805C13.55 45.3086 13.4656 45.2515 13.3725 45.2123C13.2793 45.1731 13.1794 45.1526 13.0784 45.152C12.9774 45.1515 12.8772 45.1708 12.7837 45.2089C12.6901 45.247 12.605 45.3032 12.5331 45.3742C12.4613 45.4452 12.4041 45.5297 12.365 45.6228C12.3258 45.7159 12.3053 45.8159 12.3047 45.9169C12.3041 46.0179 12.3234 46.1181 12.3616 46.2116L13.5187 49.0479C13.5958 49.2369 13.7448 49.3874 13.933 49.4665C14.1211 49.5456 14.3329 49.5466 14.5219 49.4695C14.7108 49.3924 14.8614 49.2434 14.9405 49.0552C15.0195 48.8671 15.0206 48.6552 14.9435 48.4663ZM19.1338 48.0026C19.3224 47.9253 19.4725 47.7764 19.5514 47.5885C19.6302 47.4006 19.6313 47.1891 19.5544 47.0004L18.2137 43.7097C18.1764 43.615 18.1207 43.5286 18.0498 43.4555C17.9789 43.3825 17.8941 43.3243 17.8006 43.2842C17.707 43.2441 17.6063 43.223 17.5045 43.2222C17.4027 43.2213 17.3018 43.2406 17.2075 43.279C17.1132 43.3174 17.0275 43.3742 16.9553 43.446C16.8831 43.5178 16.8259 43.6032 16.787 43.6972C16.748 43.7913 16.7281 43.8921 16.7285 43.9939C16.7288 44.0958 16.7493 44.1965 16.7889 44.2903L18.1327 47.581C18.2098 47.7698 18.3586 47.9201 18.5465 47.9992C18.7344 48.0782 18.945 48.0795 19.1338 48.0026Z" fill="#D0D0D0" stroke="#D0D0D0" stroke-width="1.5"/>
<path d="M13.5126 28.1299L18.7369 40.4804C18.889 40.8456 19.1556 41.1516 19.4965 41.3523C19.8375 41.553 20.2343 41.6376 20.6275 41.5934L45.3839 38.9212C45.669 38.8904 45.943 38.7934 46.1838 38.6378C46.4247 38.4822 46.6259 38.2725 46.7712 38.0252C46.9166 37.778 47.0021 37.5002 47.0209 37.2141C47.0397 36.9279 46.9912 36.6414 46.8795 36.3773L36.0605 10.794C35.9487 10.5298 35.7767 10.2955 35.5581 10.1096C35.3396 9.92382 35.0806 9.79173 34.8018 9.72394C34.5231 9.65615 34.2324 9.65454 33.9529 9.71923C33.6734 9.78393 33.413 9.91313 33.1924 10.0965L14.0306 25.9983C13.7251 26.2496 13.5093 26.5932 13.4157 26.9776C13.3221 27.3619 13.3568 27.7663 13.5126 28.1299ZM15.0143 27.1821L34.1751 11.2803C34.211 11.2503 34.2535 11.2292 34.2991 11.2186C34.3447 11.208 34.3922 11.2083 34.4376 11.2194C34.4831 11.2304 34.5254 11.252 34.561 11.2824C34.5966 11.3127 34.6247 11.351 34.6428 11.3941L45.4618 36.9753C45.4804 37.0184 45.4886 37.0652 45.4858 37.1121C45.483 37.1589 45.4691 37.2044 45.4455 37.2449C45.4218 37.2855 45.389 37.3199 45.3496 37.3454C45.3102 37.3709 45.2654 37.3868 45.2187 37.3918L20.4623 40.064C20.3983 40.0711 20.3336 40.0573 20.2781 40.0245C20.2226 39.9918 20.1793 39.9419 20.1546 39.8824L14.9302 27.5308C14.9044 27.4715 14.8986 27.4053 14.9138 27.3424C14.929 27.2794 14.9643 27.2231 15.0143 27.1821ZM12.3134 28.5166L5.47755 31.4073C5.25498 31.5013 5.05311 31.6382 4.8835 31.8102C4.71389 31.9823 4.57985 32.1861 4.48906 32.41C4.39826 32.6339 4.3525 32.8734 4.35437 33.115C4.35624 33.3566 4.40572 33.5955 4.49997 33.8179L8.23795 42.653C8.42861 43.1016 8.78923 43.4563 9.24084 43.6395C9.69245 43.8227 10.1983 43.8195 10.6475 43.6306L17.4824 40.74C17.5755 40.7006 17.6599 40.6433 17.7308 40.5714C17.8018 40.4994 17.8579 40.4142 17.8959 40.3205C17.9339 40.2269 17.9531 40.1267 17.9523 40.0257C17.9516 39.9246 17.931 39.8247 17.8917 39.7316C17.8523 39.6385 17.795 39.5541 17.7231 39.4831C17.6511 39.4122 17.5659 39.3561 17.4723 39.3181C17.3786 39.2801 17.2784 39.2609 17.1774 39.2616C17.0763 39.2624 16.9764 39.283 16.8833 39.3223L10.0485 42.213C9.97515 42.2441 9.89248 42.2448 9.81862 42.215C9.74476 42.1852 9.68576 42.1273 9.65457 42.054L5.91761 33.2178C5.88684 33.1446 5.88628 33.0622 5.91607 32.9886C5.94587 32.915 6.00358 32.8561 6.07661 32.8249L12.9125 29.9343C13.1005 29.8548 13.2492 29.704 13.326 29.5149C13.4027 29.3258 13.4012 29.1139 13.3218 28.9259C13.2423 28.7379 13.0915 28.5892 12.9024 28.5124C12.7133 28.4357 12.5014 28.4372 12.3134 28.5166ZM6.44179 42.5556C6.53488 42.5163 6.6193 42.459 6.69025 42.387C6.76119 42.3151 6.81727 42.2298 6.85527 42.1362C6.89328 42.0426 6.91247 41.9424 6.91175 41.8413C6.91103 41.7403 6.89042 41.6403 6.85108 41.5472C6.81175 41.4542 6.75446 41.3697 6.6825 41.2988C6.61054 41.2278 6.52531 41.1718 6.43167 41.1338C6.33804 41.0958 6.23784 41.0766 6.13679 41.0773C6.03574 41.078 5.93582 41.0986 5.84273 41.138C3.89578 41.9606 1.93037 40.0055 2.72022 38.0616C2.8365 37.7726 3.00899 37.5095 3.22769 37.2877C3.44638 37.0658 3.70694 36.8895 3.99426 36.7691C4.18225 36.6897 4.33098 36.5388 4.40774 36.3497C4.4845 36.1606 4.48299 35.9488 4.40355 35.7608C4.32411 35.5728 4.17324 35.424 3.98414 35.3473C3.79504 35.2705 3.58319 35.272 3.39519 35.3515C2.92147 35.5502 2.49187 35.8409 2.13127 36.2068C1.77066 36.5727 1.48621 37.0065 1.29438 37.4831C-0.00427485 40.6856 3.22594 43.9148 6.44179 42.5556ZM42.8817 17.1377C42.7874 17.1741 42.7012 17.2286 42.628 17.2983C42.5548 17.368 42.496 17.4514 42.4551 17.5438C42.4141 17.6362 42.3917 17.7358 42.3893 17.8368C42.3868 17.9379 42.4042 18.0384 42.4406 18.1327C42.477 18.227 42.5316 18.3132 42.6012 18.3864C42.6709 18.4596 42.7544 18.5184 42.8468 18.5593C43.0334 18.642 43.2452 18.6472 43.4356 18.5738C45.64 17.7214 48.1245 18.8231 48.9749 21.0265C49.8253 23.2298 48.7256 25.7143 46.5232 26.5657C46.3328 26.6392 46.1793 26.7853 46.0966 26.9719C46.0139 27.1585 46.0087 27.3703 46.0821 27.5607C46.1556 27.7512 46.3017 27.9046 46.4883 27.9874C46.6749 28.0701 46.8867 28.0753 47.0772 28.0018C48.5165 27.444 49.6758 26.338 50.3008 24.9265C50.9258 23.515 50.9654 21.9132 50.411 20.4725C49.8533 19.033 48.7474 17.8735 47.3359 17.2483C45.9244 16.6231 44.3225 16.5833 42.8817 17.1377Z" fill="#D0D0D0" stroke="#D0D0D0" stroke-width="1.5"/>
<path d="M44.4032 8.89103C40.0342 9.76303 40.1951 9.70251 40.0343 9.77772C39.2176 10.1598 39.6207 11.4039 40.5096 11.2292L44.7017 10.4003C44.8994 10.3583 45.0726 10.2401 45.1839 10.0714C45.2951 9.90262 45.3355 9.69687 45.2963 9.49858C45.2571 9.30029 45.1414 9.1254 44.9743 9.01171C44.8072 8.89802 44.602 8.85467 44.4032 8.89103Z" fill="#D0D0D0"/>
<path d="M36.7624 7.37091C36.807 7.46154 36.8691 7.54248 36.9451 7.60912C37.021 7.67576 37.1093 7.7268 37.205 7.75931C37.3007 7.79181 37.4018 7.80516 37.5026 7.79858C37.6035 7.792 37.702 7.76562 37.7926 7.72096C37.8833 7.67629 37.9642 7.61421 38.0308 7.53826L42.4196 2.54032C43.0831 1.7848 41.9429 0.751956 41.2629 1.5254L36.8742 6.52335C36.8076 6.59929 36.7565 6.68762 36.724 6.78328C36.6915 6.87895 36.6782 6.98009 36.6847 7.08091C36.6913 7.18174 36.7177 7.28028 36.7624 7.37091Z" fill="#D0D0D0"/>
<path d="M44.4032 8.89103C40.0342 9.76303 40.1951 9.70251 40.0343 9.77772C39.2176 10.1598 39.6207 11.4039 40.5096 11.2292L44.7017 10.4003C44.8994 10.3583 45.0726 10.2401 45.1839 10.0714C45.2951 9.90262 45.3355 9.69687 45.2963 9.49858C45.2571 9.30029 45.1414 9.1254 44.9743 9.01171C44.8072 8.89802 44.602 8.85467 44.4032 8.89103Z" stroke="#D0D0D0" stroke-width="1.5"/>
<path d="M36.7624 7.37091C36.807 7.46154 36.8691 7.54248 36.9451 7.60912C37.021 7.67576 37.1093 7.7268 37.205 7.75931C37.3007 7.79181 37.4018 7.80516 37.5026 7.79858C37.6035 7.792 37.702 7.76562 37.7926 7.72096C37.8833 7.67629 37.9642 7.61421 38.0308 7.53826L42.4196 2.54032C43.0831 1.7848 41.9429 0.751956 41.2629 1.5254L36.8742 6.52335C36.8076 6.59929 36.7565 6.68762 36.724 6.78328C36.6915 6.87895 36.6782 6.98009 36.6847 7.08091C36.6913 7.18174 36.7177 7.28028 36.7624 7.37091Z" stroke="#D0D0D0" stroke-width="1.5"/>
<path d="M22.7999 27.0296L33.1717 18.8427C33.251 18.7801 33.3172 18.7024 33.3666 18.6142C33.4159 18.526 33.4474 18.4289 33.4592 18.3285C33.471 18.2281 33.4629 18.1263 33.4354 18.0291C33.4079 17.9318 33.3615 17.8409 33.2989 17.7615C33.2362 17.6822 33.1586 17.616 33.0703 17.5666C32.9821 17.5173 32.885 17.4858 32.7846 17.474C32.6842 17.4622 32.5825 17.4703 32.4852 17.4978C32.3879 17.5253 32.297 17.5717 32.2177 17.6343L21.8469 25.8222C21.693 25.9506 21.5952 26.134 21.5745 26.3334C21.5537 26.5327 21.6116 26.7324 21.7358 26.8897C21.86 27.0471 22.0407 27.1497 22.2394 27.1758C22.4382 27.202 22.6392 27.1495 22.7999 27.0296Z" fill="#D0D0D0" stroke="#D0D0D0" stroke-width="1.5"/>
</svg>
