<svg width="110" height="110" viewBox="0 0 110 110" fill="none" xmlns="http://www.w3.org/2000/svg">
<mask id="mask0_990_3959" style="mask-type:luminance" maskUnits="userSpaceOnUse" x="0" y="0" width="110" height="110">
<path d="M55.553 109.447C85.6233 109.141 109.752 84.517 109.447 54.4467C109.142 24.3765 84.5172 0.247298 54.447 0.552712C24.3768 0.858126 0.247587 25.4825 0.553001 55.5527C0.858415 85.623 25.4828 109.752 55.553 109.447Z" fill="white"/>
</mask>
<g mask="url(#mask0_990_3959)">
<path d="M-30.4094 17.9482V36.7543V54.3154V55.5604V74.3665V93.1725H148.478V74.3665V55.5604V54.3154V36.7543V17.9482H-30.4094Z" fill="#CE1126"/>
<path d="M148.478 -0.858643H-30.4094V26.1055H148.478V-0.858643Z" fill="#002B7F"/>
<path d="M148.478 83.5071H-30.4094V109.816H148.478V83.5071Z" fill="#002B7F"/>
</g>
<path d="M41.231 49.7555H68.9814V60.4363H41.231V49.7555Z" fill="white"/>
<path d="M69.0143 60.535H41.2312L41.1001 60.4039V49.7231L41.2312 49.592H68.9816L69.1126 49.7231V60.4039L69.0143 60.535ZM41.3622 60.3056H68.8833V49.8542H41.3622V60.3056Z" fill="black"/>
<path d="M68.4575 55.6536H67.5729V59.6835H68.4575V55.6536Z" fill="white"/>
<path d="M68.4572 59.7811H67.5726L67.4415 59.6501V55.6202L67.5726 55.4891H68.4572L68.5882 55.6202V59.6501L68.4572 59.7811ZM67.7036 59.5518H68.3589V55.7513H67.7036V59.5518Z" fill="black"/>
<path d="M68.9814 53.6538H41.231V54.8988H68.9814V53.6538Z" fill="white"/>
<path d="M69.0143 55.0308H41.2312L41.1001 54.8997V53.6547L41.2312 53.5237H68.9816L69.1126 53.6547V54.8997L69.0143 55.0308ZM41.3622 54.7687H68.8833V53.753H41.3622V54.7687Z" fill="black"/>
<path d="M68.9814 51.9833H41.231V53.0645H68.9814V51.9833Z" fill="white"/>
<path d="M69.0143 53.1956H41.2312L41.1001 53.0645V51.9834L41.2312 51.8523H68.9816L69.1126 51.9834V53.0645L69.0143 53.1956ZM41.3622 52.9663H68.8833V52.1144H41.3622V52.9663Z" fill="black"/>
<path d="M68.9814 50.2795H41.231V51.328H68.9814V50.2795Z" fill="white"/>
<path d="M69.0143 51.4595H41.2312L41.1001 51.3284V50.28L41.2312 50.1489H68.9816L69.1126 50.28V51.3284L69.0143 51.4595ZM41.3622 51.2301H68.8833V50.411H41.3622V51.2301Z" fill="black"/>
<path d="M49.422 55.6536H48.5374V59.6835H49.422V55.6536Z" fill="white"/>
<path d="M49.4218 59.7811H48.5372L48.4061 59.6501V55.6202L48.5372 55.4891H49.4218L49.5528 55.6202V59.6501L49.4218 59.7811ZM48.6682 59.5518H49.3235V55.7513H48.6682V59.5518Z" fill="black"/>
<path d="M61.3803 55.6536H60.4957V59.6835H61.3803V55.6536Z" fill="white"/>
<path d="M61.3805 59.7811H60.4959L60.3649 59.6501V55.6202L60.4959 55.4891H61.3805L61.5116 55.6202V59.6501L61.3805 59.7811ZM60.627 59.5518H61.2822V55.7513H60.627V59.5518Z" fill="black"/>
<path d="M42.3449 55.6536H41.4603V59.6835H42.3449V55.6536Z" fill="white"/>
<path d="M42.345 59.7811H41.4604L41.3293 59.6501V55.6202L41.4604 55.4891H42.345L42.4761 55.6202V59.6501L42.345 59.7811ZM41.5587 59.5518H42.214V55.7513H41.5587V59.5518Z" fill="black"/>
<path d="M44.0489 55.6536H43.1643V59.6835H44.0489V55.6536Z" fill="white"/>
<path d="M44.0486 59.7811H43.164L43.033 59.6501V55.6202L43.164 55.4891H44.0486L44.1797 55.6202V59.6501L44.0486 59.7811ZM43.2951 59.5518H43.9503V55.7513H43.2951V59.5518Z" fill="black"/>
<path d="M45.8834 55.6536H44.9988V59.6835H45.8834V55.6536Z" fill="white"/>
<path d="M45.8836 59.7811H44.999L44.8679 59.6501V55.6202L44.999 55.4891H45.8836L46.0146 55.6202V59.6501L45.8836 59.7811ZM45.13 59.5518H45.7853V55.7513H45.13V59.5518Z" fill="black"/>
<path d="M47.7182 55.6536H46.8336V59.6835H47.7182V55.6536Z" fill="white"/>
<path d="M47.7181 59.7811H46.8334L46.7024 59.6501V55.6202L46.8334 55.4891H47.7181L47.8491 55.6202V59.6501L47.7181 59.7811ZM46.9645 59.5518H47.6198V55.7513H46.9645V59.5518Z" fill="black"/>
<path d="M63.0515 55.6536H62.1669V59.6835H63.0515V55.6536Z" fill="white"/>
<path d="M63.0187 59.7811H62.1341L62.0031 59.6501V55.6202L62.1341 55.4891H63.0187L63.1498 55.6202V59.6501L63.0187 59.7811ZM62.2652 59.5518H62.9204V55.7513H62.2652V59.5518Z" fill="black"/>
<path d="M64.8861 55.6536H64.0015V59.6835H64.8861V55.6536Z" fill="white"/>
<path d="M64.8532 59.7811H63.9686L63.8375 59.6501V55.6202L63.9686 55.4891H64.8532L64.9842 55.6202V59.6501L64.8532 59.7811ZM64.0996 59.5518H64.7549V55.7513H64.0996V59.5518Z" fill="black"/>
<path d="M66.6881 55.6536H65.8035V59.6835H66.6881V55.6536Z" fill="white"/>
<path d="M66.6881 59.7811H65.8035L65.6725 59.6501V55.6202L65.8035 55.4891H66.6881L66.8192 55.6202V59.6501L66.6881 59.7811ZM65.9346 59.5518H66.5899V55.7513H65.9346V59.5518Z" fill="black"/>
<path d="M30.3865 60.9938C30.8124 60.7644 31.3038 60.273 31.4677 59.6832H78.5811C78.745 60.2402 79.2364 60.7644 79.6623 60.9938H30.3865Z" fill="white"/>
<path d="M79.6295 61.1245H30.3864L30.3209 60.8951C30.7141 60.6985 31.1728 60.2071 31.3366 59.6829L31.3693 59.5846H78.6466L78.6794 59.6829C78.8432 60.2399 79.3019 60.6985 79.6951 60.8951L79.6295 61.1245ZM30.7796 60.8624H79.2691C78.9415 60.6003 78.6466 60.2399 78.4828 59.8139H31.5332C31.4021 60.2399 31.0745 60.633 30.7796 60.8624Z" fill="black"/>
<path d="M54.4018 33.4718C54.4018 33.4718 54.3691 32.4562 54.9588 32.4562C55.5485 32.4562 55.5158 33.4718 55.5158 33.4718H54.4018Z" fill="white"/>
<path d="M55.6141 33.6034H54.3036V33.5051C54.3036 33.4723 54.2708 32.8498 54.5657 32.5549C54.664 32.4566 54.795 32.3911 54.9588 32.3911C55.1227 32.3911 55.2537 32.4566 55.352 32.5549C55.6469 32.8498 55.6141 33.5051 55.6141 33.5051V33.6034ZM54.5329 33.374H55.3848C55.3848 33.1774 55.3192 32.8498 55.1882 32.686C55.1227 32.6205 55.0571 32.5877 54.9588 32.5877C54.8605 32.5877 54.795 32.6205 54.7295 32.686C54.5657 32.8498 54.5329 33.1774 54.5329 33.374Z" fill="black"/>
<path d="M51.3549 46.8077V45.4645C51.3221 44.7764 50.6668 44.7437 50.6668 44.2522C50.6668 44.2522 50.5685 43.4987 50.7651 43.171C51.0272 44.1539 51.5187 43.9901 51.5187 43.5642C51.5187 43.2038 51.2566 42.8762 50.6996 42.0243C50.5358 41.7622 50.6341 40.8776 50.8962 40.5827C50.9945 41.3363 51.0928 41.6967 51.4204 41.6967C51.617 41.6967 51.7808 41.5656 51.7808 41.2052C51.7808 40.7138 51.4531 40.4845 51.2893 40.0585C51.0928 39.5671 51.2238 39.0429 51.5514 38.748C51.6825 39.5016 51.6497 39.7964 51.9774 39.7964C52.6326 39.5998 51.9774 38.617 51.8463 38.3876C51.6825 38.0927 52.0756 37.5358 52.0756 37.5358C52.2722 38.191 52.3378 38.2566 52.5671 38.191C52.862 38.1255 52.8292 37.6996 52.4688 37.3392C52.2395 37.1098 52.2722 36.815 52.5016 36.5529C52.7309 37.0115 53.0585 36.9788 53.0585 36.7167L52.862 35.6355H57.0884L56.8918 36.6839C56.8263 36.9788 57.2195 37.0443 57.4816 36.5529C57.7109 36.815 57.7437 37.1426 57.5143 37.3392C57.1539 37.6668 57.1212 38.0927 57.4161 38.191C57.6454 38.2566 57.7109 38.191 57.9075 37.5358C57.9075 37.5358 58.2351 37.9289 58.1368 38.3876C58.0058 38.617 57.3178 39.5998 58.0058 39.7964C58.3334 39.7964 58.3007 39.5016 58.4317 38.748C58.7266 39.0429 58.8576 39.5671 58.6938 40.0585C58.53 40.4845 58.2024 40.7466 58.2024 41.2052C58.2024 41.5656 58.3662 41.6967 58.5628 41.6967C58.8904 41.6967 58.9887 41.3363 59.087 40.5827C59.3491 40.8776 59.4474 41.7622 59.2836 42.0243C58.7266 42.8762 58.4645 43.2038 58.4645 43.5642C58.4645 43.9574 58.9559 44.1539 59.218 43.171C59.4146 43.4987 59.3163 44.2522 59.3163 44.2522C59.2836 44.7437 58.6283 44.8092 58.6283 45.4645V46.8077H51.3549Z" fill="white"/>
<path d="M58.661 46.9054H51.2237V45.4311C51.2237 45.1035 51.0599 44.9724 50.8633 44.8086C50.6995 44.6448 50.5357 44.5137 50.5357 44.2188C50.5357 44.1861 50.4374 43.4325 50.6667 43.0721L50.7978 42.8428L50.8633 43.1049C50.9944 43.5963 51.191 43.7602 51.2565 43.7602C51.322 43.7602 51.3875 43.6619 51.3875 43.5636C51.3875 43.3015 51.2237 43.0394 50.8633 42.5152C50.765 42.3841 50.6995 42.2531 50.5685 42.0892C50.3719 41.7616 50.4702 40.8442 50.765 40.5166L50.9289 40.32L50.9616 40.5821C51.0599 41.3357 51.1582 41.5978 51.3875 41.5978C51.4531 41.5978 51.6169 41.5978 51.6169 41.2046C51.6169 40.9425 51.5186 40.7459 51.3875 40.5494C51.2892 40.4183 51.2237 40.2873 51.1582 40.0907C50.9616 39.5665 51.0927 38.9767 51.4531 38.6491L51.6169 38.4853L51.6496 38.6819C51.6824 38.8457 51.6824 38.9767 51.7152 39.075C51.7807 39.5337 51.8135 39.5992 51.9445 39.5992C52.0428 39.5665 52.0756 39.5337 52.1083 39.4354C52.2066 39.1733 51.879 38.6163 51.7479 38.4198L51.7152 38.3542C51.5186 38.0266 51.879 37.4369 51.9445 37.3713L52.0756 37.1748L52.1411 37.4041C52.2721 37.83 52.3377 37.9938 52.436 37.9938C52.4687 37.9938 52.5015 37.9938 52.5343 37.9938C52.5998 37.9938 52.6325 37.9611 52.6325 37.8956C52.6653 37.7645 52.5998 37.5679 52.3704 37.3386C52.1083 37.0765 52.1083 36.6833 52.4032 36.3884L52.5015 36.2574L52.567 36.4212C52.6981 36.6506 52.7964 36.7161 52.8619 36.7161C52.8946 36.7161 52.9274 36.6833 52.9274 36.6505L52.7308 35.4711H57.2194L56.99 36.6505C56.99 36.6833 56.99 36.7161 56.99 36.7161H57.0228C57.1211 36.7161 57.2522 36.6178 57.3504 36.4212L57.416 36.2574L57.5143 36.3884C57.8091 36.6833 57.8091 37.0765 57.547 37.3386C57.3177 37.5352 57.2522 37.7645 57.2849 37.8956C57.2849 37.9611 57.3177 37.9938 57.3832 37.9938C57.416 37.9938 57.4487 37.9938 57.4815 37.9938C57.547 37.9938 57.6125 37.83 57.7764 37.4041L57.8419 37.2075L57.9729 37.3713C57.9729 37.4041 58.3661 37.7973 58.2023 38.3215V38.3542L58.1695 38.4198C58.0385 38.6163 57.7108 39.1405 57.8091 39.4354C57.8419 39.5009 57.9074 39.5665 57.9729 39.5992C58.104 39.5992 58.1368 39.5337 58.2023 39.075C58.235 38.944 58.235 38.8129 58.2678 38.6819L58.3006 38.4853L58.4644 38.6491C58.8248 38.9767 58.9231 39.5665 58.7593 40.0907C58.6937 40.2545 58.5954 40.4183 58.5299 40.5494C58.3989 40.7459 58.3006 40.9425 58.3006 41.2046C58.3006 41.5978 58.4644 41.5978 58.5299 41.5978C58.7265 41.5978 58.8575 41.3357 58.9558 40.5821L58.9886 40.32L59.1524 40.5166C59.4473 40.877 59.5456 41.7944 59.349 42.0892C59.2507 42.2531 59.1524 42.3841 59.0541 42.5152C58.6937 43.0394 58.5299 43.3015 58.5299 43.5636C58.5299 43.6946 58.5954 43.7602 58.661 43.7602C58.7593 43.7602 58.9231 43.6291 59.0541 43.1049L59.1197 42.8428L59.2507 43.0721C59.4473 43.4325 59.3818 44.1861 59.3818 44.2188C59.3818 44.481 59.2179 44.6448 59.0541 44.8086C58.8903 44.9724 58.7265 45.1362 58.6937 45.4311L58.661 46.9054ZM51.4858 46.6761H58.4316V45.4311C58.4316 45.0052 58.661 44.8086 58.8575 44.6448C58.9886 44.5137 59.1197 44.4154 59.1197 44.2188C59.1197 44.0878 59.1524 43.7929 59.1197 43.5308C58.9231 43.924 58.7265 43.9895 58.6282 43.9895C58.4316 43.9895 58.2678 43.7929 58.2678 43.5308C58.2678 43.2032 58.4644 42.9083 58.8248 42.3513C58.9231 42.2203 58.9886 42.0892 59.1197 41.9254C59.2179 41.7616 59.2179 41.3029 59.0869 40.9425C58.9886 41.434 58.8575 41.7944 58.4972 41.7944C58.3661 41.7944 58.0385 41.7288 58.0385 41.1719C58.0385 40.8442 58.1695 40.6149 58.3006 40.3855C58.3661 40.2545 58.4644 40.1234 58.5299 39.9596C58.661 39.5992 58.6282 39.2388 58.4644 38.9767C58.4644 39.0095 58.4644 39.075 58.4316 39.1078C58.3661 39.5665 58.3333 39.8613 57.9729 39.8613H57.9402C57.7764 39.7958 57.6453 39.6975 57.6125 39.5665C57.4815 39.1733 57.8091 38.6163 57.9729 38.3542L58.0057 38.2887C58.0712 38.0921 58.0057 37.8955 57.9402 37.7645C57.8091 38.1249 57.7108 38.2887 57.5143 38.2887C57.4487 38.2887 57.416 38.2887 57.3832 38.2559C57.2521 38.2232 57.1539 38.1249 57.1211 37.9938C57.0556 37.7645 57.1866 37.4696 57.4487 37.2075C57.5798 37.0765 57.6125 36.8799 57.5143 36.7161C57.3832 36.8799 57.2194 36.9782 57.0883 36.9782C56.99 36.9782 56.9245 36.9454 56.859 36.8799C56.7935 36.8144 56.7935 36.7161 56.7935 36.6178L56.99 35.7332H53.0585L53.2223 36.6833V36.7161C53.1895 36.9126 53.0912 37.0109 52.9274 37.0109C52.7964 37.0109 52.6325 36.9127 52.5343 36.7488C52.436 36.9454 52.436 37.1092 52.5998 37.2403C52.8619 37.4696 52.9602 37.7973 52.8946 38.0266C52.8619 38.1576 52.7636 38.2559 52.6325 38.2887C52.5998 38.2887 52.5342 38.3215 52.5015 38.3215C52.3049 38.3215 52.2066 38.1577 52.0756 37.83C51.9773 37.9938 51.9117 38.2232 51.9773 38.3215L52.01 38.387C52.1739 38.6491 52.5343 39.2061 52.3704 39.5992C52.3049 39.7303 52.2066 39.8286 52.0428 39.8941H52.01C51.6496 39.8941 51.6169 39.632 51.5514 39.1406C51.5514 39.1078 51.5514 39.0423 51.5186 39.0095C51.3548 39.2716 51.322 39.6648 51.4531 39.9924C51.5186 40.1562 51.5841 40.2873 51.6824 40.4183C51.8135 40.6476 51.9445 40.877 51.9445 41.2046C51.9445 41.7616 51.6169 41.8271 51.4858 41.8271C51.1254 41.8271 50.9944 41.4995 50.8961 40.9753C50.7978 41.3357 50.765 41.7944 50.8633 41.9582C50.9616 42.122 51.0599 42.253 51.1582 42.3841C51.5514 42.9411 51.7152 43.236 51.7152 43.5636C51.7152 43.8257 51.5514 44.0223 51.3548 44.0223C51.2565 44.0223 51.0271 43.9567 50.8633 43.5636C50.8306 43.8257 50.8306 44.1205 50.8633 44.2516C50.8633 44.4482 50.9944 44.5465 51.1254 44.6775C51.322 44.8413 51.5514 45.0707 51.5514 45.4638V46.6761H51.4858Z" fill="black"/>
<path d="M53.1239 35.569L53.0256 34.8154H56.8917L56.7934 35.569H53.1239Z" fill="white"/>
<path d="M56.8918 35.6675H53.0257L52.8947 34.6846H57.0228L56.8918 35.6675ZM53.2223 35.4381H56.6952L56.7607 34.9139H53.1568L53.2223 35.4381Z" fill="black"/>
<path d="M53.3864 34.7834L53.2881 34.1609H56.5972L56.4989 34.7834H53.3864Z" fill="white"/>
<path d="M56.6298 34.9141H53.288L53.1897 34.0623H56.7609L56.6298 34.9141ZM53.4846 34.652H56.4333L56.4988 34.2588H53.4518L53.4846 34.652Z" fill="black"/>
<path d="M53.9104 34.1281L53.8448 33.5056H56.04L55.9745 34.1281H53.9104Z" fill="white"/>
<path d="M56.1055 34.2588H53.8121L53.7466 33.407H56.2038L56.1055 34.2588ZM54.0087 34.0295H55.909L55.9417 33.6363H53.9759L54.0087 34.0295Z" fill="black"/>
<path d="M61.9702 60.9936C61.4787 60.797 60.7579 60.2728 60.7579 59.7486V53.8185L61.4132 52.9994H48.5373L49.1598 53.8185V59.7486C49.1598 60.2728 48.6683 60.797 48.1769 60.9936H61.9702Z" fill="white"/>
<path d="M61.9702 61.1249H48.1441L48.1113 60.8956C48.5372 60.7318 49.0287 60.2403 49.0287 59.7816V53.8843L48.3079 52.9014H61.6753L60.9217 53.8843V59.7816C60.9217 60.2403 61.577 60.7318 62.0685 60.8956L61.9702 61.1249ZM48.6028 60.8628H61.4787C61.0528 60.6007 60.6269 60.1748 60.6269 59.7489V53.786L61.1511 53.1307H48.7338L49.2253 53.786V59.7489C49.258 60.1748 48.9632 60.6007 48.6028 60.8628Z" fill="black"/>
<path d="M51.6828 55.6536H50.7982V59.6835H51.6828V55.6536Z" fill="white"/>
<path d="M51.6827 59.7811H50.798L50.667 59.6501V55.6202L50.798 55.4891H51.6827L51.8137 55.6202V59.6501L51.6827 59.7811ZM50.9291 59.5518H51.5844V55.7513H50.9291V59.5518Z" fill="black"/>
<path d="M59.0869 55.6536H58.2023V59.6835H59.0869V55.6536Z" fill="white"/>
<path d="M59.0871 59.7811H58.2025L58.0714 59.6501V55.6202L58.2025 55.4891H59.0871L59.2181 55.6202V59.6501L59.0871 59.7811ZM58.3335 59.5518H58.9888V55.7513H58.3335V59.5518Z" fill="black"/>
<path d="M48.275 46.2502V49.8214V51.5251V52.9995H61.4458V51.5579L61.4786 46.2502C60.9544 46.4468 60.8561 46.9383 60.8561 46.9383V49.8214H48.9631V46.9383C48.9631 46.971 48.832 46.4796 48.275 46.2502Z" fill="white"/>
<path d="M61.5769 53.1305H48.1768V46.0864L48.3406 46.1519C48.9303 46.3813 49.0614 46.9055 49.0941 46.9383V46.971V49.7231H60.7578V46.971C60.7578 46.9383 60.8889 46.3813 61.4786 46.1519L61.6424 46.0864L61.5769 53.1305ZM48.4061 52.9012H61.3476V51.5579L61.3803 46.4468C61.0527 46.6434 60.9872 46.971 60.9872 46.971V49.9525H48.8648V46.971C48.832 46.9055 48.7337 46.6106 48.4389 46.4468V52.9012H48.4061Z" fill="black"/>
<path d="M59.6769 60.9933C59.2509 60.7968 58.3008 60.2725 58.3008 59.7483V53.0974C58.3991 52.737 58.8905 52.5077 59.2182 52.2783H50.4704C50.8963 52.5077 51.355 52.6715 51.5188 53.0974V59.7483C51.5188 60.2725 50.7653 60.7968 50.3394 60.9933H59.6769Z" fill="white"/>
<path d="M59.6769 61.1243H50.3721L50.3394 60.8949C50.798 60.6984 51.4533 60.2069 51.4533 59.781V53.1628C51.3223 52.868 50.9946 52.7041 50.6342 52.5076C50.5687 52.4748 50.5032 52.442 50.4704 52.4093L50.5359 52.1799H59.6441L59.3492 52.3765C59.2837 52.442 59.1854 52.4748 59.0871 52.5403C58.825 52.7041 58.5302 52.868 58.4646 53.1301V59.7482C58.4646 60.1741 59.3165 60.6656 59.7752 60.8622L59.6769 61.1243ZM50.798 60.8622H59.1854C58.7595 60.6328 58.1698 60.2069 58.1698 59.7482V53.0973C58.2353 52.8024 58.5302 52.6059 58.7923 52.4093H50.9291C51.224 52.5731 51.4861 52.7697 51.6171 53.0645V53.0973V59.7482C51.6499 60.1741 51.224 60.6001 50.798 60.8622Z" fill="black"/>
<path d="M60.8559 52.3772V47.5938H59.6437V47.1351H50.1751V47.5938H48.9629V52.3772H60.8559Z" fill="white"/>
<path d="M60.9544 52.4754H48.832V47.4626H50.0443V47.0039H59.7422V47.4626H60.9544V52.4754ZM49.0941 52.246H60.7251V47.6919H59.5128V47.2333H50.2736V47.6919H49.0614L49.0941 52.246Z" fill="black"/>
<path d="M57.7764 60.9924C57.3504 60.7958 56.7279 60.2716 56.7279 59.7474V54.0794L57.0883 53.5552H52.7636L53.124 54.0794V59.7474C53.124 60.2716 52.5015 60.7958 52.0756 60.9924H57.7764Z" fill="white"/>
<path d="M52.1083 61.1241L52.0756 60.8948C52.4687 60.6982 53.0585 60.2067 53.0585 59.748V54.1128L52.5998 53.4575H57.3504L56.8918 54.1128V59.748C56.8918 60.2067 57.4487 60.6982 57.8746 60.862L57.8419 61.0913L52.1083 61.1241ZM52.9929 53.6868L53.2223 54.0473V59.748C53.2223 60.174 52.8619 60.5999 52.5015 60.862H57.3504C56.99 60.5999 56.6296 60.174 56.6296 59.748V54.0473L56.859 53.6868H52.9929Z" fill="black"/>
<path d="M53.8448 53.5881H56.04V60.9926H53.8448V53.5881Z" fill="white"/>
<path d="M56.1711 61.1241H53.7466V53.4575H56.1711V61.1241ZM53.9759 60.862H55.909V53.6868H53.9759V60.862Z" fill="black"/>
<path d="M57.1868 51.9508C57.1868 51.4594 58.5956 51.4266 59.3491 51.0334H50.5686C51.2894 51.4594 52.6982 51.4921 52.6982 51.9508L52.9931 52.901L56.6298 53.032L57.1868 51.9508Z" fill="white"/>
<path d="M56.5971 53.1633L52.9604 53.0322L52.8621 52.9339L52.5673 51.951C52.5673 51.7544 52.0758 51.6234 51.6171 51.5251C51.224 51.4268 50.8308 51.3285 50.5032 51.1319L50.5687 50.9026H59.3492L59.4148 51.1319C59.0871 51.2958 58.694 51.4268 58.3008 51.5251C57.8421 51.6234 57.3179 51.7544 57.3179 51.9838V52.0493L56.7609 53.1305L56.5971 53.1633ZM53.0587 52.7701L56.5316 52.9012L57.0558 51.8855C57.0886 51.5251 57.6128 51.394 58.2025 51.263C58.3663 51.2302 58.5629 51.1647 58.7267 51.1319H51.1584C51.3223 51.1975 51.4861 51.2302 51.6826 51.263C52.2724 51.4268 52.7966 51.5579 52.7966 51.9183L53.0587 52.7701Z" fill="black"/>
<path d="M58.8903 46.8076C58.8903 45.6282 58.9559 45.1367 59.3163 45.1367V48.9372C58.4316 49.2649 57.7764 50.4116 57.7764 50.4116H52.1084C52.1084 50.4116 51.4531 49.2649 50.5685 48.9372V45.1367C51.0272 45.1367 51.0272 45.6282 51.0272 46.8076H58.8903Z" fill="white"/>
<path d="M57.7764 50.5423H52.0428L52.0101 50.4768C52.0101 50.4768 51.3876 49.3628 50.5357 49.068L50.4702 49.0352V45.0381H50.6013C51.1582 45.0381 51.1582 45.5623 51.1582 46.709H58.7921C58.7921 45.6606 58.8248 45.0381 59.3163 45.0381H59.4473V49.0352L59.3818 49.068C58.53 49.3628 57.9075 50.4768 57.9075 50.4768L57.8747 50.5423H57.7764ZM52.1739 50.2802H57.7109C57.8419 50.0509 58.4317 49.1662 59.218 48.8386V45.3002C59.0869 45.4312 59.0214 45.8244 59.0214 46.8073V46.9383H50.8961V46.8073C50.8961 45.7916 50.8961 45.3985 50.6668 45.3002V48.8714C51.4531 49.199 52.0428 50.0509 52.1739 50.2802Z" fill="black"/>
<path d="M59.3162 46.3157C59.3162 44.9397 60.4956 44.7759 60.4956 44.7759V45.9881C60.0369 45.9553 59.8404 46.3813 59.8404 46.971C59.8404 47.5607 60.2008 47.5935 60.2008 47.5935V51.0664H59.3162V46.3157Z" fill="white"/>
<path d="M60.2991 51.1647H59.1852V46.283C59.1852 44.8414 60.4629 44.6448 60.4629 44.6448L60.594 44.6121V46.0864H60.4302C59.9715 46.0864 59.906 46.6434 59.906 46.971C59.906 47.4297 60.1353 47.4624 60.1681 47.4624H60.2664V47.5607V51.1647H60.2991ZM59.4473 50.9354H60.1026V47.6918C59.9715 47.6263 59.7422 47.4625 59.7422 47.0038C59.7422 46.3485 60.0043 45.9553 60.3974 45.8898V44.9397C60.1026 45.038 59.4473 45.3328 59.4473 46.3157V50.9354Z" fill="black"/>
<path d="M50.5685 46.3163C50.5685 44.9403 49.389 44.7765 49.389 44.7765V45.9887C49.8477 45.9559 50.0443 46.3819 50.0443 46.9716C50.0443 47.5613 49.6839 47.5941 49.6839 47.5941V51.067H50.5685V46.3163Z" fill="white"/>
<path d="M50.6996 51.1648H49.5857V47.4625H49.684C49.684 47.4625 49.9461 47.4298 49.9461 46.9711C49.9461 46.6434 49.8806 46.0865 49.4219 46.0865H49.2581V44.6449L49.3891 44.6777C49.3891 44.6777 50.6669 44.8742 50.6669 46.3158V51.1648H50.6996ZM49.815 50.9354H50.4703V46.2831C50.4703 45.2674 49.815 44.9725 49.5202 44.907V45.8571C49.9461 45.8899 50.1754 46.3158 50.1754 46.9711C50.1754 47.4625 49.9461 47.6264 49.815 47.6591V50.9354Z" fill="black"/>
<path d="M57.0883 36.7488H52.8947V36.9454H57.0883V36.7488Z" fill="black"/>
<path d="M57.5143 38.0593H52.4032V38.2559H57.5143V38.0593Z" fill="black"/>
<path d="M57.9729 39.6321H51.9117V39.8287H57.9729V39.6321Z" fill="black"/>
<path d="M58.5954 41.5979H51.3875V41.7945H58.5954V41.5979Z" fill="black"/>
<path d="M58.6609 43.793H51.2236V43.9895H58.6609V43.793Z" fill="black"/>
<path d="M60.8233 50.9678H48.963V51.1971H60.8233V50.9678Z" fill="black"/>
<path d="M57.2521 52.8023H52.6324V50.9348H57.2521V52.8023ZM52.8618 52.573H57.0227V51.1969H52.8618V52.573Z" fill="black"/>
<path d="M52.2067 47.4946C52.9275 48.3792 52.8619 49.8536 52.8619 50.7382H57.0884C57.0884 49.8536 57.0229 48.3792 57.7436 47.4946H52.2067Z" fill="white"/>
<path d="M57.1867 50.8691H52.7309V50.5743C52.7309 49.6896 52.7637 48.3791 52.1084 47.5928L51.9446 47.3962H57.973L57.8092 47.5928C57.1539 48.3791 57.1539 49.7224 57.1867 50.5743V50.8691ZM52.9602 50.607H56.9574V50.5743C56.9574 49.7224 56.9246 48.4774 57.4816 47.6256H52.4033C52.9602 48.4774 52.9602 49.7224 52.9275 50.5743L52.9602 50.607Z" fill="black"/>
<path d="M54.5656 37.4681L53.9758 37.1732V36.3214C54.2052 36.3869 54.4673 36.4197 54.5 36.8128C54.5983 36.2886 54.7294 36.2886 54.9587 36.092C55.1881 36.2886 55.3519 36.2886 55.4174 36.8128C55.4502 36.4197 55.7123 36.4197 55.9416 36.3214V37.1732L55.3519 37.4681H54.5656Z" fill="white"/>
<path d="M55.4173 37.5669H54.5327L53.8774 37.2065V36.1253L54.1068 36.1909C54.2378 36.2236 54.4017 36.2564 54.4999 36.3874C54.5655 36.2236 54.6638 36.1581 54.7948 36.0598C54.8276 36.027 54.8931 35.9943 54.9259 35.9615L54.9914 35.896L55.0569 35.9615C55.0897 35.9943 55.1552 36.027 55.188 36.0598C55.319 36.1581 55.3846 36.2236 55.4828 36.3874C55.5811 36.2564 55.7449 36.2236 55.876 36.1909L56.1053 36.1253V37.2065L55.4173 37.5669ZM54.5982 37.3376H55.3846L55.876 37.0755V36.453C55.6794 36.5185 55.5811 36.5513 55.5811 36.7806H55.3518C55.2863 36.4202 55.2207 36.3547 55.0897 36.2564C55.0569 36.2236 55.0569 36.2236 55.0242 36.1909C54.9914 36.2236 54.9586 36.2236 54.9586 36.2564C54.8276 36.3547 54.7293 36.4202 54.6965 36.7806H54.4672C54.4672 36.5513 54.3689 36.5185 54.1723 36.453V37.0755L54.5982 37.3376Z" fill="black"/>
<path d="M54.5329 38.877L53.5828 38.2218V37.4354C53.9104 37.501 54.3036 37.5337 54.3363 37.9596C54.4674 37.3699 54.664 37.075 54.9916 36.8457C55.3192 37.075 55.5486 37.3699 55.6468 37.9596C55.6796 37.5337 56.0728 37.501 56.4004 37.4354V38.2218L55.4503 38.877H54.5329Z" fill="white"/>
<path d="M55.4831 38.9758H54.5002L53.4518 38.255V37.2721L53.7139 37.3376C53.9105 37.3704 54.1398 37.4359 54.3036 37.5997C54.4347 37.2065 54.6313 36.9444 54.9261 36.7479L54.9917 36.7151L55.0572 36.7479C55.3521 36.9444 55.5486 37.2065 55.6797 37.5997C55.8435 37.4359 56.0728 37.4031 56.2694 37.3376L56.5315 37.2721V38.255L55.4831 38.9758ZM54.5657 38.7464H55.3848L56.2694 38.1239V37.5342C55.9746 37.5997 55.778 37.6652 55.7452 37.9273H55.5159C55.4176 37.4359 55.2538 37.141 54.9589 36.9117C54.664 37.141 54.5002 37.4359 54.4019 37.9273H54.1726C54.1398 37.6652 53.976 37.5997 53.6484 37.5342V38.1239L54.5657 38.7464Z" fill="black"/>
<path d="M54.4673 41.0392L53.3534 40.0563V38.9096C53.7466 39.0407 54.1725 39.0735 54.2052 39.696C54.3363 38.8114 54.5984 38.3854 54.9588 38.025C55.3519 38.3527 55.5813 38.8114 55.7123 39.696C55.7451 39.0735 56.2038 39.0407 56.5642 38.9096V40.0563L55.4502 41.0392H54.4673Z" fill="white"/>
<path d="M55.5486 41.1709H54.4346L53.2551 40.1225V38.7464L53.4189 38.7792C53.4517 38.7792 53.5172 38.812 53.55 38.812C53.7793 38.8775 54.0742 38.943 54.238 39.2051C54.3691 38.6154 54.5984 38.255 54.9588 37.9273L55.0243 37.8618L55.0899 37.9273C55.4503 38.255 55.6468 38.6154 55.8107 39.2051C55.9745 38.9758 56.2693 38.8775 56.4987 38.812C56.5314 38.812 56.597 38.7792 56.6297 38.7792L56.7936 38.7464V40.1225L55.5486 41.1709ZM54.5001 40.9416H55.4503L56.4987 40.0242V39.0741C56.171 39.1723 55.9089 39.2379 55.8762 39.6966H55.6468C55.5486 38.9758 55.352 38.5171 54.9916 38.1894C54.6639 38.5171 54.4674 38.9758 54.3363 39.6966H54.107C54.0742 39.2379 53.8121 39.1723 53.4845 39.0741V40.0242L54.5001 40.9416Z" fill="black"/>
<path d="M56.4986 42.3503L55.4829 43.7264H54.3362L53.3206 42.3503H56.4986Z" fill="white"/>
<path d="M55.5812 43.8249H54.3362L53.1567 42.2195H56.7607L55.5812 43.8249ZM54.4345 43.5955H55.4502L56.2692 42.4488H53.5827L54.4345 43.5955Z" fill="black"/>
<path d="M52.7961 44.677C53.2876 44.9391 53.4842 45.4961 53.5497 46.5118H56.3673C56.4329 45.4961 56.5967 44.9391 57.1209 44.677H52.7961Z" fill="white"/>
<path d="M56.4657 46.6099H53.4187V46.5116C53.3532 45.4631 53.1894 45.0045 52.7307 44.7751L52.7962 44.5458H57.0882L57.1537 44.7751C56.7278 45.0045 56.5312 45.4959 56.4657 46.5116V46.6099ZM53.6481 46.3805H56.2364C56.2691 45.6925 56.4002 45.1355 56.7278 44.7751H53.1239C53.4843 45.1355 53.6153 45.6925 53.6481 46.3805Z" fill="black"/>
<path d="M57.1214 42.3508V40.9748C56.6299 41.1058 56.335 41.4007 56.204 41.7611C56.204 41.3024 55.5815 40.2212 54.9262 39.697C54.2709 40.2868 53.6484 41.2697 53.6484 41.7611C53.5502 41.4007 53.1898 41.1058 52.7311 40.9748V42.3508H57.1214Z" fill="white"/>
<path d="M52.7637 42.4489L52.6327 42.3178V40.9418L52.7965 40.8435C53.1569 40.9418 53.4518 41.1383 53.6156 41.4004C53.8122 40.8435 54.3364 40.0899 54.8606 39.6312H55.0244C55.5814 40.0899 56.1056 40.8762 56.2694 41.4332C56.466 41.1711 56.7281 40.9745 57.1213 40.8762L57.2851 40.9745V42.3506L57.154 42.4816L52.7637 42.4489ZM52.862 41.1056V42.2195H57.023V41.1056C56.6953 41.2366 56.4332 41.466 56.3349 41.7936L56.1056 41.7608C56.1056 41.3349 55.5486 40.3848 54.9589 39.8606C54.3364 40.4503 53.7794 41.3349 53.8122 41.7608L53.5828 41.7936C53.4518 41.4987 53.2224 41.2366 52.862 41.1056Z" fill="black"/>
<path d="M57.3504 44.6771V43.3011C56.8262 43.4321 56.4986 43.727 56.3348 44.0874C56.3348 43.6287 55.6795 42.5475 54.9259 42.0233C54.2051 42.6131 53.5171 43.5959 53.5171 44.0874C53.3861 43.727 53.0257 43.4321 52.5015 43.3011V44.6771H57.3504Z" fill="white"/>
<path d="M57.3503 44.7751H52.5341L52.4031 44.644V43.268L52.5341 43.1697C52.9273 43.268 53.2549 43.4646 53.4515 43.7267C53.6481 43.1369 54.2378 42.3834 54.8276 41.9247H54.9586C55.5811 42.3834 56.1381 43.2024 56.3347 43.7267C56.5312 43.4646 56.8589 43.268 57.252 43.1369L57.3831 43.2352V44.6113L57.3503 44.7751ZM52.6652 44.5457H57.252V43.4318C56.8589 43.5628 56.5968 43.7922 56.4657 44.1198L56.2364 44.087C56.2364 43.6611 55.6139 42.711 54.9586 42.1868C54.2706 42.7765 53.6808 43.6611 53.6808 44.087L53.4515 44.1198C53.3532 43.825 53.0583 43.5628 52.6652 43.4318V44.5457Z" fill="black"/>
<path d="M57.9403 47.5273V45.922C57.2851 46.0858 56.8919 46.5772 56.6953 46.8393C56.6953 45.9547 55.7124 44.6442 54.9589 44.2183C54.1726 44.6769 53.2224 46.0202 53.2224 46.8393C53.0258 46.5772 52.5999 46.0858 51.9774 45.922V47.5273H57.9403Z" fill="white"/>
<path d="M57.9401 47.6255H51.9772L51.8462 47.4945V45.8891L51.9772 45.7908C52.5015 45.9218 52.8618 46.2495 53.124 46.5443C53.2878 45.6925 54.1724 44.513 54.8932 44.1199H55.0242C55.745 44.513 56.5969 45.6597 56.7934 46.5443C57.1211 46.1512 57.5142 45.9218 57.9401 45.7908L58.0712 45.8891V47.4945L57.9401 47.6255ZM52.0755 47.3962H57.8091V46.0529C57.4159 46.1839 57.0883 46.4788 56.7607 46.9047L56.5641 46.8392C56.5641 46.0529 55.6795 44.8079 54.9587 44.3492C54.2379 44.8079 53.3533 46.0857 53.3533 46.8392L53.1567 46.9047C52.9601 46.6099 52.5997 46.2495 52.1083 46.0529V47.3962H52.0755Z" fill="black"/>
<path d="M57.5798 51.0656V49.4274C57.0228 49.6568 56.8262 50.2138 56.6624 50.5742C56.7279 48.9032 55.7123 47.1013 54.9587 46.6426C54.1724 47.1013 53.1567 48.936 53.255 50.5742C53.0584 50.2138 52.8946 49.6568 52.3376 49.4274V51.0656H57.5798Z" fill="white"/>
<path d="M57.5798 51.1968H52.3049L52.1738 51.0657V49.4275L52.3376 49.3292C52.7308 49.4931 52.9601 49.7879 53.0912 50.0828C53.1895 48.5102 54.1724 46.9703 54.8604 46.5771H54.9915C55.6795 47.0031 56.6296 48.5102 56.7607 50.0828C56.9245 49.7879 57.1211 49.4931 57.547 49.3292L57.7108 49.4275V51.0657L57.5798 51.1968ZM52.4359 50.9674H57.4815V49.6241C57.1538 49.8207 56.99 50.1811 56.859 50.476C56.8262 50.5415 56.7934 50.607 56.7934 50.6398L56.5641 50.5742C56.6296 48.9688 55.6795 47.2652 54.9587 46.7737C54.2379 47.2652 53.2878 49.0016 53.3533 50.5415L53.124 50.607C53.0912 50.5415 53.0584 50.476 53.0257 50.4104C52.8946 50.1156 52.7308 49.7879 52.4032 49.5913V50.9674H52.4359Z" fill="black"/>
<path d="M57.1865 53.5881V51.9499C56.5968 52.081 56.564 52.3103 56.3674 52.6707C56.433 51.655 55.7449 50.5411 54.9586 50.0824C54.1723 50.5411 53.4843 51.6878 53.5498 52.6707C53.3532 52.3103 53.3205 52.081 52.7307 51.9499V53.5881H57.1865Z" fill="white"/>
<path d="M57.2848 53.6867H52.5669V51.7865L52.698 51.8192C53.0911 51.9175 53.2877 52.0486 53.386 52.2124C53.517 51.2622 54.1723 50.3449 54.8276 49.9517L54.8931 49.9189L54.9586 49.9517C55.6139 50.3449 56.3019 51.2622 56.4002 52.2124C56.5312 52.0486 56.6951 51.9175 57.0882 51.8192L57.2193 51.7865V53.6867H57.2848ZM52.829 53.4574H57.0555V52.0813C56.6951 52.1796 56.6295 52.3434 56.4985 52.5728C56.4657 52.6055 56.4657 52.6711 56.433 52.7038L56.2036 52.6383C56.2691 51.6882 55.6139 50.6398 54.9258 50.1811C54.2378 50.6398 53.5826 51.6882 53.6481 52.6383L53.4187 52.7038C53.386 52.6383 53.386 52.6055 53.3532 52.5728C53.2222 52.3107 53.1566 52.1796 52.829 52.0813V53.4574Z" fill="black"/>
<path d="M31.4676 59.6844V54.7043C31.3038 54.0818 30.7796 53.4921 30.3536 53.3938V49.0035L31.271 49.495L32.3194 54.0818V59.6844H31.4676Z" fill="white"/>
<path d="M31.3364 59.8152V54.7369C31.1725 54.1472 30.6811 53.6229 30.3207 53.5247L30.2224 53.4919V48.8068L31.3691 49.4293L32.4175 54.0816V59.8152H31.3364ZM30.4518 53.3281C30.8777 53.4919 31.4019 54.0489 31.5657 54.7041V54.7369V59.6186H32.1882V54.1472L31.1725 49.6258L30.4845 49.2654V53.3281H30.4518Z" fill="black"/>
<path d="M31.4676 59.7175V54.7048C31.3038 54.0823 30.7796 53.4925 30.3536 53.3942V48.7091C30.9761 48.7091 31.271 49.4954 31.271 49.4954L32.3194 54.0823V59.652L31.4676 59.7175Z" fill="white"/>
<path d="M31.3364 59.8481V54.737C31.1725 54.1473 30.6811 53.623 30.3207 53.5247L30.2224 53.492V48.5775H30.3535C31.0415 48.5775 31.3691 49.4294 31.3691 49.4621L32.4175 54.0817V59.7825L31.3364 59.8481ZM30.4518 53.3282C30.8777 53.492 31.4019 54.049 31.5657 54.7042V54.737V59.6187L32.1882 59.5859V54.1145L31.1398 49.5277C31.1398 49.5277 30.9104 48.9379 30.4518 48.8396V53.3282Z" fill="black"/>
<path d="M30.8121 60.9945C31.2381 60.7979 31.8606 60.2737 31.8606 59.7495V53.5244L31.5657 53.0002H42.181L41.755 53.5244V59.7495C41.755 60.2737 42.181 60.7979 42.6069 60.9945H30.8121Z" fill="white"/>
<path d="M42.6068 61.1252H30.8121L30.7793 60.8959C31.1725 60.6993 31.7622 60.2079 31.7622 59.782V53.5897L31.4018 52.9344H42.4758L41.9188 53.6225V59.8147C41.9188 60.3062 42.3119 60.7649 42.7051 60.9287L42.6068 61.1252ZM31.238 60.8631H42.2137C41.886 60.601 41.6567 60.1751 41.6567 59.7492V53.4914L41.9515 53.131H31.7622L31.9588 53.4914V59.7492C31.9588 60.1751 31.5984 60.601 31.238 60.8631Z" fill="black"/>
<path d="M40.4446 60.9945C40.0187 60.7979 39.3962 60.2737 39.3962 59.7495V53.8193L40.2808 53.0002H33.0729L33.9575 53.8193V59.7495C33.9575 60.2737 33.335 60.7979 32.9091 60.9945H40.4446Z" fill="white"/>
<path d="M40.4445 61.1252H32.909L32.8762 60.8959C33.2694 60.6993 33.8591 60.2079 33.8591 59.782V53.9173L32.8107 52.9344H40.6411L39.5927 53.9173V59.782C39.5927 60.2406 40.1496 60.7321 40.5755 60.8959L40.4445 61.1252ZM33.3676 60.8631H40.0513C39.6909 60.601 39.3305 60.1751 39.3305 59.7492V53.7863L40.0186 53.131H33.4004L34.0884 53.7863V59.7492C34.0884 60.1751 33.728 60.601 33.3676 60.8631Z" fill="black"/>
<path d="M39.4616 60.9947C39.0357 60.7982 38.4132 60.2739 38.4132 59.7497V54.3766L39.0029 53.5575H34.4161L35.0058 54.3766V59.7497C35.0058 60.2739 34.3833 60.7982 33.9574 60.9947H39.4616Z" fill="white"/>
<path d="M39.4618 61.1253H33.9576L33.9248 60.8959C34.318 60.6994 34.9077 60.2079 34.9077 59.782V54.4744L34.2197 53.4915H39.2652L38.5772 54.4744V59.782C38.5772 60.2407 39.1342 60.7321 39.5601 60.8959L39.4618 61.1253ZM34.3835 60.8632H39.0359C38.6755 60.6011 38.3151 60.1751 38.3151 59.7492V54.3433L38.7738 53.688H34.6128L35.0715 54.3433V59.7492C35.1043 60.1751 34.7439 60.6011 34.3835 60.8632Z" fill="black"/>
<path d="M35.5956 53.5897H37.7907V60.9942H35.5956V53.5897Z" fill="white"/>
<path d="M37.9217 61.1253H35.4972V53.4915H37.9217V61.1253ZM35.7265 60.8632H37.6923V53.688H35.7265V60.8632Z" fill="black"/>
<path d="M33.4986 55.6545H32.614V59.6844H33.4986V55.6545Z" fill="white"/>
<path d="M33.4987 59.7821H32.6141L32.483 59.651V55.6212L32.6141 55.4901H33.4987L33.6297 55.6212V59.651L33.4987 59.7821ZM32.7451 59.5528H33.4004V55.7522H32.7451V59.5528Z" fill="black"/>
<path d="M41.0017 55.6545H40.1171V59.6844H41.0017V55.6545Z" fill="white"/>
<path d="M41.0017 59.7821H40.1171L39.9861 59.651V55.6212L40.1171 55.4901H41.0017L41.1328 55.6212V59.651L41.0017 59.7821ZM40.2482 59.5528H40.9035V55.7522H40.2482V59.5528Z" fill="black"/>
<path d="M31.8607 48.8723H32.9091V53.0005H31.8607V48.8723Z" fill="white"/>
<path d="M32.942 53.0988H31.8608L31.7297 52.9677V48.8395L31.8608 48.7085H32.9092L33.0403 48.8395V52.9677L32.942 53.0988ZM31.9918 52.8694H32.8109V48.9706H31.9918V52.8694Z" fill="black"/>
<path d="M31.8607 48.0857H32.9091V48.8392H31.8607V48.0857Z" fill="white"/>
<path d="M32.9092 48.9705H31.8608L31.7297 48.8394V48.0859L31.8608 47.9548H32.9092L33.0403 48.0859V48.8394L32.9092 48.9705ZM31.9918 48.7412H32.8109V48.217H31.9918V48.7412Z" fill="black"/>
<path d="M40.5431 49.7571H42.0502V52.9351H40.5431V49.7571Z" fill="white"/>
<path d="M42.0499 53.066H40.5428L40.4117 52.9349V49.7569L40.5428 49.6259H42.0499L42.181 49.7569V52.9349L42.0499 53.066ZM40.6738 52.8039H41.9188V49.8552H40.6738V52.8039Z" fill="black"/>
<path d="M32.9091 52.9682V45.8913C33.2039 45.8913 33.2695 46.9398 33.9575 46.9398C34.3179 46.9398 34.2851 46.5138 34.0885 46.1534C33.9247 45.8586 33.6954 45.4327 33.9902 44.6136C34.1868 45.2361 34.7438 45.3999 34.6455 45.0395C34.4817 44.3842 33.9575 44.2859 34.3506 43.2703C34.4817 44.1221 35.0387 44.0894 34.9076 43.5979C34.7438 43.0409 34.4489 42.8116 34.8421 42.0253C35.0387 42.9099 35.3335 42.8771 35.3335 42.3202C35.3335 41.5011 35.3008 40.6165 36.3492 40.2888C36.3492 40.2888 36.4147 39.5353 36.7751 39.5353C37.1683 39.5353 37.201 40.2888 37.201 40.2888C38.2495 40.6165 38.2167 41.5011 38.2167 42.3202C38.2167 42.8771 38.5116 42.9099 38.7081 42.0253C39.1013 42.8116 38.7737 43.0409 38.6426 43.5979C38.5116 44.0894 39.0685 44.1221 39.1996 43.2703C39.5928 44.2859 39.0685 44.3842 38.9047 45.0395C38.8064 45.4326 39.3634 45.2361 39.56 44.6136C39.8549 45.3999 39.6255 45.8258 39.4617 46.1534C39.2651 46.5138 39.2324 46.9398 39.5928 46.9398C40.2808 46.9398 40.3135 45.8913 40.6412 45.8913V52.9682H32.9091Z" fill="white"/>
<path d="M40.7068 53.0659H32.7781V45.7598H32.9091C33.1057 45.7598 33.204 45.9563 33.3023 46.1857C33.4333 46.4805 33.5972 46.8082 33.9248 46.8082C34.0231 46.8082 34.0558 46.7754 34.0558 46.7427C34.1214 46.6444 34.0558 46.415 33.9576 46.1857C33.761 45.8253 33.5316 45.3666 33.8593 44.5475L33.9903 44.2526L34.0886 44.5475C34.2197 44.9079 34.449 45.0717 34.5145 45.0717V45.039C34.449 44.8424 34.3835 44.7113 34.2852 44.5803C34.0886 44.2526 33.9248 43.9578 34.1869 43.2042L34.3507 42.7783L34.4162 43.237C34.4818 43.6629 34.6456 43.794 34.7111 43.794C34.7439 43.7612 34.7439 43.6957 34.7439 43.5974C34.7111 43.4663 34.6783 43.368 34.6128 43.237C34.4818 42.8766 34.3507 42.5817 34.6783 41.9265L34.8094 41.6316L34.8749 41.9592C34.9732 42.3524 35.0715 42.4834 35.1043 42.5489C35.137 42.5162 35.137 42.4179 35.137 42.2868V42.2213C35.137 41.435 35.137 40.5504 36.1854 40.19C36.2182 39.9607 36.3165 39.4037 36.7424 39.4037C37.1356 39.4037 37.2666 39.9607 37.2994 40.19C38.3478 40.5504 38.3478 41.435 38.3478 42.2213V42.2868C38.3478 42.4507 38.3806 42.5162 38.3806 42.5489C38.4133 42.5162 38.5116 42.3851 38.6099 41.9592L38.6755 41.6316L38.8065 41.9265C39.1014 42.5817 39.0031 42.8766 38.872 43.237C38.8393 43.3353 38.7737 43.4663 38.741 43.5974C38.7082 43.6957 38.741 43.7612 38.741 43.794C38.8393 43.794 39.0031 43.6629 39.0686 43.237L39.1341 42.7783L39.298 43.2042C39.5928 43.9578 39.3962 44.2526 39.1997 44.5803C39.1341 44.7113 39.0358 44.8751 38.9703 45.039C38.9703 45.0717 38.9703 45.0717 38.9703 45.0717C39.0686 45.039 39.298 44.8751 39.3962 44.5475L39.4945 44.2526L39.6256 44.5475C39.9205 45.3666 39.7239 45.8253 39.5273 46.1857C39.3962 46.415 39.3635 46.6444 39.429 46.7427C39.429 46.7427 39.4618 46.8082 39.5601 46.8082C39.8877 46.8082 40.0515 46.4805 40.1826 46.1857C40.2808 45.9563 40.3791 45.7598 40.5757 45.7598H40.7068V53.0659ZM33.0402 52.8366H40.5102V46.1529C40.4774 46.1857 40.4447 46.2512 40.4447 46.284C40.2808 46.6116 40.0843 47.0375 39.5928 47.0375C39.429 47.0375 39.3307 46.972 39.2652 46.8737C39.1341 46.6443 39.2324 46.3167 39.3635 46.0874C39.4945 45.858 39.6911 45.5304 39.5273 44.9407C39.3635 45.2028 39.1341 45.3666 38.9703 45.3666C38.9048 45.3666 38.8393 45.3338 38.8065 45.3011C38.741 45.2355 38.741 45.1373 38.7737 45.039C38.8393 44.8096 38.9376 44.6458 39.0031 44.5147C39.1341 44.2854 39.2324 44.0888 39.1669 43.7284C39.0031 44.1216 38.6755 44.1544 38.5444 43.9905C38.4789 43.8922 38.4461 43.7612 38.5116 43.5974C38.5444 43.4663 38.6099 43.3353 38.6427 43.237C38.741 42.9749 38.8393 42.7783 38.7082 42.4179C38.6099 42.7128 38.4789 42.8766 38.3478 42.8766C38.2823 42.8766 38.0857 42.8111 38.0857 42.3524V42.2868C38.0857 41.5005 38.0857 40.747 37.1356 40.4521L37.0701 40.4193V40.3538C37.0373 40.1572 36.939 39.6986 36.7424 39.6986C36.5458 39.6986 36.4476 40.1245 36.4148 40.3538V40.4193L36.3493 40.4521C35.3991 40.747 35.3991 41.5005 35.3991 42.2868V42.3524C35.3991 42.8111 35.2026 42.8766 35.137 42.8766C35.006 42.8766 34.8749 42.7128 34.7766 42.4179C34.6783 42.7783 34.7439 42.9749 34.8422 43.237C34.8749 43.3353 34.9404 43.4663 34.9732 43.5974C35.006 43.7612 35.006 43.8922 34.9404 43.9905C34.8094 44.1544 34.5145 44.1216 34.3179 43.7284C34.2524 44.0888 34.3507 44.2854 34.4818 44.5147C34.5801 44.6458 34.6456 44.8096 34.7111 45.039C34.7439 45.1373 34.7439 45.2355 34.6783 45.3011C34.6456 45.3666 34.5801 45.3666 34.5145 45.3666C34.3507 45.3666 34.1214 45.2028 33.9576 44.9407C33.8265 45.5304 33.9903 45.858 34.1214 46.0874C34.2524 46.3167 34.3507 46.6443 34.2197 46.8737C34.1541 46.972 34.0231 47.0375 33.892 47.0375C33.4006 47.0375 33.204 46.6116 33.0402 46.284C33.0074 46.2512 33.0074 46.1857 32.9747 46.1529V52.8366H33.0402Z" fill="black"/>
<path d="M31.2709 47.6266V52.9998H31.8606V47.5939C31.664 47.4956 31.4347 47.4628 31.2709 47.6266Z" fill="white"/>
<path d="M31.9917 53.1314H31.1399V47.5617L31.1727 47.5289C31.3692 47.3651 31.6313 47.3651 31.8934 47.4962L31.959 47.5289V53.1314H31.9917ZM31.3692 52.9021H31.7624V47.6927C31.5986 47.6272 31.5003 47.6272 31.3692 47.6927V52.9021Z" fill="black"/>
<path d="M31.2709 51.1006C32.0244 51.4937 32.778 51.9524 32.9746 53.0008H31.2709V51.1006Z" fill="white"/>
<path d="M33.1057 53.1315H31.1399V50.9364L31.3037 51.0347C32.1228 51.4606 32.8763 51.9193 33.0729 53.0332L33.1057 53.1315ZM31.402 52.9022H32.8436C32.647 52.0831 32.0573 51.6572 31.402 51.2968V52.9022Z" fill="black"/>
<path d="M41.8206 49.4947V53.0004H42.312V49.462C42.1482 49.4292 41.9516 49.3964 41.8206 49.4947Z" fill="white"/>
<path d="M42.4105 53.1316H41.6897V49.4293L41.7225 49.3965C41.8863 49.2983 42.1484 49.2983 42.345 49.3638L42.4105 49.3965V53.1316ZM41.919 52.9022H42.1811V49.5604C42.0829 49.5276 41.9846 49.5276 41.919 49.5604V52.9022Z" fill="black"/>
<path d="M42.3121 51.068C41.5585 51.4612 40.805 51.9199 40.6084 52.9683H42.3121V51.068Z" fill="white"/>
<path d="M42.4104 53.0989H40.4446L40.4773 52.9678C40.6739 51.8539 41.4275 51.3952 42.2466 50.9693L42.4104 50.871V53.0989ZM40.7394 52.8695H42.181V51.2641C41.5258 51.6245 40.936 52.0504 40.7394 52.8695Z" fill="black"/>
<path d="M37.2995 42.876L37.7582 42.5156V42.0242C37.5943 42.0242 37.496 42.0897 37.3978 42.2535C37.2995 41.9259 37.0701 41.6965 36.7753 41.5327C36.4804 41.6965 36.251 41.9259 36.1528 42.2207C36.0217 42.0569 35.9562 42.0242 35.7924 41.9914V42.4829L36.251 42.8432H37.2995V42.876Z" fill="white"/>
<path d="M37.3322 42.9744H36.1528L35.6285 42.5484V41.8932H35.7596C35.8906 41.8932 35.9889 41.926 36.0872 42.0242C36.2183 41.7621 36.4149 41.5656 36.7097 41.4345L36.7753 41.4017L36.8408 41.4345C37.1029 41.5656 37.3322 41.7949 37.4633 42.0242C37.5616 41.9587 37.6599 41.8932 37.7909 41.8932H37.922V42.5484L37.3322 42.9744ZM36.2183 42.745H37.2339L37.5943 42.4502V42.1881C37.5288 42.2208 37.496 42.2536 37.4305 42.3519L37.2995 42.5157L37.2339 42.2863C37.1356 42.0242 36.9718 41.8277 36.7097 41.6639C36.4476 41.7949 36.2838 42.0242 36.1855 42.2863L36.12 42.5157L35.9889 42.3519C35.9234 42.2863 35.8906 42.2208 35.8251 42.2208V42.4829L36.2183 42.745Z" fill="black"/>
<path d="M37.529 44.0555L37.7256 43.5968V43.0071C37.5617 43.0071 37.4635 43.0726 37.3652 43.2364C37.2669 42.9088 37.0375 42.6794 36.7427 42.5156C36.4478 42.6794 36.2184 42.9088 36.1202 43.2364C35.9891 43.0726 35.9236 43.0398 35.7598 43.0071V43.6296L35.9563 44.0883L37.529 44.0555Z" fill="white"/>
<path d="M37.5945 44.1866H35.8581L35.5959 43.6297V42.8761H35.727C35.8581 42.8761 35.9563 42.9089 36.0546 43.0072C36.1857 42.745 36.3823 42.5485 36.6771 42.4174L36.7427 42.3846L36.8082 42.4174C37.0703 42.5485 37.2996 42.7778 37.4307 43.0399C37.529 42.9744 37.6273 42.9089 37.7583 42.9089H37.8894V43.6952L37.5945 44.1866ZM36.0219 43.9573H37.4634L37.6273 43.5969V43.1382C37.5617 43.171 37.529 43.2037 37.4634 43.302L37.3324 43.4986L37.2669 43.2693C37.1686 43.0071 37.0048 42.7778 36.7427 42.6468C36.4806 42.8106 36.3167 43.0071 36.2184 43.2693L36.1529 43.4986L36.0219 43.302C35.9563 43.2365 35.9236 43.171 35.8581 43.171V43.6297L36.0219 43.9573Z" fill="black"/>
<path d="M37.5612 45.693L38.2165 44.9067V44.1204C37.9872 44.1532 37.8561 44.2515 37.6595 44.5136C37.4957 43.9566 37.1681 43.8583 36.7422 43.5962C36.2835 43.8583 35.9558 43.9566 35.8248 44.5136C35.661 44.2515 35.5299 44.1532 35.2678 44.1532V44.9395L35.9231 45.7258H37.5612V45.693Z" fill="white"/>
<path d="M37.5942 45.7919H35.8578L35.137 44.9073V43.9572H35.268C35.4974 43.99 35.6284 44.0555 35.7595 44.2193C35.9233 43.8589 36.1854 43.7279 36.4803 43.564C36.5458 43.5313 36.6113 43.4985 36.6768 43.4658L36.7424 43.433L36.8079 43.4658C36.8734 43.4985 36.9389 43.5313 36.9717 43.564C37.2666 43.7279 37.5614 43.8917 37.6925 44.2521C37.8235 44.0882 37.9874 44.0227 38.1839 43.99H38.315V44.9401L37.5942 45.7919ZM35.956 45.5626H37.4959L38.0857 44.8418V44.2521C37.9546 44.2848 37.8563 44.3831 37.758 44.5797L37.627 44.809L37.5614 44.5469C37.4304 44.121 37.201 43.99 36.8734 43.7934C36.8407 43.7606 36.8079 43.7606 36.7751 43.7279C36.7096 43.7606 36.6768 43.7934 36.6441 43.7934C36.3164 43.99 36.0871 44.0882 35.956 44.5142L35.8905 44.7763L35.7595 44.5469C35.6284 44.3504 35.5629 44.2848 35.4318 44.2521V44.8746L35.956 45.5626Z" fill="black"/>
<path d="M37.7581 47.267C37.7581 47.267 38.5117 46.6118 38.5772 46.2186V45.3668C38.2823 45.3995 37.9875 45.465 37.7909 45.8254C37.5943 45.1374 37.2995 44.9408 36.7752 44.5804C36.2183 44.9081 35.9234 45.1047 35.7596 45.8254C35.5302 45.465 35.2681 45.3995 34.9733 45.3668V46.2186C35.0716 46.579 35.7923 47.267 35.7923 47.267H37.7581Z" fill="white"/>
<path d="M37.7911 47.3976H35.6615L35.6287 47.3648C35.5632 47.2993 34.8751 46.6768 34.7769 46.2837V46.2509V45.268H34.9079C35.17 45.3008 35.4321 45.3663 35.6615 45.5956C35.858 45.0387 36.1529 44.8421 36.6771 44.5144L36.7426 44.4817L36.8082 44.5144C37.3324 44.8421 37.6273 45.0387 37.8238 45.5956C38.0532 45.3663 38.3153 45.3008 38.5774 45.268H38.7084V46.2509C38.6429 46.6768 37.9221 47.2993 37.8566 47.3648L37.7911 47.3976ZM35.7598 47.1683H37.6928C37.9876 46.9062 38.4136 46.4475 38.4463 46.2509V45.5629C38.217 45.5956 38.0204 45.6939 37.8566 45.956L37.7255 46.1854L37.66 45.9233C37.4962 45.3008 37.2669 45.1042 36.7426 44.8093C36.2184 45.137 35.9891 45.3008 35.8253 45.9233L35.7598 46.1854L35.6287 45.956C35.4649 45.6939 35.3011 45.6284 35.039 45.5629V46.2509C35.1045 46.4803 35.5632 46.9389 35.7598 47.1683Z" fill="black"/>
<path d="M38.086 50.2158C38.086 50.2158 39.1345 49.0691 39.1672 48.6104V47.2999C38.7741 47.3654 38.4137 47.6275 38.1188 48.1517C37.8567 47.0705 37.4963 46.2842 36.7755 45.76C36.0547 46.2842 35.6616 47.0378 35.4322 48.1517C35.1373 47.5947 34.7769 47.3326 34.3838 47.2999V48.6104C34.4493 49.0691 35.465 50.2158 35.465 50.2158H38.086Z" fill="white"/>
<path d="M38.1186 50.3136H35.3337L35.301 50.2808C35.2027 50.1497 34.2853 49.0685 34.187 48.6099V47.1355L34.3181 47.1683C34.7112 47.2338 35.0389 47.4632 35.301 47.8563C35.5631 46.8079 35.989 46.1526 36.6443 45.6939L36.7098 45.6284L36.7753 45.6939C37.4306 46.1854 37.8565 46.8407 38.1186 47.8563C38.3807 47.4632 38.7411 47.2338 39.1015 47.1683L39.2325 47.1355V48.5771C39.1998 49.0686 38.2496 50.1497 38.1186 50.2808V50.3136ZM35.4648 50.0842H38.0531C38.4462 49.6255 39.036 48.872 39.0687 48.5771V47.3976C38.7411 47.4959 38.4462 47.758 38.2496 48.1839L38.0858 48.446L38.0203 48.1512C37.7582 47.0372 37.3978 46.382 36.7753 45.8905C36.1528 46.382 35.7924 47.07 35.5303 48.1512L35.4648 48.446L35.301 48.1839C35.0716 47.758 34.7767 47.4959 34.4819 47.3976V48.5771C34.4819 48.9047 35.1699 49.7238 35.4648 50.0842Z" fill="black"/>
<path d="M38.086 51.9515C38.086 51.9515 38.9706 51.0341 39.1672 50.641V49.3304C38.7741 49.396 38.4137 49.6581 38.1188 50.1823C37.8567 49.1011 37.4963 48.4786 36.7755 47.9216C36.0547 48.4458 35.6616 49.0684 35.4322 50.1823C35.1373 49.6253 34.7769 49.3632 34.3838 49.3304V50.641C34.6131 51.0341 35.465 51.9515 35.465 51.9515H38.086Z" fill="white"/>
<path d="M38.1188 52.0499H35.3339L35.3012 52.0171C35.2684 51.9843 34.4493 51.0997 34.22 50.6738V50.6411V49.1667L34.351 49.1995C34.7442 49.265 35.0718 49.4943 35.3339 49.8875C35.596 48.9374 35.9892 48.3476 36.6772 47.8562L36.7427 47.7906L36.8083 47.8562C37.4963 48.3476 37.8894 48.9374 38.1516 49.8875C38.4137 49.4943 38.7741 49.265 39.1345 49.1995L39.2655 49.1667V50.6738C39.0689 51.0997 38.2171 51.9843 38.1843 52.0171L38.1188 52.0499ZM35.4322 51.8205H38.0205C38.2826 51.5584 38.8723 50.9032 39.0362 50.6083V49.4616C38.7085 49.5599 38.4137 49.822 38.2171 50.2479L38.0533 50.51L37.9877 50.2151C37.7584 49.1995 37.398 48.6097 36.7427 48.0855C36.0875 48.577 35.7271 49.1995 35.4977 50.2151L35.4322 50.51L35.2684 50.2479C35.0391 49.822 34.7442 49.5599 34.4493 49.4616V50.6083C34.6459 50.9359 35.3012 51.6567 35.4322 51.8205Z" fill="black"/>
<path d="M38.4462 52.9339C38.1841 51.7872 37.9547 50.9353 36.7097 50.0835C35.4647 50.9353 35.2354 51.7872 34.9733 52.9339H38.4462Z" fill="white"/>
<path d="M38.5774 53.0655H34.7769L34.8096 52.9344C35.0717 51.8532 35.2683 50.9359 36.6116 50.0185L36.6771 49.9857L36.7426 50.0185C38.0859 50.9359 38.2825 51.8532 38.5446 52.9344L38.5774 53.0655ZM35.0717 52.8361H38.2825C38.0204 51.7549 37.7911 51.0341 36.6771 50.2478C35.5959 51.0014 35.3338 51.7549 35.0717 52.8361Z" fill="black"/>
<path d="M39.0688 53.5891V51.951C38.5119 52.1803 37.9876 52.5079 37.7911 52.8683C37.5617 51.951 37.1686 51.5578 36.6443 51.0009C36.1201 51.5578 35.7925 51.951 35.5632 52.8683C35.3666 52.5079 34.8424 52.1803 34.2854 51.951V53.5891H39.0688Z" fill="white"/>
<path d="M39.2 53.688H34.22V51.755L34.3838 51.8205C34.908 52.0171 35.3339 52.2792 35.5633 52.574C35.7926 51.8205 36.1202 51.4273 36.5789 50.9031L36.6772 50.8048L36.841 51.0014C37.2669 51.4601 37.6273 51.8532 37.8567 52.574C38.086 52.2792 38.512 52.0171 39.0362 51.8205L39.2 51.755V53.688ZM34.4493 53.4586H38.9706V52.1153C38.4464 52.3447 38.0533 52.6395 37.9222 52.9344L37.7912 53.2293L37.7256 52.9344C37.5291 52.1153 37.1687 51.6894 36.71 51.198C36.2513 51.6894 35.9564 52.0826 35.7598 52.9344L35.6943 53.2293L35.5633 52.9344C35.4322 52.6395 35.0391 52.3447 34.5148 52.1153L34.4493 53.4586Z" fill="black"/>
<path d="M66.7008 59.6844V54.7043C66.537 54.0818 66.0127 53.4921 65.5868 53.3938V49.0035L66.5042 49.495L67.5526 54.0818V59.6844H66.7008Z" fill="white"/>
<path d="M66.5698 59.8152H67.651V54.0816L66.6026 49.4293L65.4559 48.8068V53.4919L65.5542 53.5247C65.9146 53.6229 66.406 54.1472 66.5698 54.7369V59.8152ZM67.4217 59.5858H66.7992V54.6714C66.6353 54.0161 66.1111 53.4591 65.6852 53.2953V49.1999L66.3732 49.5603L67.3889 54.0816V59.5858H67.4217Z" fill="black"/>
<path d="M66.7008 59.7166V54.7038C66.537 54.0813 66.0127 53.4916 65.5868 53.3933V48.7081C66.2093 48.7081 66.5042 49.4944 66.5042 49.4944L67.5526 54.0813V59.651L66.7008 59.7166Z" fill="white"/>
<path d="M66.5698 59.8479L67.651 59.8151V54.0816L66.6026 49.4947C66.5698 49.4292 66.2749 48.6101 65.5869 48.6101H65.4559V53.5246L65.5542 53.5574C65.9146 53.6557 66.406 54.1799 66.5698 54.7696V59.8479ZM67.4217 59.553L66.7992 59.5858V54.6713C66.6353 54.016 66.1111 53.4591 65.6852 53.2953V48.8067C66.1439 48.905 66.3732 49.4947 66.3732 49.5275L67.4217 54.0816V59.553Z" fill="black"/>
<path d="M66.0455 60.9945C66.4714 60.7979 67.0939 60.2737 67.0939 59.7495V53.5244L66.799 53.0002H77.4143L76.9884 53.5244V59.7495C76.9884 60.2737 77.4143 60.7979 77.8402 60.9945H66.0455Z" fill="white"/>
<path d="M66.0457 61.1258H77.8404L77.8732 60.8964C77.5128 60.7326 77.0869 60.2412 77.0869 59.7825V53.5902L77.6438 52.9022H66.5699L66.9303 53.5575V59.7497C66.9303 60.2084 66.3733 60.6999 65.9474 60.8637L66.0457 61.1258ZM77.4472 60.8637H66.4716C66.832 60.6016 67.1924 60.1756 67.1924 59.7497V53.492L66.9958 53.1316H77.1851L76.8903 53.492V59.7825C76.8903 60.1757 77.1524 60.6016 77.4472 60.8637Z" fill="black"/>
<path d="M75.7106 60.9945C75.2846 60.7979 74.6621 60.2737 74.6621 59.7495V53.8193L75.5468 53.0002H68.3389L69.2235 53.8193V59.7495C69.2235 60.2737 68.601 60.7979 68.175 60.9945H75.7106Z" fill="white"/>
<path d="M68.1751 61.1252H75.7107L75.7434 60.8959C75.3503 60.6993 74.7605 60.2079 74.7605 59.782V53.9173L75.809 52.9344H67.9786L69.027 53.9173V59.782C69.027 60.2406 68.47 60.7321 68.0441 60.8959L68.1751 61.1252ZM75.2848 60.8631H68.6011C68.9615 60.601 69.3219 60.1751 69.3219 59.7492V53.7863L68.6338 53.131H75.252L74.564 53.7863V59.7492C74.564 60.1751 74.9244 60.601 75.2848 60.8631Z" fill="black"/>
<path d="M74.6949 60.9947C74.269 60.7982 73.6465 60.2739 73.6465 59.7497V54.3766L74.2363 53.5575H69.6494L70.2391 54.3766V59.7497C70.2391 60.2739 69.6166 60.7982 69.1907 60.9947H74.6949Z" fill="white"/>
<path d="M69.1908 61.1253H74.695L74.7278 60.8959C74.3346 60.6994 73.7449 60.2079 73.7449 59.782V54.4744L74.4329 53.4915H69.3874L70.0754 54.4744V59.782C70.0754 60.2407 69.5184 60.7321 69.0925 60.8959L69.1908 61.1253ZM74.2691 60.8632H69.6167C69.9771 60.6011 70.3375 60.1751 70.3375 59.7492V54.3433L69.8788 53.688H74.007L73.5483 54.3433V59.7492C73.5483 60.1751 73.9087 60.6011 74.2691 60.8632Z" fill="black"/>
<path d="M70.8619 53.5897H73.057V60.9942H70.8619V53.5897Z" fill="white"/>
<path d="M70.7308 61.1253H73.1553V53.4915H70.7308V61.1253ZM72.9259 60.8632H70.9601V53.688H72.9259V60.8632Z" fill="black"/>
<path d="M67.8476 55.6545H68.7322V59.6844H67.8476V55.6545Z" fill="white"/>
<path d="M67.8803 59.7821H68.7649L68.896 59.651V55.6212L68.7649 55.4901H67.8803L67.7493 55.6212V59.651L67.8803 59.7821ZM68.6339 59.5528H67.9786V55.7522H68.6339V59.5528Z" fill="black"/>
<path d="M75.3504 55.6545H76.235V59.6844H75.3504V55.6545Z" fill="white"/>
<path d="M75.3831 59.7821H76.2678L76.3988 59.651V55.6212L76.2678 55.4901H75.3831L75.2521 55.6212V59.651L75.3831 59.7821ZM76.1367 59.5528H75.4814V55.7522H76.1367V59.5528Z" fill="black"/>
<path d="M67.1269 48.8723H68.1753V53.0005H67.1269V48.8723Z" fill="white"/>
<path d="M67.1268 53.0988H68.1752L68.3063 52.9677V48.8395L68.1752 48.7085H67.1268L66.9957 48.8395V52.9677L67.1268 53.0988ZM68.0442 52.8694H67.2251V48.9706H68.0442V52.8694Z" fill="black"/>
<path d="M67.1269 48.0857H68.1753V48.8392H67.1269V48.0857Z" fill="white"/>
<path d="M67.1268 48.9705H68.1752L68.3063 48.8394V48.0859L68.1752 47.9548H67.1268L66.9957 48.0859V48.8394L67.1268 48.9705ZM68.0442 48.7412H67.2251V48.217H68.0442V48.7412Z" fill="black"/>
<path d="M75.7762 49.7571H77.2833V52.9351H75.7762V49.7571Z" fill="white"/>
<path d="M75.7761 53.066H77.2833L77.4143 52.9349V49.7569L77.2833 49.6259H75.7761L75.6451 49.7569V52.9349L75.7761 53.066ZM77.1522 52.8039H75.9072V49.8552H77.1522V52.8039Z" fill="black"/>
<path d="M68.1423 52.9682V45.8913C68.4371 45.8913 68.5027 46.9398 69.1907 46.9398C69.5511 46.9398 69.5183 46.5138 69.3217 46.1534C69.1579 45.8586 68.9286 45.4327 69.2235 44.6136C69.42 45.2361 69.977 45.3999 69.8787 45.0395C69.7149 44.3842 69.1907 44.2859 69.5839 43.2703C69.7149 44.1221 70.2719 44.0894 70.1408 43.5979C69.977 43.0409 69.6821 42.8116 70.0753 42.0253C70.2719 42.9099 70.5667 42.8771 70.5667 42.3202C70.5667 41.5011 70.534 40.6165 71.5824 40.2888C71.5824 40.2888 71.6479 39.5353 72.0083 39.5353C72.4015 39.5353 72.4343 40.2888 72.4343 40.2888C73.4827 40.6165 73.4499 41.5011 73.4499 42.3202C73.4499 42.8771 73.7448 42.9099 73.9414 42.0253C74.3345 42.8116 74.0069 43.0409 73.8758 43.5979C73.7448 44.0894 74.3018 44.1221 74.4328 43.2703C74.826 44.2859 74.3018 44.3842 74.1379 45.0395C74.0396 45.4326 74.5966 45.2361 74.7932 44.6136C75.0881 45.3999 74.8587 45.8258 74.6949 46.1534C74.4983 46.5138 74.4656 46.9398 74.826 46.9398C75.514 46.9398 75.5468 45.8913 75.8744 45.8913V52.9682H68.1423Z" fill="white"/>
<path d="M68.0441 53.0659H75.9728V45.7598H75.8417C75.6451 45.7598 75.5469 45.9563 75.4486 46.1857C75.3175 46.4805 75.1537 46.8082 74.8261 46.8082C74.7278 46.8082 74.695 46.7754 74.695 46.7427C74.6295 46.6444 74.695 46.415 74.7933 46.1857C74.9571 45.8908 75.2192 45.4321 74.8916 44.5475L74.7605 44.2526L74.6623 44.5475C74.5312 44.9079 74.3019 45.0717 74.2363 45.0717V45.039C74.3019 44.8424 74.3674 44.7113 74.4657 44.5803C74.6623 44.2526 74.8261 43.9578 74.564 43.2042L74.4001 42.7783L74.3346 43.237C74.2691 43.6629 74.1053 43.794 74.0398 43.794C74.007 43.7612 74.007 43.6957 74.007 43.5974C74.0397 43.4663 74.0725 43.368 74.138 43.237C74.2691 42.8766 74.4001 42.5817 74.0725 41.9265L73.9415 41.6316L73.8759 41.9592C73.7776 42.3524 73.6794 42.4834 73.6466 42.5489C73.6138 42.5162 73.6138 42.4179 73.6138 42.2868V42.2213C73.6138 41.435 73.6138 40.5504 72.5654 40.19C72.5326 39.9607 72.4344 39.4037 72.0084 39.4037C71.6153 39.4037 71.4842 39.9607 71.4515 40.19C70.403 40.5504 70.403 41.435 70.403 42.2213V42.2868C70.403 42.4507 70.3703 42.5162 70.3703 42.5489C70.3375 42.5162 70.2392 42.3851 70.1409 41.9592L70.0754 41.6316L69.9444 41.9265C69.6495 42.5817 69.7478 42.8766 69.8788 43.237C69.9116 43.3353 69.9771 43.4663 70.0099 43.5974C70.0426 43.6957 70.0099 43.7612 70.0099 43.794C69.9116 43.794 69.7478 43.6629 69.6822 43.237L69.6167 42.7783L69.4529 43.2042C69.158 43.9578 69.3546 44.2526 69.5512 44.5803C69.6167 44.7113 69.715 44.8751 69.7805 45.039C69.7805 45.0717 69.7805 45.0717 69.7805 45.0717C69.6822 45.039 69.4529 44.8751 69.3546 44.5475L69.2563 44.2526L69.1253 44.5475C68.7976 45.4321 69.0597 45.8908 69.2236 46.1857C69.3546 46.415 69.3874 46.6444 69.3219 46.7427C69.3219 46.7427 69.2891 46.8082 69.1908 46.8082C68.8632 46.8082 68.6994 46.4805 68.5683 46.1857C68.47 45.9563 68.3717 45.7598 68.1751 45.7598H68.0441V53.0659ZM75.7434 52.8366H68.2734V46.1529C68.3062 46.1857 68.339 46.2512 68.339 46.284C68.5028 46.6116 68.6993 47.0375 69.1908 47.0375C69.3546 47.0375 69.4529 46.972 69.5184 46.8737C69.6495 46.6443 69.5512 46.3167 69.4201 46.0874C69.2891 45.858 69.0925 45.5304 69.2563 44.9407C69.4201 45.2028 69.6495 45.3666 69.8133 45.3666C69.8788 45.3666 69.9444 45.3338 69.9771 45.3011C70.0426 45.2355 70.0426 45.1373 70.0099 45.039C69.9444 44.8096 69.8461 44.6458 69.7805 44.5147C69.6495 44.2854 69.5512 44.0888 69.6167 43.7284C69.7805 44.1216 70.1082 44.1544 70.2392 43.9905C70.3047 43.8922 70.3375 43.7612 70.272 43.5974C70.2392 43.4663 70.1737 43.3353 70.1409 43.237C70.0426 42.9749 69.9443 42.7783 70.0754 42.4179C70.1737 42.7128 70.3047 42.8766 70.4358 42.8766C70.5013 42.8766 70.5996 42.8438 70.6651 42.68C70.6979 42.5817 70.6979 42.4834 70.6979 42.3524V42.2868C70.6979 41.5005 70.6979 40.747 71.648 40.4521L71.7136 40.4193V40.3538C71.7463 40.1572 71.8446 39.6986 72.0412 39.6986C72.2378 39.6986 72.3361 40.1245 72.3688 40.3538V40.4193L72.4016 40.3866C73.3517 40.6815 73.3517 41.435 73.3517 42.2213V42.2868C73.3517 42.7455 73.5483 42.8111 73.6138 42.8111C73.7449 42.8111 73.8759 42.6472 73.9742 42.3524C74.0725 42.7128 74.007 42.9093 73.9087 43.1715C73.8759 43.2697 73.8104 43.4008 73.7776 43.5318C73.7449 43.6957 73.7449 43.8267 73.8104 43.925C73.9415 44.0888 74.2363 44.0561 74.4329 43.6629C74.4984 44.0233 74.4001 44.2199 74.2691 44.4492C74.1708 44.5803 74.1053 44.7441 74.0398 44.9734C74.007 45.0717 74.007 45.17 74.0725 45.2355C74.1053 45.3011 74.1708 45.3011 74.2363 45.3011C74.4001 45.3011 74.6295 45.1373 74.7933 44.8751C74.9244 45.4649 74.7605 45.7925 74.6295 46.0219C74.4984 46.2512 74.4001 46.5788 74.5312 46.8082C74.5967 46.9065 74.7278 46.972 74.8588 46.972C75.3503 46.972 75.5469 46.5461 75.7107 46.2184C75.7434 46.1857 75.7434 46.1202 75.7762 46.0874V52.8366H75.7434Z" fill="black"/>
<path d="M66.5041 47.6266V52.9998H67.1266V47.5939C66.8972 47.4956 66.7007 47.4628 66.5041 47.6266Z" fill="white"/>
<path d="M66.3731 53.1314H67.225V47.5289L67.1595 47.4962C66.8646 47.3651 66.6352 47.3651 66.4387 47.5289L66.4059 47.5617V53.1314H66.3731ZM66.9956 52.9021H66.6025V47.6927C66.7008 47.6272 66.8318 47.6272 66.9956 47.6927V52.9021Z" fill="black"/>
<path d="M66.5368 51.0999C67.2903 51.493 68.0439 51.9517 68.2405 53.0001H66.5368V51.0999Z" fill="white"/>
<path d="M66.4059 53.1315H68.3717L68.3389 53.0004C68.1424 51.8865 67.3888 51.4278 66.5697 51.0019L66.4059 50.9036V53.1315ZM68.0768 52.9021H66.6353V51.2967C67.2905 51.6571 67.8803 52.0503 68.0768 52.9021Z" fill="black"/>
<path d="M77.0541 49.4947V53.0004H77.5455V49.462C77.3817 49.4292 77.1851 49.3964 77.0541 49.4947Z" fill="white"/>
<path d="M76.9231 53.1313H77.6439V49.429L77.5784 49.3962C77.3818 49.2979 77.1197 49.2979 76.9559 49.429L76.9231 49.4618V53.1313ZM77.4473 52.9019H77.1852V49.5601C77.2508 49.5273 77.3491 49.5273 77.4473 49.5601V52.9019Z" fill="black"/>
<path d="M77.5453 51.067C76.7917 51.4602 76.0382 51.9189 75.8416 52.9673H77.5453V51.067Z" fill="white"/>
<path d="M75.7107 53.0987H77.6765V50.9036L77.5127 51.0019C76.6936 51.4278 75.9401 51.8865 75.7435 53.0004L75.7107 53.0987ZM77.4472 52.8694H76.0056C76.2022 52.0503 76.7919 51.6244 77.4472 51.264V52.8694Z" fill="black"/>
<path d="M72.5325 42.876L72.9912 42.5156V42.0242C72.8274 42.0242 72.7291 42.0897 72.6308 42.2535C72.5325 41.9259 72.3032 41.6965 72.0083 41.5327C71.7134 41.6965 71.4841 41.9259 71.3858 42.2207C71.2548 42.0569 71.1892 42.0242 71.0254 41.9914V42.4829L71.4841 42.8432H72.5325V42.876Z" fill="white"/>
<path d="M71.3858 42.9744H72.5653L73.0895 42.5484V41.8932H72.9584C72.8274 41.8932 72.7291 41.9587 72.6308 42.0242C72.4997 41.7621 72.3032 41.5656 72.0083 41.4345L71.9428 41.4017L71.8772 41.4345C71.6151 41.5656 71.3858 41.7949 71.2547 42.0242C71.1564 41.9587 71.0582 41.9259 70.9271 41.8932H70.7961V42.5484L71.3858 42.9744ZM72.4997 42.745H71.4841L71.1237 42.4502V42.1881C71.1892 42.2208 71.222 42.2536 71.2875 42.3191L71.4186 42.4829L71.4841 42.2536C71.5824 41.9915 71.7462 41.7949 72.0083 41.6311C72.2704 41.7621 72.4342 41.9915 72.5325 42.2536L72.598 42.4829L72.7291 42.3191C72.7946 42.2536 72.8274 42.1881 72.8929 42.1553V42.4174L72.4997 42.745Z" fill="black"/>
<path d="M72.7619 44.0565L72.9585 43.5978V43.008C72.7947 43.008 72.6964 43.0736 72.5981 43.2374C72.4998 42.9098 72.2705 42.6804 71.9756 42.5166C71.6807 42.6804 71.4514 42.9098 71.3531 43.2374C71.222 43.0736 71.1565 43.0408 70.9927 43.008V43.6306L71.1893 44.0892L72.7619 44.0565Z" fill="white"/>
<path d="M71.1238 44.1868H72.8602L73.1223 43.6298V42.8763H72.9913C72.8602 42.8763 72.7619 42.9418 72.6636 43.0073C72.5326 42.7452 72.336 42.5486 72.0411 42.3848L71.9756 42.3521L71.9101 42.3848C71.648 42.5159 71.4186 42.7452 71.2876 42.9746C71.1893 42.909 71.091 42.8763 70.9599 42.8435H70.8289V43.6298L71.1238 44.1868ZM72.6964 43.9575H71.2548L71.091 43.597V43.1384C71.1565 43.1711 71.1893 43.2039 71.2548 43.2694L71.3859 43.466L71.4514 43.2367C71.5497 42.9746 71.7135 42.778 71.9756 42.6142C72.2377 42.7452 72.4015 42.9746 72.4998 43.2367L72.5653 43.466L72.6964 43.2694C72.7619 43.1711 72.7947 43.1384 72.8602 43.1056V43.5643L72.6964 43.9575Z" fill="black"/>
<path d="M72.7947 45.694L73.45 44.9077V44.1214C73.2206 44.1542 73.0896 44.2524 72.893 44.5145C72.7292 43.9576 72.4015 43.8593 71.9756 43.5972C71.5169 43.8593 71.1893 43.9576 71.0582 44.5145C70.8944 44.2524 70.7634 44.1541 70.5013 44.1541V44.9405L71.1565 45.7268H72.7947V45.694Z" fill="white"/>
<path d="M71.0911 45.7921H72.8276L73.5483 44.9075V43.9574H73.4173C73.2207 43.9901 73.0569 44.0557 72.9258 44.2195C72.762 43.8591 72.4999 43.6952 72.205 43.5314C72.1395 43.4987 72.1068 43.4659 72.0412 43.4331L71.9757 43.4004L71.9102 43.4331C71.8447 43.4659 71.7791 43.4987 71.7136 43.5314C71.4187 43.6952 71.1566 43.8263 70.9928 44.1867C70.8618 44.0229 70.6979 43.9574 70.5014 43.9246H70.3703V44.8747L71.0911 45.7921ZM72.7293 45.5628H71.1894L70.5997 44.842V44.2195C70.7307 44.2522 70.7962 44.3177 70.9273 44.5143L71.0583 44.7437L71.1239 44.4816C71.2222 44.0557 71.4515 43.9574 71.7791 43.7608C71.8119 43.728 71.8774 43.6952 71.9102 43.6952C71.9429 43.728 71.9757 43.728 72.0085 43.7608C72.3689 43.9574 72.5982 44.0884 72.6965 44.5143L72.762 44.7764L72.8931 44.5471C73.0241 44.3505 73.0897 44.285 73.2207 44.2195V44.8092L72.7293 45.5628Z" fill="black"/>
<path d="M72.9913 47.267C72.9913 47.267 73.7449 46.6118 73.8104 46.2186V45.3668C73.5156 45.3995 73.2207 45.465 73.0241 45.8254C72.8275 45.1374 72.5327 44.9408 72.0084 44.5804C71.4515 44.9081 71.1566 45.1047 70.9928 45.8254C70.7634 45.465 70.5013 45.3995 70.2065 45.3668V46.2186C70.3048 46.579 71.0256 47.267 71.0256 47.267H72.9913Z" fill="white"/>
<path d="M70.9272 47.3976H73.0568L73.0896 47.3648C73.1879 47.2993 73.8759 46.6441 73.9414 46.2509V45.268H73.8104C73.5482 45.3008 73.2861 45.3663 73.0568 45.5956C72.8602 45.0387 72.5654 44.8421 72.0411 44.5144L71.9756 44.4817L71.9101 44.5144C71.3859 44.8421 71.091 45.0387 70.8944 45.5956C70.6651 45.3663 70.403 45.3008 70.1409 45.268H70.0098V46.2837C70.1081 46.6768 70.7634 47.2993 70.8617 47.3648L70.9272 47.3976ZM72.9585 47.1683H71.0255C70.8289 46.9717 70.3702 46.4802 70.2719 46.2181V45.5301C70.5013 45.5629 70.6979 45.6612 70.8617 45.9233L70.9927 46.1526L71.0582 45.8905C71.2221 45.268 71.4514 45.0714 71.9756 44.7766C72.4998 45.1042 72.7292 45.268 72.893 45.8905L72.9585 46.1526L73.0896 45.9233C73.2534 45.6612 73.4172 45.5956 73.6793 45.5301V46.2509C73.6465 46.4475 73.2206 46.9062 72.9585 47.1683Z" fill="black"/>
<path d="M73.3187 50.2158C73.3187 50.2158 74.3671 49.0691 74.3999 48.6104V47.2999C74.0067 47.3654 73.6463 47.6275 73.3515 48.1517C73.0894 47.0705 72.729 46.2842 72.0082 45.76C71.2874 46.2842 70.8942 47.0378 70.6649 48.1517C70.37 47.5947 70.0096 47.3326 69.6165 47.2999V48.6104C69.682 49.0691 70.6977 50.2158 70.6977 50.2158H73.3187Z" fill="white"/>
<path d="M70.5997 50.3136H73.3845L73.4173 50.2808C73.5156 50.1497 74.4985 49.0685 74.5312 48.6099V47.1355L74.4002 47.1683C74.007 47.2338 73.6794 47.4632 73.4173 47.8563C73.1552 46.8079 72.7293 46.1526 72.074 45.6939L72.0085 45.6284L71.943 45.6939C71.2877 46.1854 70.8618 46.8407 70.5997 47.8563C70.3376 47.4632 69.9772 47.2338 69.6168 47.1683L69.4857 47.1355V48.5771C69.5512 49.0686 70.4686 50.1497 70.5997 50.2808V50.3136ZM73.2535 50.0842H70.6652C70.3703 49.7238 69.7151 48.9047 69.6495 48.5771V47.4304C69.9772 47.5287 70.272 47.7908 70.4686 48.2167L70.6324 48.4788L70.698 48.1839C70.9601 47.07 71.3205 46.4147 71.943 45.9233C72.5655 46.4147 72.9259 47.1028 73.188 48.1839L73.2535 48.4788L73.4173 48.2167C73.6466 47.7908 73.9415 47.5287 74.2364 47.4304V48.6099C74.2691 48.872 73.6794 49.6255 73.2535 50.0842Z" fill="black"/>
<path d="M73.3187 51.9521C73.3187 51.9521 74.2033 51.0347 74.3999 50.6416V49.3311C74.0067 49.3966 73.6463 49.6587 73.3515 50.1829C73.0894 49.1017 72.729 48.4792 72.0082 47.9222C71.2874 48.4465 70.8942 49.069 70.6649 50.1829C70.37 49.6259 70.0096 49.3638 69.6165 49.3311V50.6416C69.8458 51.0347 70.6977 51.9521 70.6977 51.9521H73.3187Z" fill="white"/>
<path d="M70.5995 52.0499H73.3843L73.4171 52.0172C73.4499 51.9844 74.3345 51.0998 74.4983 50.6739V50.6411V49.1995L74.3672 49.2323C73.9741 49.2978 73.6464 49.5272 73.3843 49.9203C73.1222 48.9702 72.7291 48.3805 72.0411 47.889L71.9755 47.8235L71.91 47.889C71.222 48.3805 70.8288 48.9702 70.5667 49.9203C70.3046 49.5272 69.9442 49.2978 69.5838 49.2323L69.4528 49.1995V50.6739V50.7066C69.6821 51.0998 70.5012 51.9844 70.5339 52.0499H70.5995ZM73.2861 51.8206H70.6978C70.5339 51.6568 69.9114 50.936 69.6821 50.6084V49.4616C70.0097 49.5599 70.3046 49.822 70.5012 50.248L70.665 50.5101L70.7305 50.2152C70.9599 49.1995 71.3203 48.6098 71.9755 48.0856C72.6308 48.577 72.9912 49.1995 73.2205 50.2152L73.2861 50.5101L73.4499 50.248C73.6792 49.822 73.9741 49.5599 74.2689 49.4616V50.6084C74.1379 50.9032 73.5482 51.5585 73.2861 51.8206Z" fill="black"/>
<path d="M73.6792 52.9339C73.4171 51.7872 73.1878 50.9353 71.9428 50.0835C70.6978 50.9353 70.4684 51.7872 70.2063 52.9339H73.6792Z" fill="white"/>
<path d="M70.0425 53.0655H73.843L73.8103 52.9344C73.5482 51.8532 73.3516 50.9359 72.0083 50.0185L71.9428 49.9857L71.8772 50.0185C70.5339 50.9359 70.3374 51.8532 70.0752 52.9344L70.0425 53.0655ZM73.5482 52.8361H70.3374C70.5995 51.7549 70.8288 51.0341 71.9428 50.2478C73.0239 51.0014 73.286 51.7549 73.5482 52.8361Z" fill="black"/>
<path d="M74.335 53.5891V51.951C73.778 52.1803 73.2538 52.5079 73.0572 52.8683C72.8279 51.951 72.4347 51.5578 71.9105 51.0009C71.3863 51.5578 71.0586 51.951 70.8293 52.8683C70.6327 52.5079 70.1085 52.1803 69.5515 51.951V53.5891H74.335Z" fill="white"/>
<path d="M69.4531 53.688H74.4658V51.755L74.302 51.8205C73.7778 52.0171 73.3519 52.3119 73.1225 52.574C72.8932 51.8532 72.5328 51.4273 72.1069 51.0014L71.9431 50.8048L71.8448 50.9031C71.3533 51.4273 71.0257 51.8205 70.8291 52.574C70.5998 52.2792 70.1738 52.0171 69.6496 51.8205L69.4858 51.755V53.688H69.4531ZM74.2037 53.4586H69.6824V52.1153C70.2066 52.3447 70.5998 52.6395 70.7308 52.9344L70.8619 53.2293L70.9274 52.9344C71.124 52.1153 71.4188 51.7222 71.8775 51.198C72.3362 51.6894 72.6966 52.0826 72.8932 52.9344L72.9587 53.2293L73.0898 52.9344C73.2208 52.6395 73.614 52.3447 74.1382 52.1153V53.4586H74.2037Z" fill="black"/>
<path d="M25.0461 67.0225H84.9045V70.0694H25.0461V67.0225Z" fill="white"/>
<path d="M85.0355 70.2004H24.9478V66.9241H85.0355V70.2004ZM25.1771 69.971H84.8061V67.1534H25.1771V69.971Z" fill="black"/>
<path d="M23.4734 70.0699H86.477V73.1169H23.4734V70.0699Z" fill="white"/>
<path d="M86.608 73.2475H23.375V69.9712H86.608V73.2475ZM23.6043 73.0182H86.3786V70.2005H23.6043V73.0182Z" fill="black"/>
<path d="M28.1912 62.4349H81.759V64.4007H28.1912V62.4349Z" fill="white"/>
<path d="M81.8901 64.5322H28.0929V62.3043H81.8901V64.5322ZM28.3222 64.3029H81.6607V62.5664H28.3222V64.3029Z" fill="black"/>
<path d="M26.6185 64.4014H83.3316V66.9897H26.6185V64.4014Z" fill="white"/>
<path d="M83.4626 67.1206H26.5201V64.303H83.4626V67.1206ZM26.7495 66.8913H83.2332V64.5323H26.7495V66.8913Z" fill="black"/>
<path d="M29.1412 60.9277H80.8416V62.4348H29.1412V60.9277Z" fill="white"/>
<path d="M80.9399 62.5664H29.0103V60.83H80.9399V62.5664ZM29.2396 62.3043H80.7106V61.0265H29.2396V62.3043Z" fill="black"/>
<path d="M34.7437 60.9287H38.6425V73.1166H34.7437V60.9287Z" fill="white"/>
<path d="M38.7736 73.2474H34.6127V60.7974H38.7736V73.2474ZM34.8748 72.9853H38.5115V61.0595H34.8748V72.9853Z" fill="black"/>
<path d="M35.5955 60.9287H37.7578V73.1166H35.5955V60.9287Z" fill="white"/>
<path d="M37.9218 73.2474H35.4646V60.7974H37.8891V73.2474H37.9218ZM35.7267 72.9853H37.6597V61.0595H35.7267V72.9853Z" fill="black"/>
<path d="M52.9603 60.9287H56.8592V73.1166H52.9603V60.9287Z" fill="white"/>
<path d="M56.99 73.2474H52.8291V60.7974H56.99V73.2474ZM53.0912 72.9853H56.7279V61.0595H53.0912V72.9853Z" fill="black"/>
<path d="M53.8448 60.9287H56.0072V73.1166H53.8448V60.9287Z" fill="white"/>
<path d="M56.1711 73.2474H53.7466V60.7974H56.1711V73.2474ZM53.9759 72.9853H55.909V61.0595H53.9759V72.9853Z" fill="black"/>
<path d="M71.2748 60.9287H75.1736V73.1166H71.2748V60.9287Z" fill="white"/>
<path d="M75.3373 73.2474H71.1764V60.7974H75.3373V73.2474ZM71.4057 72.9853H75.0425V61.0595H71.4057V72.9853Z" fill="black"/>
<path d="M72.1593 60.9287H74.3217V73.1166H72.1593V60.9287Z" fill="white"/>
<path d="M74.4528 73.2474H72.0283V60.7974H74.4528V73.2474ZM72.2904 72.9853H74.2235V61.0595H72.2904V72.9853Z" fill="black"/>
<path d="M78.581 59.585H31.4675V59.8143H78.581V59.585Z" fill="black"/>
<path d="M37.8236 71.7079H35.563V71.4786H37.8236V71.7079ZM37.8236 70.1681H35.563V69.9387H37.8236V70.1681ZM37.8236 68.6609H35.563V68.4316H37.8236V68.6609ZM37.8236 67.1211H35.563V66.8917H37.8236V67.1211ZM37.8236 65.614H35.563V65.3846H37.8236V65.614ZM37.8236 64.0741H35.563V63.8447H37.8236V64.0741ZM37.8236 62.567H35.563V62.3376H37.8236V62.567Z" fill="black"/>
<path d="M55.9743 71.7079H53.8774V71.4786H55.9743V71.7079ZM55.9743 70.1681H53.8774V69.9387H55.9743V70.1681ZM55.9743 68.6609H53.8774V68.4316H55.9743V68.6609ZM55.9743 67.1211H53.8774V66.8917H55.9743V67.1211ZM55.9743 65.614H53.8774V65.3846H55.9743V65.614ZM55.9743 64.0741H53.8774V63.8447H55.9743V64.0741ZM55.9743 62.567H53.8774V62.3376H55.9743V62.567Z" fill="black"/>
<path d="M74.3545 71.7079H72.0939V71.4786H74.3545V71.7079ZM74.3545 70.1681H72.0939V69.9387H74.3545V70.1681ZM74.3545 68.6609H72.0939V68.4316H74.3545V68.6609ZM74.3545 67.1211H72.0939V66.8917H74.3545V67.1211ZM74.3545 65.614H72.0939V65.3846H74.3545V65.614ZM74.3545 64.0741H72.0939V63.8447H74.3545V64.0741ZM74.3545 62.567H72.0939V62.3376H74.3545V62.567Z" fill="black"/>
</svg>
