<svg width="368" height="169" viewBox="0 0 368 169" fill="none" xmlns="http://www.w3.org/2000/svg">
<path d="M43.9071 149.337C43.9072 149.064 43.8466 148.794 43.7289 148.542C43.6112 148.289 43.4387 148.06 43.2211 147.867C43.0035 147.674 42.7451 147.521 42.4607 147.416C42.1764 147.312 41.8716 147.258 41.5638 147.258H3.07804C2.45645 147.258 1.86034 147.477 1.42081 147.867C0.981288 148.257 0.734375 148.785 0.734375 149.337C0.734375 149.888 0.981288 150.417 1.42081 150.807C1.86034 151.197 2.45645 151.416 3.07804 151.416H41.5611C41.869 151.416 42.174 151.363 42.4586 151.258C42.7432 151.154 43.0019 151.001 43.2197 150.808C43.4376 150.615 43.6105 150.386 43.7284 150.133C43.8463 149.881 43.9071 149.61 43.9071 149.337Z" fill="#BEE4ED"/>
<path d="M330.765 119.016H354.995C355.616 119.016 356.212 119.235 356.652 119.624C357.091 120.014 357.338 120.543 357.338 121.094C357.338 121.367 357.278 121.637 357.16 121.89C357.042 122.142 356.869 122.371 356.652 122.564C356.434 122.757 356.176 122.91 355.892 123.015C355.607 123.119 355.303 123.173 354.995 123.173H330.765C330.457 123.173 330.153 123.119 329.868 123.015C329.584 122.91 329.326 122.757 329.108 122.564C328.891 122.371 328.718 122.142 328.6 121.89C328.482 121.637 328.422 121.367 328.422 121.094C328.422 120.543 328.669 120.014 329.108 119.624C329.548 119.235 330.144 119.016 330.765 119.016Z" fill="#BEE4ED"/>
<path d="M75.6739 50.9766H44.1374C41.5288 50.9766 39.4141 52.8524 39.4141 55.1665V92.9666C39.4141 95.2806 41.5288 97.1565 44.1374 97.1565H75.6739C78.2825 97.1565 80.3972 95.2806 80.3972 92.9666V55.1665C80.3972 52.8524 78.2825 50.9766 75.6739 50.9766Z" stroke="white" stroke-linecap="round" stroke-linejoin="round"/>
<path d="M75.6739 50.9766H44.1374C41.5288 50.9766 39.4141 52.8524 39.4141 55.1665V92.9666C39.4141 95.2806 41.5288 97.1565 44.1374 97.1565H75.6739C78.2825 97.1565 80.3972 95.2806 80.3972 92.9666V55.1665C80.3972 52.8524 78.2825 50.9766 75.6739 50.9766Z" stroke="white" stroke-linecap="round" stroke-linejoin="round"/>
<path d="M335.858 86.9062H288.973C286.365 86.9062 284.25 88.7821 284.25 91.0962V126.171C284.25 128.486 286.365 130.361 288.973 130.361H335.858C338.467 130.361 340.581 128.486 340.581 126.171V91.0962C340.581 88.7821 338.467 86.9062 335.858 86.9062Z" stroke="white" stroke-linecap="round" stroke-linejoin="round"/>
<path d="M335.858 86.9062H288.973C286.365 86.9062 284.25 88.7821 284.25 91.0962V126.171C284.25 128.486 286.365 130.361 288.973 130.361H335.858C338.467 130.361 340.581 128.486 340.581 126.171V91.0962C340.581 88.7821 338.467 86.9062 335.858 86.9062Z" stroke="white" stroke-linecap="round" stroke-linejoin="round"/>
<path d="M199.416 108.148H137.559C134.951 108.148 132.836 110.024 132.836 112.338V147.414C132.836 149.728 134.951 151.604 137.559 151.604H199.416C202.025 151.604 204.14 149.728 204.14 147.414V112.338C204.14 110.024 202.025 108.148 199.416 108.148Z" stroke="white" stroke-linecap="round" stroke-linejoin="round"/>
<path d="M199.416 108.148H137.559C134.951 108.148 132.836 110.024 132.836 112.338V147.414C132.836 149.728 134.951 151.604 137.559 151.604H199.416C202.025 151.604 204.14 149.728 204.14 147.414V112.338C204.14 110.024 202.025 108.148 199.416 108.148Z" stroke="white" stroke-linecap="round" stroke-linejoin="round"/>
<path d="M18.0314 114.573C18.0448 113.708 18.3461 112.867 18.8972 112.154C19.4483 111.441 20.2247 110.889 21.1287 110.566C22.0328 110.244 23.0241 110.166 23.9781 110.342C24.9321 110.518 25.8062 110.94 26.4904 111.555C27.1746 112.171 27.6383 112.952 27.8234 113.801C28.0085 114.649 27.9066 115.527 27.5306 116.325C27.1545 117.122 26.5211 117.803 25.7099 118.282C24.8988 118.761 23.9461 119.016 22.9717 119.016C21.6523 119.008 20.3906 118.535 19.4641 117.702C18.5376 116.869 18.0223 115.743 18.0314 114.573Z" stroke="white" stroke-linecap="round" stroke-linejoin="round"/>
<path d="M307.938 14.7745C307.946 14.2307 308.136 13.7012 308.483 13.2527C308.829 12.8042 309.318 12.4567 309.887 12.2538C310.456 12.0509 311.08 12.0017 311.68 12.1125C312.28 12.2232 312.83 12.4889 313.261 12.8761C313.691 13.2634 313.983 13.7549 314.1 14.2889C314.216 14.8229 314.152 15.3755 313.916 15.8773C313.679 16.3791 313.28 16.8076 312.77 17.109C312.26 17.4105 311.66 17.5713 311.047 17.5713C310.217 17.5659 309.423 17.2683 308.84 16.7439C308.257 16.2194 307.932 15.5111 307.938 14.7745Z" stroke="white" stroke-linecap="round" stroke-linejoin="round"/>
<path d="M115.852 132.667C115.86 132.123 116.05 131.593 116.396 131.144C116.743 130.696 117.232 130.348 117.801 130.145C118.37 129.942 118.994 129.892 119.595 130.003C120.195 130.114 120.745 130.379 121.176 130.767C121.607 131.154 121.899 131.646 122.015 132.18C122.132 132.714 122.068 133.267 121.831 133.769C121.595 134.271 121.196 134.7 120.686 135.001C120.175 135.303 119.575 135.464 118.962 135.464C118.132 135.458 117.337 135.161 116.754 134.636C116.171 134.112 115.846 133.403 115.852 132.667Z" stroke="white" stroke-linecap="round" stroke-linejoin="round"/>
<path d="M127.57 3.46203C127.579 2.91818 127.769 2.38872 128.115 1.94021C128.462 1.4917 128.951 1.14416 129.52 0.941275C130.089 0.738394 130.712 0.689225 131.313 0.799963C131.913 0.910701 132.463 1.1764 132.894 1.56365C133.324 1.95089 133.616 2.44241 133.732 2.97639C133.849 3.51038 133.785 4.063 133.548 4.56478C133.312 5.06656 132.913 5.49511 132.403 5.79653C131.892 6.09795 131.293 6.25879 130.68 6.25884C129.849 6.25365 129.055 5.95609 128.472 5.4316C127.889 4.90712 127.565 4.19866 127.57 3.46203Z" stroke="white" stroke-linecap="round" stroke-linejoin="round"/>
<path d="M357.336 143.102C357.35 142.21 357.661 141.342 358.229 140.606C358.798 139.87 359.599 139.3 360.532 138.967C361.466 138.635 362.489 138.554 363.473 138.735C364.458 138.917 365.36 139.353 366.066 139.988C366.773 140.623 367.252 141.429 367.443 142.305C367.634 143.181 367.529 144.087 367.141 144.91C366.753 145.733 366.099 146.436 365.262 146.93C364.425 147.425 363.442 147.689 362.436 147.689C361.074 147.68 359.772 147.192 358.815 146.332C357.859 145.472 357.327 144.31 357.336 143.102Z" stroke="white" stroke-linecap="round" stroke-linejoin="round"/>
<path d="M136.136 39.2422H111.68" stroke="white" stroke-width="2.956" stroke-linecap="round" stroke-linejoin="round"/>
<path d="M147.707 32.0391H109.967C108.79 32.0391 107.836 32.8853 107.836 33.9293V41.934C107.836 42.9779 108.79 43.8242 109.967 43.8242H147.707C148.883 43.8242 149.837 42.9779 149.837 41.934V33.9293C149.837 32.8853 148.883 32.0391 147.707 32.0391Z" fill="#FF7866"/>
<path d="M113.906 36.0781H141.241" stroke="white" stroke-width="0.904" stroke-miterlimit="10"/>
<path d="M113.906 39.2422H126.08" stroke="white" stroke-width="0.904" stroke-miterlimit="10"/>
<path d="M112.688 42.5391V46.9616L118.956 42.5391H112.688Z" fill="#FF7866"/>
<path d="M266.933 16.1641H229.193C228.017 16.1641 227.062 17.0103 227.062 18.0543V26.0582C227.062 27.1021 228.017 27.9484 229.193 27.9484H266.933C268.11 27.9484 269.064 27.1021 269.064 26.0582V18.0543C269.064 17.0103 268.11 16.1641 266.933 16.1641Z" fill="#FF7866"/>
<path d="M262.999 20.2031H235.664" stroke="white" stroke-width="0.904" stroke-miterlimit="10"/>
<path d="M263.001 23.3672H250.828" stroke="white" stroke-width="0.904" stroke-miterlimit="10"/>
<path d="M264.206 26.6641V31.0866L257.938 26.6641H264.206Z" fill="#FF7866"/>
<mask id="mask0_4505_17398" style="mask-type:luminance" maskUnits="userSpaceOnUse" x="22" y="13" width="311" height="154">
<path d="M332.225 13.125H22.9766V166.221H332.225V13.125Z" fill="white"/>
</mask>
<g mask="url(#mask0_4505_17398)">
<path d="M100.906 188.434C102.574 176.622 103.527 164.739 103.759 152.836C102.654 152.47 101.652 151.894 100.825 151.148C98.9041 149.253 99.171 143.016 99.171 143.016L100.483 141.125L92.0435 138.922L91.3344 142.43L85.673 142.84C85.6776 145.598 85.6804 148.769 85.6776 152.24L81.3125 154.213V159.315L86.575 160.481C86.575 160.481 86.3608 171.563 85.4533 177.861C85.084 180.411 84.2909 183.727 83.4738 186.773C83.977 190.359 84.3685 192.81 84.3685 192.81C84.3685 192.81 83.3981 200.918 83.3981 207.593C83.3981 214.269 84.3685 233.507 84.3685 233.507V235.35L93.4883 235.938L94.0894 235.848H95.0902C95.2278 234.839 95.1825 232.643 95.3441 231.483C98.7241 214.706 100.909 191.745 100.909 191.745C102.481 189.752 100.906 188.434 100.906 188.434Z" fill="#003C61"/>
<path d="M86.5672 160.479L81.3047 159.312V166.106C81.5512 172.322 82.6526 181.011 83.4623 186.771C84.2794 183.725 85.0752 180.409 85.4418 177.859C86.3567 171.561 86.5672 160.479 86.5672 160.479Z" fill="#00273D"/>
<path d="M100.831 151.148C101.658 151.894 102.659 152.47 103.764 152.836C103.798 150.248 103.776 148.146 103.73 146.587C103.761 144.779 103.761 143.082 103.717 141.544L102.446 141.635L100.489 141.125L99.1767 143.016C99.1767 143.016 98.9098 149.253 100.831 151.148Z" fill="#00273D"/>
<path d="M88.7835 145.266C89.1223 143.883 89.2516 143.119 89.1232 143.119L88.3533 143.099L87.0025 136.289L73.7649 138.51L78.2473 140.116L73.0688 144C73.0688 144 72.5342 149.067 70.0784 152.477C68.7628 154.304 65.1454 154.58 62.0719 154.443C62.0562 154.578 62.0295 154.717 62.0174 154.852C61.3767 161.672 59.1618 189.442 59.1618 189.445C59.1618 189.445 56.8121 198.075 55.6101 206.599C54.408 215.123 52.6797 236.255 52.6797 236.255H62.7865C62.7865 236.255 67.1258 221.588 70.5058 211.997C73.8859 202.407 75.2043 190.52 75.2043 190.52C82.221 174.174 85.722 165.041 85.722 165.041L90.3659 153.248L88.7835 145.266Z" fill="#003C61"/>
<path d="M70.0689 152.475C72.5248 149.064 73.0593 143.997 73.0593 143.997L78.2379 140.114L73.7555 138.508L67.614 139.538C67.614 139.538 66.9289 140.709 66.0352 142.53L65.6964 142.522C65.6964 142.649 65.6678 142.952 65.6152 143.405C63.87 146.923 62.6748 150.636 62.0625 154.441C65.136 154.578 68.7533 154.304 70.0689 152.475Z" fill="#00273D"/>
<path d="M56.0366 85.3203C53.6832 89.3513 46.3591 104.248 44.0703 114.558L63.0062 112.845C65.3928 106.482 67.8995 94.2185 71.0598 87.5299L56.0366 85.3203Z" fill="#286A9A"/>
<path d="M91.3674 142.525C80.2884 144.163 69.8353 141.341 65.0547 139.725L65.2984 142.614C65.3192 142.868 65.426 143.111 65.6049 143.31C65.7839 143.509 66.0265 143.656 66.3011 143.73C71.2608 145.075 94.7123 150.79 104.251 141.472C104.477 141.248 104.604 140.959 104.61 140.658C104.653 138.998 104.711 137.28 104.779 135.523C101.476 139.287 96.6796 141.791 91.3674 142.525Z" fill="#286A9A"/>
<path d="M105.508 101.692L101.99 89.9141L65.5461 91.6257L62.3359 103.164L64.0236 127.451L65.0568 139.727C69.8355 141.344 80.2904 144.167 91.3695 142.527C96.6823 141.793 101.479 139.289 104.782 135.526C105.298 122.056 106.361 111.178 105.508 101.692Z" fill="#286A9A"/>
<path d="M92.302 74.1484C92.5135 76.9272 91.7121 80.9583 85.3324 81.1098C75.5626 81.3465 74.8997 74.7275 74.8997 74.7275C66.3476 78.8871 54.9943 81.5807 55.1421 88.6084C55.1421 88.6084 55.4458 94.4158 59.9642 94.3412L82.8544 93.944L92.3316 93.5436C105.3 93.5436 105.3 87.221 105.3 87.221C104.837 81.1073 99.9438 78.9215 92.302 74.1484Z" fill="#286A9A"/>
<path d="M85.3257 81.1097C91.7053 80.955 92.5067 76.9239 92.2953 74.1484C90.5032 73.355 88.7643 72.4704 87.0872 71.499C85.6552 70.6481 82.8006 69.6325 82.3205 69.8397C81.8311 69.6489 79.992 71.7832 78.5988 72.6832C77.4155 73.4346 76.1796 74.1184 74.8984 74.7307C74.8984 74.7307 75.5558 81.3464 85.3257 81.1097Z" fill="#286A9A"/>
<path d="M78.2879 69.7766C78.1912 67.1963 77.9019 64.6245 77.4219 62.0781L88.3689 62.5933L89.318 72.2572C85.4279 72.5934 81.5274 71.7162 78.2879 69.7766Z" fill="#EFAD9C"/>
<path d="M89.3248 72.255L89.5658 74.6996C89.8816 80.7666 78.2689 78.1639 77.8516 74.3982C78.2305 72.881 78.3795 71.3257 78.2947 69.7734C81.5342 71.7134 85.4347 72.5909 89.3248 72.255Z" fill="#FFCFC0"/>
<path d="M90.2206 70.1956C90.2206 70.1956 91.7449 58.9141 90.4745 55.6955L88.2587 42.428C86.9893 39.2094 83.9194 36.3979 80.4618 36.9228L71.9679 38.2103C68.5067 38.7352 66.0203 42.6057 67.2898 45.8268L75.5142 64.5151C76.7827 67.7304 81.3103 71.4699 90.2206 70.1956Z" fill="#EFAD9C"/>
<path d="M90.3375 70.1878L90.5674 70.1706C95.565 69.413 98.1427 64.4909 97.2887 60.057L94.8883 39.91C94.781 39.364 94.4346 38.8778 93.9247 38.5576C93.4148 38.2373 92.7827 38.1091 92.1665 38.2008L75.2156 40.7708C73.9369 40.9649 71.506 42.2974 71.7248 43.4316L76.306 60.7056C77.4785 66.807 83.4547 71.2311 90.3375 70.1878Z" fill="#FFCFC0"/>
<path d="M94.5286 51.176C94.8287 52.3168 94.4188 53.3758 93.6137 53.542C92.8086 53.7083 91.914 52.9188 91.6139 51.7788C91.3139 50.6388 91.7238 49.579 92.5289 49.4127C93.334 49.2465 94.2286 50.036 94.5286 51.176Z" fill="#00273D"/>
<path d="M83.0131 53.3606C83.3768 54.4859 83.0279 55.5628 82.2339 55.7643C81.4399 55.9658 80.5 55.218 80.1362 54.0927C79.7725 52.9675 80.1215 51.8905 80.9155 51.689C81.7095 51.4876 82.6484 52.2353 83.0131 53.3606Z" fill="#00273D"/>
<path d="M69.6293 60.9432C71.1988 62.8891 73.5993 63.749 74.9934 62.8637C75.1303 62.7775 75.2544 62.6762 75.3627 62.5623C76.3487 61.5296 76.1013 59.492 74.6859 57.7377C73.1164 55.7918 70.716 54.9319 69.3218 55.8172C67.9277 56.7025 68.0635 59.0006 69.6293 60.9432Z" fill="#EFAD9C"/>
<path d="M79.6484 56.3186C79.6484 56.3186 79.9097 55.2335 81.9243 54.6643C83.3078 54.3779 84.7629 54.5871 85.9737 55.2466L83.2611 56.9018L79.6484 56.3186Z" fill="#FFCFC0"/>
<path d="M90 54.0999C90 54.0999 90.2613 53.0147 92.2758 52.4456C93.6594 52.1591 95.1145 52.3684 96.3252 53.0278L93.6127 54.683L90 54.0999Z" fill="#FFCFC0"/>
<path d="M60.2891 41.4455C60.2891 41.4455 68.1367 33.9166 77.1846 31.7316C86.2324 29.5466 96.2036 30.3082 96.2036 30.3082C96.2036 30.3082 98.436 34.1574 95.8712 41.8493C95.8712 41.8493 94.5501 43.0679 88.6329 44.1924C84.1178 44.9085 79.5355 45.2376 74.9494 45.1752C74.2625 54.0669 73.2635 56.9046 73.2635 56.9046L71.2204 57.3886C68.3096 54.7242 66.1469 51.4893 64.9072 47.9458L60.2891 41.4455Z" fill="#00273D"/>
<path d="M85.9766 63.2145C85.9766 63.2145 90.0333 63.1482 91.5622 62.5855C92.4896 62.2439 93.3886 61.8446 94.2526 61.3906C94.2526 61.3906 93.1779 64.2259 91.2806 64.7886C89.3834 65.3512 85.9766 63.2145 85.9766 63.2145Z" fill="#286A9A"/>
<path d="M45.9312 113.645C41.5208 130.919 64.423 154.454 64.423 154.454C64.423 154.454 67.7717 154.8 69.2397 153.616C70.152 152.839 70.7957 151.848 71.0954 150.758C71.0954 150.758 65.6898 143.908 63.3669 138.011C61.044 132.114 56.5597 123.306 56.5597 123.306C56.5597 123.306 60.4844 116.7 63.0465 105.902C63.0465 105.902 49.9585 97.8752 45.9312 113.645Z" fill="#FFCFC0"/>
<path d="M44.3683 113.3L47.2747 106.493C47.2747 106.493 52.8797 100.952 53.0404 100.857C53.201 100.763 64.1979 100.289 64.1979 100.289C64.8345 104.5 64.428 108.783 63.0069 112.84C61.8225 116.306 60.3917 119.703 58.723 123.008C59.601 125.65 59.9639 128.693 62.0643 133.754C65.0399 140.92 71.0992 150.757 71.0992 150.757C70.0901 155.794 63.8157 154.5 63.8157 154.5C63.8157 154.5 46.9737 137.59 44.3683 124.962C43.3772 121.125 43.3772 117.138 44.3683 113.3Z" fill="#286A9A"/>
<path d="M89.9429 59.7362C90.8864 59.5613 91.7357 59.1091 92.3535 58.4529C92.4521 58.3065 92.5154 58.1436 92.5394 57.9745C92.5633 57.8053 92.5475 57.6336 92.4929 57.4701C92.1236 56.344 90.5283 56.1917 89.8026 56.1819L88.5627 52.9297L87.7031 53.1877L89.1619 57.0139L89.5127 56.991C89.5312 56.991 91.3592 56.896 91.6214 57.6937C91.6426 57.753 91.6489 57.8156 91.64 57.8773C91.6311 57.939 91.6071 57.9982 91.5697 58.0508C91.0744 58.5102 90.4327 58.8245 89.7306 58.9517L89.9429 59.7362Z" fill="#EFAD9C"/>
<path d="M154.06 88.9779C156.192 87.6006 158.12 85.9901 159.798 84.1845C158.239 82.4523 153.689 77.4459 151.158 79.1182C149.942 79.9217 149.896 81.0838 148.455 81.5924C148.178 81.4024 147.808 81.1829 147.493 80.9765C147.171 81.2165 146.847 81.4376 146.503 81.6489C146.258 82.482 145.77 83.2431 145.087 83.8552C143.154 85.3589 141.058 86.5742 139.516 88.4415C141.656 89.3244 143.755 90.2998 145.877 91.2261C148.819 91.3618 151.719 90.5649 154.06 88.9779Z" fill="#FFCFC0"/>
<path d="M129.162 102.485C129.137 102.501 129.07 102.517 129.044 102.532C135.712 99.4927 142.143 96.0597 148.293 92.2564C145.892 89.5022 143.433 87.1468 141.075 84.3672C136.774 86.8397 130.774 90.6455 125.656 92.7396C132.752 95.0557 137.51 97.2899 129.162 102.485Z" fill="#286A9A"/>
<path d="M121.826 96.3231C114.823 91.057 108.205 85.4609 101.314 80.0859C99.341 81.298 97.3569 82.497 95.3867 83.7124C94.7607 83.438 94.1338 83.1669 93.4802 82.9466C93.4174 83.6354 93.3454 84.3201 93.2872 85.0105C92.7979 85.3546 92.2657 85.6478 91.7011 85.8843C90.6338 86.1439 70.4607 81.9983 79.7366 87.0309C89.0126 92.0635 104.387 101.275 115.218 105.345C115.518 105.458 115.806 105.555 116.101 105.662L121.825 96.3198L121.826 96.3231Z" fill="#286A9A"/>
<path d="M145.931 93.6725C144.529 92.9354 141.946 94.5685 140.874 93.0321C139.802 91.4957 139.999 87.6587 139.257 85.6719C132.552 88.915 125.611 91.5333 118.68 94.4604L119.725 105.052C130.678 103.092 136.974 98.7879 145.931 93.6725Z" fill="#286A9A"/>
<path d="M135.306 99.6853C130.88 101.806 126.323 103.704 121.657 105.369C119.067 106.172 116.225 106.035 113.749 104.987C108.186 102.608 102.787 99.9409 97.5781 96.9991L103.541 89.8125L119.131 94.2727L135.306 99.6853Z" fill="#286A9A"/>
<path d="M147.226 72.5938L161.4 87.2027L154.369 90.2092L142.336 77.9843L147.226 72.5938Z" fill="#00273D"/>
<path d="M147.921 74.5469L158.903 85.527L153.63 87.7128L144.25 78.4583L147.921 74.5469Z" fill="#286A9A"/>
<path d="M148.731 72.0234L147.227 72.5967L161.4 87.2057L162.378 86.0681L148.731 72.0234Z" fill="#00273D"/>
<path d="M160.076 82.471C158.577 80.8207 156.579 78.7717 154.968 77.1992C154.827 77.0269 154.644 76.8856 154.431 76.7861C154.219 76.6867 153.984 76.6318 153.744 76.6256C153.504 76.6194 153.266 76.6622 153.047 76.7505C152.829 76.8389 152.636 76.9705 152.484 77.1353C151.969 77.5549 151.501 78.017 151.084 78.5153C150.825 78.7698 150.683 79.1017 150.688 79.4448C150.692 79.7878 150.842 80.1168 151.107 80.3662C152.513 81.815 154.292 83.5897 155.658 85.0794C155.902 85.3438 156.242 85.5258 156.619 85.5952C156.996 85.6645 157.389 85.6169 157.732 85.4603C158.393 85.2359 159.032 84.962 159.641 84.6413C159.866 84.5535 160.063 84.418 160.215 84.2467C160.366 84.0754 160.468 83.8736 160.511 83.6591C160.554 83.4445 160.537 83.2239 160.461 83.0167C160.385 82.8095 160.253 82.6221 160.076 82.471Z" fill="#FFCFC0"/>
<path d="M146.026 80.6192C145.87 81.4467 145.658 82.265 145.389 83.0695C145.257 83.7072 145.246 84.3598 145.356 85.0007C145.387 85.2194 145.209 85.2816 145.178 85.3889C144.75 86.8475 146.425 86.3176 147.364 85.9917C147.505 86.1039 147.703 85.8852 147.724 85.8582C147.817 85.7402 149.386 84.8517 149.119 84.8271C148.168 84.7452 148.62 82.5864 148.658 81.8484C148.67 81.4269 148.608 81.0063 148.473 80.602C148.315 80.226 148.028 79.7257 147.401 79.724C147.244 79.702 147.085 79.7078 146.93 79.741C146.776 79.7742 146.631 79.8341 146.503 79.9174C146.376 80.0006 146.268 80.1055 146.186 80.2259C146.104 80.3464 146.05 80.48 146.026 80.6192Z" fill="#FFCFC0"/>
<path d="M89.3211 72.7109L92.8295 74.1417L94.2559 80.7451L86.6797 78.1686C86.6797 78.1686 90.0717 77.6355 89.3211 72.7109Z" fill="#F4EDED"/>
<path d="M78.1489 72.9766L73.625 74.997L81.6573 83.1147L86.6779 78.1755C86.6779 78.1755 79.88 78.8462 78.1489 72.9766Z" fill="#F4EDED"/>
<path d="M84.25 80.5535L88.424 83.0358L90.4081 79.4429L86.6708 78.1719L84.25 80.5535Z" fill="#FF7866"/>
<path d="M87.2363 81.4718L83.8203 114.472L92.4989 122.938L96.2842 113.385L89.0662 81.1172L87.2363 81.4718Z" fill="#FF7866"/>
<path d="M182.851 54.1284L179.999 56.3069C179.12 56.8573 178.146 57.2793 177.116 57.5566L176.631 57.9481C174.893 59.1766 174.813 57.8343 175.129 56.4125C175.018 56.2921 175.017 56.1668 175.233 55.9957C175.528 54.9032 175.987 53.9097 176.028 54.1661C176.17 55.071 177.851 53.8221 179.732 52.664C180.203 52.3564 180.729 52.1218 181.288 51.9704C181.608 51.8397 181.97 51.8159 182.308 51.9035C182.646 51.991 182.937 52.184 183.127 52.4468C183.318 52.7096 183.394 53.0245 183.343 53.3335C183.293 53.6425 183.118 53.9248 182.851 54.1284Z" fill="#E8988B"/>
<path d="M169.72 55.2431L170.17 52.4135C170.17 52.4135 180.359 47.8878 180.2 50.7403C180.127 52.0507 179.888 53.3283 179.906 54.307L181.025 54.542L180.903 55.6198C180.138 56.3007 179.491 57.0781 178.982 57.9268C177.863 60.1381 176.058 64.6482 176.058 64.6482L170.572 61.7589C169.023 60.0193 169.043 57.3765 169.72 55.2431Z" fill="#E8988B"/>
<path d="M197.402 68.7218C193.918 77.9345 196.756 86.8507 206.627 91.0718C216.499 95.2928 226.414 93.0054 231.172 84.2529C235.93 75.5005 231.064 67.2378 221.201 63.0175C211.338 58.7973 200.886 59.5107 197.402 68.7218Z" fill="#00273D"/>
<path d="M169.039 92.0258C170.395 95.2334 171.986 98.3593 173.8 101.383C178.944 109.737 185.091 109.827 191.506 104.054C187.742 98.7586 184.507 93.1511 178.906 89.3125L169.039 92.0258Z" fill="#E8988B"/>
<path d="M178.935 90.1989C180.31 85.3084 180.632 80.2317 179.884 75.2353C179.005 70.3402 177.692 66.1028 177.345 61.2225C176.202 60.709 175.372 60.1349 173.929 60.1652C172.486 60.1955 171.276 59.9867 170.171 61.0661C170.164 69.7588 168.725 82.1196 169.036 92.0359L178.933 90.2022L178.935 90.1989Z" fill="#E8988B"/>
<path d="M204.648 179.954L206.167 172.299C205.842 170.972 205.719 170.239 205.841 170.239L206.58 170.221L207.872 163.688L220.573 165.817L216.272 167.358L221.24 171.084C221.24 171.084 221.753 175.945 224.109 179.216C225.372 180.97 228.841 181.234 231.789 181.1C231.805 181.23 231.831 181.363 231.843 181.492C232.26 185.936 233.374 199.648 234.046 207.991L216.403 209.152C211.536 197.605 209.102 191.267 209.102 191.267L204.648 179.954Z" fill="#003C61"/>
<path d="M224.118 179.22C221.762 175.949 221.249 171.087 221.249 171.087L216.281 167.362L220.582 165.82L226.474 166.809C226.474 166.809 227.13 167.933 227.987 169.675L228.313 169.667C228.313 169.79 228.341 170.081 228.391 170.515C230.065 173.89 231.212 177.452 231.798 181.103C228.85 181.238 225.381 180.973 224.118 179.22Z" fill="#00273D"/>
<path d="M189.083 120.449L193.484 119.195L228.446 120.837L231.526 131.908L229.906 155.204L228.915 166.98L228.681 169.753C228.661 169.996 228.559 170.229 228.387 170.42C228.216 170.611 227.983 170.751 227.72 170.823C222.961 172.114 200.464 177.596 191.312 168.658C191.096 168.442 190.973 168.165 190.968 167.876C190.926 166.283 190.871 164.635 190.806 162.95C190.311 150.031 185.972 131.61 189.083 120.449Z" fill="#286A9A"/>
<path d="M222.165 105.859C221.242 105.457 220.334 105.047 219.457 104.621C219.457 104.621 218.825 110.971 209.453 110.745C203.332 110.596 202.563 106.732 202.765 104.062C201.898 104.456 201.079 104.838 200.296 105.214C193.936 108.271 190.429 110.942 190.297 116.605C190.297 116.605 190.297 122.671 202.738 122.671L211.826 123.051L233.786 123.432C238.125 123.507 238.411 117.936 238.411 117.936C238.539 111.917 229.866 109.211 222.165 105.859Z" fill="#286A9A"/>
<path d="M209.457 110.745C203.337 110.597 202.568 106.732 202.77 104.063C204.49 103.303 206.158 102.456 207.767 101.524C209.141 100.705 211.879 99.7341 212.34 99.9323C212.809 99.7497 214.574 101.797 215.911 102.66C217.046 103.381 218.231 104.038 219.46 104.626C219.46 104.626 218.83 110.975 209.457 110.745Z" fill="#E8988B"/>
<path d="M216.65 104.308C216.249 107.921 205.109 110.418 205.412 104.598L206.554 92.9836L217.056 92.4922C216.16 97.5117 215.889 101.77 216.65 104.308Z" fill="#E8988B"/>
<path d="M204.768 100.276C204.768 100.276 203.305 89.4523 204.524 86.3647L206.653 73.6394C207.872 70.5518 210.813 67.8541 214.131 68.3578L222.278 69.5928C225.602 70.0964 227.984 73.8097 226.766 76.8973L218.876 94.8264C217.66 97.914 213.315 101.501 204.768 100.276Z" fill="#DD7F72"/>
<path d="M204.659 100.267L204.439 100.251C199.644 99.5236 197.172 94.8014 197.991 90.5484L200.299 71.2204C200.402 70.697 200.735 70.231 201.224 69.9242C201.713 69.6173 202.319 69.4945 202.91 69.5825L219.172 72.0484C220.399 72.2343 222.73 73.5128 222.521 74.6004L218.126 91.1725C216.996 97.0233 211.262 101.268 204.659 100.267Z" fill="#E8988B"/>
<path d="M200.641 82.0336C200.354 83.1277 200.746 84.1441 201.519 84.3038C202.292 84.4635 203.149 83.7059 203.437 82.6118C203.725 81.5176 203.332 80.5013 202.559 80.3416C201.787 80.1819 200.929 80.9394 200.641 82.0336Z" fill="#00273D"/>
<path d="M211.693 84.1271C211.343 85.2074 211.679 86.2401 212.44 86.4334C213.202 86.6266 214.102 85.9092 214.452 84.8298C214.802 83.7504 214.467 82.7168 213.705 82.5236C212.943 82.3303 212.042 83.0502 211.693 84.1271Z" fill="#00273D"/>
<path d="M224.531 91.4076C223.028 93.2748 220.725 94.0996 219.385 93.2503C219.254 93.1675 219.135 93.0703 219.032 92.9612C218.085 91.9702 218.326 90.0128 219.678 88.3331C221.181 86.4667 223.484 85.6411 224.824 86.4904C226.164 87.3397 226.034 89.5427 224.531 91.4076Z" fill="#DD7F72"/>
<path d="M214.912 86.9727C214.912 86.9727 214.661 85.9318 212.729 85.3855C211.401 85.1112 210.006 85.3119 208.844 85.9441L211.445 87.5321L214.912 86.9727Z" fill="#E8988B"/>
<path d="M204.982 84.8403C204.982 84.8403 204.731 83.7986 202.798 83.2531C201.471 82.9782 200.076 83.1786 198.914 83.8109L201.516 85.3997L204.982 84.8403Z" fill="#E8988B"/>
<path d="M228.601 69.4245C226.439 64.9029 220.107 64.8497 213.066 63.8153C212.816 63.7785 212.571 63.7408 212.328 63.7031C206.165 64.2764 199.947 66.26 199.422 71.6472C199.398 71.8881 199.351 72.1267 199.281 72.3606C199.318 72.8192 199.348 73.087 199.348 73.087C199.348 73.087 200.615 74.2557 206.292 75.3351C210.623 76.0221 215.019 76.3383 219.419 76.2794C220.078 84.8091 221.036 87.5314 221.036 87.5314L222.996 87.9958C225.899 83.7575 230.764 73.9461 228.601 69.4245Z" fill="#00273D"/>
<path d="M247.253 141.959C251.484 158.532 229.513 181.107 229.513 181.107C229.513 181.107 226.301 181.434 224.897 180.303C224.022 179.558 223.404 178.607 223.117 177.561C223.117 177.561 228.303 170.989 230.531 165.332C232.759 159.676 237.061 151.225 237.061 151.225C234.204 145.914 232.114 140.304 230.838 134.529C230.838 134.529 243.39 126.83 247.253 141.959Z" fill="#E8988B"/>
<path d="M236.006 112.721C243.095 119.596 246.209 136.913 246.209 136.913C246.209 136.913 242.428 142.072 231.683 141.915C231.683 141.915 227.587 133.763 224.677 126.865C220.206 116.27 227.819 104.781 236.006 112.721Z" fill="#FF7866"/>
<path d="M197.191 104.267C199.11 107.199 200.321 110.453 200.748 113.822C201.403 119.309 195.881 126.346 195.881 126.346C187.358 119.521 179.989 111.643 174 102.953C174 102.953 174.196 96.623 183.556 92.5625C188.451 96.1297 193.011 100.044 197.191 104.267Z" fill="#FF7866"/>
<path d="M197.827 106.469C197.827 106.469 188.94 111.603 188.201 126.862C187.733 136.491 216.56 137.709 216.56 137.709L197.827 106.469Z" fill="#286A9A"/>
<path d="M200.294 105.224C198.967 104.926 197.708 104.427 196.571 103.75C195.728 106.624 194.404 109.369 192.645 111.896C189.69 116.179 198.507 121.078 198.507 121.078C198.507 121.078 200.982 113.363 200.898 113.253C200.815 113.144 200.294 105.224 200.294 105.224Z" fill="#286A9A"/>
<path d="M204.763 90.2477L204.967 89.4975C204.29 89.3795 203.673 89.0754 203.202 88.6285C203.167 88.5781 203.144 88.5213 203.135 88.4622C203.127 88.403 203.133 88.343 203.153 88.2862C203.363 87.6408 204.723 87.5852 205.175 87.613L205.513 87.6359L206.912 83.9644L206.088 83.7188L204.898 86.8383C204.202 86.8481 202.67 86.9939 202.313 88.0741C202.261 88.2312 202.245 88.3963 202.268 88.559C202.291 88.7217 202.352 88.8784 202.446 89.0192C203.041 89.6482 203.857 90.081 204.763 90.2477Z" fill="#DD7F72"/>
<path d="M204.737 94.9323C205.883 94.8756 207.004 94.6126 208.031 94.1592L207.637 93.4704C207.617 93.4802 205.462 94.4384 204.037 94.083C203.016 93.7241 202.146 93.095 201.544 92.2812L200.812 92.6998C201.53 93.6706 202.576 94.4141 203.801 94.8225C204.106 94.8968 204.421 94.9337 204.737 94.9323Z" fill="#DD7F72"/>
<path d="M169.836 54.4557C170.944 47.3092 171.922 44.1046 173.095 43.7434C174.268 43.3822 178.139 43.1062 179.604 43.5796C181.069 44.053 180.127 51.3951 180.127 51.3951L175.427 56.264L169.836 54.4557Z" fill="#E8988B"/>
<path d="M309.822 56.7661C308.472 67.3875 322.504 78.2292 299.326 78.7771C276.147 79.325 268.659 77.7075 272.177 69.2007C275.694 60.694 276.885 56.5639 276.304 52.9587C275.724 49.3535 273.055 40.0745 282.645 35.6413C292.236 31.2082 312.955 32.1189 309.822 56.7661Z" fill="#00273D"/>
<path d="M291.887 77.0795C290.675 77.0449 289.528 76.5849 288.699 75.8006C287.869 75.0162 287.425 73.9719 287.463 72.897L287.827 62.8047L296.967 63.0635L296.603 73.1566C296.584 73.689 296.447 74.2128 296.2 74.6982C295.952 75.1835 295.599 75.6208 295.161 75.9852C294.723 76.3495 294.209 76.6336 293.647 76.8214C293.085 77.0092 292.487 77.0969 291.887 77.0795Z" fill="#FFCFC0"/>
<path d="M312.99 227.347H313C313 227.347 312.583 201.988 312.077 194.371C311.571 186.754 309.3 183.806 309.3 183.806C309.3 183.806 308.811 159.673 307.751 146.319C307.437 142.362 305.481 140.197 302.891 139.098L301.313 127.822L286.555 123.524L285.398 123.188L286.28 127.476L288.73 139.392C287.654 139.689 286.996 139.921 286.996 139.921C286.996 139.921 286.626 157.507 298.133 185.143C300.28 199.446 303.234 213.644 306.984 227.684L307.508 227.654L307.61 228.111L313.077 228.432L312.99 227.347Z" fill="#E8988B"/>
<path d="M277.089 228.708H277.098C277.098 228.708 281.94 203.713 283.016 196.142C284.093 188.571 282.474 185.301 282.474 185.301C282.474 185.301 286.992 161.499 288.714 148.201C289.225 144.26 287.751 141.813 285.433 140.311L286.22 128.974L272.603 122.34L271.535 121.82L271.514 126.18L271.454 138.292C270.335 138.41 269.64 138.53 269.64 138.53C269.64 138.53 265.634 155.756 271.223 184.798C270.372 199.206 270.336 213.644 271.114 228.056L271.636 228.113L271.642 228.579L276.949 229.785L277.089 228.708Z" fill="#E8988B"/>
<path d="M311.822 146.936C307.365 136.862 310.005 122.798 299.795 114.301C299.378 113.909 298.919 113.554 298.423 113.242L298.177 110.954L293.729 111.19C291.388 110.726 288.986 110.554 286.592 110.681C280.967 110.89 277.755 111.599 276.095 112.123L274.652 112.199C274.652 112.199 274.293 112.81 273.747 113.901C268.152 121.888 267.311 130.04 266.784 139.059C266.23 148.522 261.141 195.247 261.141 195.247C261.141 195.247 271.32 202.02 287.588 200.548C303.856 199.076 310.553 196.327 318.632 197.308C318.632 197.31 316.989 158.619 311.822 146.936Z" fill="#FF7866"/>
<path d="M297.283 72.6719C296.027 71.924 294.581 71.4663 293.076 71.3403C291.57 71.2143 290.053 71.424 288.662 71.9504C285.307 73.4245 281.998 74.3058 279.414 75.4482C279.968 76.9298 280.304 78.5604 280.729 79.8757C281.439 82.1386 282.003 84.4354 282.42 86.7551L291.36 87.4709L308.666 88.9205C312.082 89.2063 312.63 85.3276 312.63 85.3276C313.2 79.9019 303.406 76.784 297.283 72.6719Z" fill="#FFCFC0"/>
<path d="M285.25 46.2109C291.474 46.2344 297.698 46.253 303.922 46.2666L300.464 60.2712C299.946 63.4374 297.302 67.6281 288.838 67.8697C288.838 67.8697 285.154 57.7225 285.673 54.5572L285.25 46.2109Z" fill="#EFAD9C"/>
<path d="M299.987 46.2661L299.131 56.9375C299.282 62.7465 295.282 67.748 288.733 67.8831L288.518 67.9036C286.227 67.9084 284.027 67.1087 282.399 65.6791C280.77 64.2495 279.846 62.3062 279.828 60.274L278.602 46.1875C285.73 46.2214 292.859 46.2476 299.987 46.2661Z" fill="#FFCFC0"/>
<path d="M281.276 52.1463C281.231 53.2446 281.822 54.1544 282.596 54.1798C283.371 54.2052 284.035 53.3355 284.082 52.238C284.128 51.1406 283.536 50.2291 282.761 50.2037C281.987 50.1783 281.323 51.048 281.276 52.1463Z" fill="#00273D"/>
<path d="M292.326 52.3222C292.218 53.4163 292.757 54.3516 293.526 54.4114C294.296 54.4712 295.012 53.6325 295.119 52.5384C295.226 51.4442 294.688 50.5081 293.919 50.4483C293.15 50.3885 292.434 51.2272 292.326 52.3222Z" fill="#00273D"/>
<path d="M305.931 56.0805C304.882 58.1214 302.844 59.295 301.379 58.7012C301.236 58.6428 301.102 58.5691 300.979 58.4817C299.861 57.6873 299.68 55.7709 300.626 53.9315C301.674 51.8906 303.713 50.7161 305.177 51.3107C306.641 51.9053 306.979 54.0387 305.931 56.0805Z" fill="#EFAD9C"/>
<path d="M296.347 54.3088C296.347 54.3088 295.83 53.3071 293.738 53.1409C292.327 53.1278 290.967 53.6089 289.953 54.4799L292.984 55.5651L296.347 54.3088Z" fill="#FFCFC0"/>
<path d="M285.775 54.1369C285.775 54.1369 285.258 53.1345 283.168 52.969C281.757 52.9557 280.397 53.4365 279.383 54.3072L282.414 55.3932L285.775 54.1369Z" fill="#FFCFC0"/>
<path d="M294.086 50.6984L295.803 50.5469L294.761 51.5166L294.086 50.6984Z" fill="#00273D"/>
<path d="M282.508 50.3516L280.781 50.3597L281.936 51.2279L282.508 50.3516Z" fill="#00273D"/>
<path d="M293.945 50.6205L294.79 50.0391L294.702 50.9088L295.802 51.288L294.911 51.8777L293.945 50.6205Z" fill="#00273D"/>
<path d="M282.496 50.4096L281.652 49.8281L281.739 50.6979L280.641 51.0771L281.681 51.471L282.496 50.4096Z" fill="#00273D"/>
<path d="M286.767 62.4891C286.171 62.4896 285.576 62.4579 284.984 62.3941L285.092 61.6758C286.14 61.7885 287.199 61.7885 288.246 61.6758C289.106 61.5466 289.9 61.1851 290.519 60.6406L291.123 61.132C290.379 61.8016 289.414 62.2441 288.367 62.3957C287.837 62.4615 287.302 62.4927 286.767 62.4891Z" fill="#EFAD9C"/>
<path d="M291.766 61.8394C291.31 61.6737 290.907 61.4113 290.593 61.0753C290.278 60.7394 290.061 60.34 289.961 59.9123L290.766 59.7969C290.844 60.1031 291.004 60.388 291.233 60.6274C291.462 60.8667 291.753 61.0533 292.081 61.1711L291.766 61.8394Z" fill="#EFAD9C"/>
<path d="M303.351 76.3048L286.943 86.841L281.448 74.3359C280.88 74.5112 280.301 74.6654 279.71 74.7987L277.52 80.869C276.626 83.3903 275.273 85.765 273.515 87.8991C271.255 90.6148 268.832 94.9587 272.914 99.6539C275.13 102.199 275.138 107.776 274.594 112.722C281.704 115.278 294.96 113.714 298.42 113.243L307.375 88.8376L303.351 76.3048Z" fill="#003C61"/>
<path d="M273.555 100.383C273.555 100.383 276.039 102.676 282.288 101.71C281.189 102.445 279.92 102.953 278.571 103.197C277.223 103.441 275.831 103.414 274.495 103.119L273.555 100.383Z" fill="#00273D"/>
<path d="M287.617 101.272C287.617 101.272 295.918 103.783 300.504 100.617L298.248 103.801C298.248 103.801 291.75 104.495 287.617 101.272Z" fill="#00273D"/>
<path d="M304.847 95.7174L302.862 88.8281C301.735 94.3587 302.088 99.9515 297.762 103.581C297.656 103.871 297.545 104.158 297.429 104.442C296.4 106.974 296.229 110.697 295.781 113.561C296.902 113.439 297.812 113.323 298.419 113.24L304.847 95.7174Z" fill="#00273D"/>
<path d="M302.947 58.5154C302.947 58.7054 302.884 58.8911 302.765 59.0491C302.646 59.207 302.477 59.3302 302.279 59.4029C302.081 59.4756 301.863 59.4946 301.653 59.4576C301.443 59.4205 301.25 59.329 301.098 59.1946C300.947 59.0603 300.844 58.8891 300.802 58.7028C300.76 58.5164 300.782 58.3233 300.864 58.1477C300.946 57.9722 301.084 57.8221 301.263 57.7166C301.441 57.611 301.65 57.5547 301.864 57.5547C302.151 57.5547 302.427 57.6559 302.63 57.8361C302.833 58.0162 302.947 58.2606 302.947 58.5154Z" fill="#286A9A"/>
<path d="M303.509 131.078C303.525 131.242 303.535 131.399 303.551 131.56C302.24 133.328 301.218 135.253 300.516 137.275C300.844 137.394 300.907 137.647 301.39 137.391C301.985 136.905 302.471 136.324 302.823 135.678C302.697 137.116 301.715 140.137 302.244 141.315C302.575 141.884 303.139 142.321 303.82 142.535C304.502 142.749 305.249 142.724 305.911 142.466C307.153 141.933 307.861 138.871 307.98 137.175C308.099 135.479 307.841 134.855 307.466 132.28C307.458 132.236 307.453 132.185 307.446 132.139C307.505 131.796 307.562 131.458 307.619 131.116L303.509 131.078Z" fill="#FFCFC0"/>
<path d="M319.583 102.659C319.167 98.9017 316.962 91.3466 315.486 89.0469C314.916 89.2664 314.932 89.8577 314.346 89.965C313.904 90.0131 313.455 89.9912 313.021 89.9002C310.78 90.5898 308.411 89.8577 306.148 90.4686C308.081 95.4185 310.084 100.343 312.224 105.227L319.909 105.324C319.894 105.263 319.589 102.722 319.583 102.659Z" fill="#FFCFC0"/>
<path d="M319.917 105.322L313.462 101.391C311.712 104.871 310.202 108.441 308.938 112.083C306.786 118.175 305.056 124.378 303.758 130.658L307.793 131.622C312.361 122.097 315.473 115.29 319.917 105.322Z" fill="#FFCFC0"/>
<path d="M307.665 132.627C306.297 132.292 304.696 131.897 303.326 131.556C303.238 131.537 303.155 131.502 303.082 131.454C303.009 131.407 302.948 131.346 302.902 131.278C302.855 131.209 302.825 131.132 302.812 131.053C302.799 130.973 302.804 130.892 302.826 130.814C302.847 130.64 302.901 130.47 302.985 130.311C303.011 130.234 303.053 130.162 303.11 130.1C303.167 130.037 303.238 129.986 303.318 129.947C303.398 129.909 303.485 129.886 303.576 129.878C303.666 129.87 303.757 129.878 303.844 129.902C305.212 130.237 306.812 130.632 308.183 130.973C308.27 130.992 308.352 131.027 308.425 131.074C308.497 131.122 308.558 131.182 308.604 131.25C308.651 131.318 308.681 131.394 308.695 131.473C308.708 131.552 308.703 131.633 308.682 131.71C308.662 131.885 308.608 132.055 308.524 132.214C308.498 132.291 308.456 132.364 308.399 132.426C308.342 132.489 308.272 132.541 308.192 132.58C308.112 132.618 308.024 132.642 307.934 132.65C307.843 132.658 307.752 132.65 307.665 132.627Z" fill="#00273D"/>
<path d="M243.479 49.3052C243.386 49.1676 243.294 49.0284 243.196 48.8916C243.468 46.7888 243.404 44.6623 243.004 42.5756C242.65 42.6018 242.466 42.4004 242.165 42.8213C241.88 43.4925 241.74 44.2056 241.755 44.9228C241.136 43.5887 240.482 40.5003 239.409 39.6592C238.824 39.2829 238.099 39.1187 237.382 39.2001C236.665 39.2815 236.01 39.6024 235.551 40.0974C234.713 41.0687 235.635 44.0858 236.391 45.6484C237.146 47.2111 237.693 47.6623 239.336 49.8113L239.428 49.9301C239.55 50.2577 239.671 50.5853 239.798 50.9129L243.479 49.3052Z" fill="#FFCFC0"/>
<path d="M256.448 78.1295C259.881 80.362 267.697 83.9442 270.612 84.5044C270.808 83.9811 270.303 83.5937 270.601 83.1384C270.9 82.683 271.175 82.6232 271.54 82.3055C272.455 80.3653 274.651 79.2875 275.648 77.385C270.201 75.3597 264.729 73.3982 259.199 71.5547L253.992 76.5677C254.053 76.5988 256.39 78.0918 256.448 78.1295Z" fill="#FFCFC0"/>
<path d="M253.99 76.5727L261.6 74.9347C259.844 71.4574 257.853 68.0776 255.637 64.8137C251.956 59.3278 247.901 54.0467 243.494 49L239.992 51.0229C244.943 60.3888 248.583 66.9857 253.99 76.5727Z" fill="#FFCFC0"/>
<path d="M239.231 50.256C240.425 49.5755 241.825 48.7819 243.022 48.1062C243.097 48.0608 243.181 48.029 243.27 48.0127C243.358 47.9964 243.45 47.9958 243.539 48.011C243.628 48.0263 243.712 48.057 243.788 48.1014C243.863 48.1459 243.928 48.2032 243.978 48.27C244.111 48.3999 244.218 48.5486 244.295 48.7098C244.343 48.7783 244.374 48.8544 244.388 48.9339C244.402 49.0133 244.398 49.0944 244.377 49.1724C244.355 49.2505 244.316 49.324 244.263 49.3887C244.209 49.4534 244.141 49.508 244.063 49.5493C242.87 50.2298 241.47 51.0234 240.273 51.6991C240.198 51.7445 240.114 51.7762 240.025 51.7926C239.936 51.8089 239.845 51.8095 239.756 51.7942C239.667 51.779 239.583 51.7483 239.507 51.7038C239.432 51.6594 239.367 51.6021 239.317 51.5353C239.184 51.4054 239.076 51.2564 238.999 51.0947C238.952 51.0262 238.921 50.9501 238.907 50.8708C238.893 50.7915 238.897 50.7105 238.918 50.6325C238.94 50.5545 238.978 50.4811 239.032 50.4165C239.086 50.3519 239.153 50.2973 239.231 50.256Z" fill="#00273D"/>
<path d="M285.869 58.0927C285.653 58.0468 283.769 57.6177 284.033 56.5514C284.218 55.8077 285.147 55.5956 285.682 55.5342L286.188 53.0625L287.05 53.2009L286.418 56.2827H286.057C285.724 56.2868 284.967 56.4015 284.889 56.7143C284.843 56.9011 285.5 57.2106 286.071 57.3327L285.869 58.0927Z" fill="#EFAD9C"/>
<path d="M302.575 51.7447C300.495 53.6177 300.246 54.8806 300.246 54.8806C300.246 54.8806 300.43 48.4532 295.615 47.6187C290.799 46.7841 286.624 49.2386 280.399 46.269C278.733 48.6746 277.981 51.4911 278.255 54.304C278.67 59.1163 276.305 44.5762 276.305 44.5762C276.305 44.5762 280.247 42.1094 281.077 42.1094H297.841L306.548 42.9931L306.307 45.165L302.575 51.7447Z" fill="#00273D"/>
<path d="M302.464 75.3538C301.213 74.6115 299.887 73.9751 298.503 73.453C294.89 78.2849 286.575 85.3601 286.265 72.9141L286.182 72.9313C284.275 73.5488 282.279 73.8927 280.336 74.3989L279.828 80.8606L284.129 89.9939L293.838 89.6459L306.753 79.4389C305.525 77.9211 304.083 76.5484 302.464 75.3538Z" fill="#003C61"/>
<path d="M298.531 73.4531C298.531 73.4531 298.555 73.4531 298.555 73.4613C298.555 73.4965 298.555 73.6038 298.539 73.5948C303.304 76.0558 306.756 77.8723 309.569 82.6855C311.138 85.3734 312.964 90.7115 314.297 93.9465C312.477 95.071 310.423 95.8625 308.254 96.2749C308.18 96.1577 308.115 96.0595 308.039 95.9473C306.135 92.9935 304.267 90.0178 302.437 87.0204C301.158 84.4864 299.88 81.9525 298.604 79.4186C298.579 77.4295 298.555 75.4411 298.531 73.4531Z" fill="#003C61"/>
<path d="M298.539 73.5944C298.565 73.6034 298.539 73.497 298.57 73.4609C300.485 74.0015 302.925 74.5215 304.74 75.1243C308.399 76.3818 311.362 78.8544 313 82.0177C314.508 85.2289 315.21 87.703 316.681 90.707C316.797 90.9437 316.845 91.1002 316.968 91.3409C316.272 92.3514 315.366 93.2355 314.298 93.9461C312.966 90.7128 311.143 85.3738 309.57 82.6859C306.756 77.872 303.306 76.0555 298.539 73.5944Z" fill="#00273D"/>
<path d="M283.454 73.6721C275.356 75.7547 272.805 75.3714 264.813 72.9219C264.267 75.9424 262.646 78.7288 260.188 80.8742C260.187 80.8742 264.55 83.3557 270.128 85.9617C272.565 85.1981 274.825 84.0481 276.799 82.5678C276.009 84.3413 274.991 86.0281 273.766 87.5947C275.134 88.1828 276.536 88.7511 277.92 89.2712C280.09 87.1384 281.704 84.6086 282.649 81.8611C283.509 79.2028 283.783 76.4222 283.454 73.6721Z" fill="#003C61"/>
<path d="M270.133 85.9642C271.302 86.5104 272.523 87.0616 273.77 87.5972C274.996 86.0306 276.014 84.3438 276.803 82.5703C274.83 84.0506 272.57 85.2006 270.133 85.9642Z" fill="#00273D"/>
<path d="M303.693 48.9707C303.693 48.9707 301.555 39.1429 291.989 38.0881C282.423 37.0332 278.555 41.0192 278.555 41.0192C278.555 41.0192 282.607 34.8867 293.831 36.645C303.717 38.1937 303.693 48.9707 303.693 48.9707Z" fill="#286A9A"/>
</g>
<path d="M328.248 162H19V168.158H328.248V162Z" fill="#69A8B7"/>
<path d="M216.406 126.672H158.017C157.666 126.673 157.32 126.742 157.003 126.874C156.686 127.006 156.405 127.198 156.18 127.437C155.809 127.821 155.604 128.309 155.602 128.815V158.462C155.602 158.746 155.729 159.019 155.955 159.219C156.181 159.42 156.488 159.533 156.808 159.534H216.412C216.783 159.533 217.15 159.455 217.482 159.308C217.814 159.16 218.104 158.946 218.327 158.683C218.65 158.313 218.826 157.858 218.828 157.39V128.815C218.828 128.533 218.765 128.254 218.643 127.994C218.522 127.733 218.343 127.497 218.118 127.298C217.893 127.099 217.626 126.941 217.332 126.834C217.039 126.726 216.724 126.671 216.406 126.672Z" fill="#003C61"/>
<path d="M153.085 159.531H221.335C221.569 159.531 221.794 159.614 221.959 159.761C222.125 159.907 222.218 160.107 222.218 160.314V161.932C222.218 162.035 222.195 162.136 222.151 162.231C222.106 162.326 222.041 162.413 221.959 162.485C221.878 162.558 221.78 162.616 221.673 162.655C221.566 162.694 221.451 162.715 221.335 162.715H153.085C152.969 162.715 152.854 162.694 152.747 162.655C152.64 162.616 152.543 162.558 152.461 162.485C152.379 162.413 152.314 162.326 152.27 162.231C152.226 162.136 152.203 162.034 152.203 161.932V160.313C152.203 160.106 152.296 159.907 152.461 159.76C152.627 159.614 152.851 159.531 153.085 159.531Z" fill="#00273D"/>
<path d="M171.199 157.977H163.083C162.563 157.977 162.141 158.351 162.141 158.813V160.14C162.141 160.602 162.563 160.976 163.083 160.976H171.199C171.719 160.976 172.141 160.602 172.141 160.14V158.813C172.141 158.351 171.719 157.977 171.199 157.977Z" fill="#00273D"/>
<path d="M171.25 161.366H163.027C162.676 161.366 162.34 161.242 162.091 161.022C161.843 160.801 161.704 160.503 161.703 160.192V158.767C161.703 158.456 161.843 158.158 162.091 157.937C162.339 157.717 162.676 157.594 163.027 157.594H171.25C171.601 157.594 171.938 157.717 172.186 157.937C172.435 158.158 172.574 158.456 172.574 158.767V160.192C172.574 160.503 172.434 160.801 172.186 161.022C171.938 161.242 171.601 161.366 171.25 161.366ZM163.027 158.365C162.907 158.365 162.792 158.408 162.707 158.483C162.622 158.558 162.574 158.661 162.574 158.767V160.192C162.574 160.298 162.622 160.4 162.707 160.476C162.792 160.551 162.907 160.593 163.027 160.594H171.25C171.371 160.593 171.486 160.551 171.571 160.476C171.656 160.4 171.704 160.298 171.704 160.192V158.767C171.704 158.661 171.656 158.558 171.571 158.483C171.486 158.408 171.371 158.365 171.25 158.365H163.027Z" fill="#003C61"/>
<path d="M211.347 157.977H203.232C202.711 157.977 202.289 158.351 202.289 158.813V160.14C202.289 160.602 202.711 160.976 203.232 160.976H211.347C211.868 160.976 212.29 160.602 212.29 160.14V158.813C212.29 158.351 211.868 157.977 211.347 157.977Z" fill="#00273D"/>
<path d="M211.399 161.366H203.175C202.824 161.365 202.488 161.241 202.24 161.021C201.992 160.801 201.852 160.503 201.852 160.192V158.767C201.852 158.456 201.991 158.158 202.239 157.938C202.487 157.718 202.824 157.594 203.175 157.594H211.399C211.75 157.594 212.086 157.718 212.334 157.938C212.582 158.158 212.722 158.456 212.722 158.767V160.192C212.721 160.503 212.582 160.801 212.334 161.021C212.086 161.241 211.75 161.365 211.399 161.366ZM203.175 158.365C203.054 158.365 202.939 158.408 202.854 158.483C202.769 158.559 202.722 158.661 202.721 158.767V160.192C202.722 160.298 202.769 160.4 202.854 160.476C202.939 160.551 203.054 160.593 203.175 160.594H211.399C211.519 160.593 211.634 160.551 211.719 160.476C211.804 160.4 211.852 160.298 211.852 160.192V158.767C211.852 158.661 211.804 158.559 211.719 158.483C211.634 158.408 211.519 158.365 211.399 158.365H203.175Z" fill="#003C61"/>
</svg>
