<svg width="72" height="18" viewBox="0 0 72 18" fill="none" xmlns="http://www.w3.org/2000/svg">
<path d="M0 6.31282C0.175174 6.19642 0.306555 6.10185 0.394143 6.0291C0.96346 5.5635 1.3503 5.14883 1.55467 4.78509C1.77364 4.95968 1.99991 5.10518 2.23347 5.22158C2.58382 5.39618 2.89768 5.48348 3.17504 5.48348C3.39401 5.48348 3.58378 5.43256 3.74435 5.33071C3.39401 6.45105 2.85388 7.01122 2.12399 7.01122C1.97801 7.01122 1.79554 6.97484 1.57657 6.90209C1.3576 6.82934 1.19703 6.79297 1.09484 6.79297C0.905068 6.79297 0.740842 6.86208 0.602162 7.0003C0.463483 7.13853 0.372246 7.30221 0.328452 7.49136C0.474431 7.38951 0.645956 7.32404 0.843027 7.29494C1.0401 7.26584 1.27731 7.25129 1.55467 7.25129C2.00721 7.25129 2.37215 7.3495 2.64951 7.54592C2.92687 7.74235 3.06555 8.08791 3.06555 8.5826V13.0349C3.06555 13.2822 2.99256 13.4932 2.84659 13.6678C2.62762 13.886 2.45244 14.0679 2.32106 14.2134C2.99256 14.9263 3.53634 15.3774 3.95237 15.5665C4.36841 15.7557 4.87569 15.8503 5.4742 15.8503C6.2041 15.8503 6.75152 15.7193 7.11646 15.4574C7.33543 15.2974 7.48871 15.0064 7.5763 14.5844C7.16756 14.5844 6.79896 14.7336 6.47051 15.0318C6.14206 15.3301 5.92674 15.4792 5.82455 15.4792C5.64938 15.4792 5.40851 15.3774 5.10196 15.1737C4.7954 14.97 4.64212 14.7736 4.64212 14.5844C4.64212 14.2789 4.81365 14.0315 5.1567 13.8424C5.49975 13.6532 5.90484 13.5587 6.37197 13.5587C6.8829 13.5587 7.29894 13.6969 7.62009 13.9733C7.94124 14.2498 8.10182 14.6208 8.10182 15.0864C8.10182 15.7411 7.83176 16.3159 7.29164 16.8105C6.69313 17.3634 5.92674 17.6399 4.99247 17.6399C3.91223 17.6399 2.85388 17.2179 1.81744 16.3741C0.970759 15.6902 0.54742 15.1955 0.54742 14.89C1.02915 14.6135 1.4014 14.3734 1.66416 14.1697C2.16049 13.7915 2.40865 13.304 2.40865 12.7075V9.78296C2.16049 9.36102 1.76634 9.15005 1.22622 9.15005C0.948862 9.15005 0.540121 9.30282 0 9.60837V6.31282Z" fill="white"/>
<path d="M7.47886 4.77963C7.77081 4.95423 8.07372 5.12883 8.38757 5.30343C8.70143 5.47802 8.95324 5.59442 9.14301 5.65262C9.34738 5.56532 9.53351 5.47802 9.70138 5.39072C9.86926 5.30343 10.143 5.09973 10.5225 4.77963C10.7269 4.93968 10.9604 5.11064 11.2232 5.29251C11.486 5.47439 11.756 5.56532 12.0334 5.56532C12.2378 5.56532 12.464 5.49985 12.7122 5.3689C12.7122 5.8636 12.5516 6.27827 12.2305 6.61291C11.9093 6.94756 11.4933 7.11488 10.9823 7.11488C10.559 6.91119 10.205 6.74022 9.92035 6.602C9.63569 6.46378 9.43497 6.39467 9.31819 6.39467C9.2598 6.39467 9.02623 6.57654 8.61749 6.94029C8.41312 7.12943 8.25254 7.22401 8.13576 7.22401C7.72702 6.99121 7.42046 6.82389 7.21609 6.72204C6.83655 6.51834 6.4716 6.41649 6.12125 6.41649C5.93148 6.41649 5.7928 6.46014 5.70521 6.54744C5.89499 6.59109 6.12125 6.67111 6.38402 6.78751C6.45701 6.81661 6.55919 6.86754 6.69057 6.94029C6.69057 6.99848 6.58839 7.12943 6.38402 7.33313C6.35482 7.36223 6.30373 7.41316 6.23074 7.4859C6.58109 7.4859 6.87304 7.6023 7.10661 7.8351C7.2088 7.9515 7.31828 8.0679 7.43506 8.1843C7.71242 7.96605 7.93869 7.806 8.11386 7.70415C8.65399 7.36951 9.10652 7.20218 9.47147 7.20218C9.73423 7.20218 10.07 7.26766 10.4787 7.39861C11.0626 7.58775 11.6538 7.74053 12.2524 7.85693V12.5711C11.7122 13.0221 11.3765 13.2477 11.2451 13.2477C11.1721 13.2186 11.1356 13.1895 11.1356 13.1604C10.5663 12.7239 10.0955 12.3528 9.72328 12.0473C9.35103 11.7417 9.16491 11.3998 9.16491 11.0215C9.16491 10.6578 9.57365 10.3595 10.3911 10.1267C10.9167 9.96666 11.3181 9.74113 11.5955 9.45014C11.2743 9.30464 10.8656 9.18096 10.3692 9.07911C9.87291 8.97727 9.46417 8.92634 9.14301 8.92634C8.36933 8.92634 7.873 9.11549 7.65403 9.49379V12.5274C7.56644 12.7311 7.43506 12.9021 7.25989 13.0403C7.08471 13.1785 6.85115 13.2477 6.55919 13.2477C6.09206 13.2477 5.73441 13.1422 5.48625 12.9312C5.23808 12.7202 5.05561 12.4474 4.93883 12.1128V10.7596C5.18699 10.8469 5.42785 10.8906 5.66142 10.8906C6.05556 10.8906 6.39861 10.7924 6.69057 10.5959C6.98253 10.3995 7.12851 10.2067 7.12851 10.0176C7.12851 9.77023 7.07741 9.61746 6.97523 9.55926L6.77816 9.49379C6.69057 9.49379 6.54459 9.62473 6.34022 9.88663C6.23804 10.0176 6.14315 10.0831 6.05556 10.0831C5.71981 10.0831 5.4242 9.96302 5.16874 9.72295C4.91328 9.48287 4.78555 9.20279 4.78555 8.88269C4.78555 8.40255 4.92423 8.06062 5.20159 7.85693C5.33297 7.75508 5.61763 7.63868 6.05556 7.50773C5.74901 7.33313 5.44245 7.24583 5.1359 7.24583L5.114 6.22007C5.27458 6.04547 5.59208 5.82722 6.06651 5.56532C6.54094 5.30343 7.01172 5.04153 7.47886 4.77963ZM11.6174 9.97393C11.3108 10.0903 11.1575 10.2358 11.1575 10.4104C11.1575 10.6869 11.3108 10.8251 11.6174 10.8251V9.97393Z" fill="white"/>
<path d="M16.277 7.39861C16.3938 7.32586 16.5726 7.27493 16.8135 7.24583C17.0543 7.21673 17.3061 7.20218 17.5689 7.20218C17.9339 7.20218 18.1747 7.21673 18.2915 7.24583C18.8316 7.34768 19.3571 7.60594 19.8681 8.02061C20.379 8.43528 20.6345 8.80994 20.6345 9.14459C20.5177 9.37739 20.4228 9.55926 20.3498 9.69021C20.1016 10.1704 19.9411 10.4905 19.8681 10.6505C20.1746 10.8396 20.4958 10.9706 20.8315 11.0433C21.1673 11.1161 21.5322 11.1525 21.9264 11.1525C22.4373 11.1525 22.8606 11.0288 23.1964 10.7814C23.5321 10.5341 23.7 10.2067 23.7 9.79933C23.7 9.56654 23.5942 9.39194 23.3825 9.27554C23.1708 9.15914 22.8533 9.10094 22.43 9.10094C22.0505 9.10094 21.5979 9.20279 21.0724 9.40649V6.35102C21.3498 6.13277 21.5614 5.95817 21.7074 5.82722C22.1745 5.41982 22.4884 5.0779 22.649 4.80146C22.8679 4.97605 23.0942 5.12155 23.3278 5.23795C23.6781 5.41255 23.992 5.49985 24.2693 5.49985C24.4737 5.49985 24.6562 5.44892 24.8168 5.34707C24.4956 6.46741 23.9628 7.02758 23.2183 7.02758C23.0723 7.02758 22.8898 6.99121 22.6709 6.91846C22.4519 6.84571 22.284 6.80934 22.1672 6.80934C21.9775 6.80934 21.8169 6.87845 21.6855 7.01667C21.5541 7.1549 21.4665 7.31858 21.4227 7.50773C21.5103 7.44953 21.7585 7.38406 22.1672 7.31131C22.2256 7.31131 22.3205 7.29676 22.4519 7.26766C23.138 7.26766 23.6635 7.50045 24.0285 7.96605C24.3496 8.37345 24.5102 8.92634 24.5102 9.62473C24.5102 10.4977 24.2255 11.2834 23.6562 11.9818C22.9701 12.8112 22.0505 13.2258 20.8972 13.2258C20.5031 13.2258 20.0505 13.1349 19.5396 12.953C19.0287 12.7711 18.6783 12.5711 18.4886 12.3528C18.6783 11.9018 18.8535 11.5089 19.0141 11.1743C19.2623 10.6651 19.3936 10.3959 19.4082 10.3668C19.2623 10.0467 19.1163 9.81388 18.9703 9.66838C18.4886 9.20279 17.7952 8.96999 16.8901 8.96999C16.131 8.96999 15.5763 9.13004 15.2259 9.45014C14.934 9.72658 14.788 10.1194 14.788 10.6287C14.788 10.8906 14.9267 11.1379 15.2041 11.3707C15.4814 11.6035 15.7734 11.7199 16.0799 11.7199C16.6054 11.7199 16.9631 11.6472 17.1529 11.5017C17.2697 11.4144 17.328 11.3052 17.328 11.1743C17.3134 10.9851 17.2405 10.8906 17.1091 10.8906C17.0653 10.8906 16.8609 10.9997 16.496 11.2179C16.3208 11.3198 16.1821 11.3707 16.0799 11.3707C15.4814 11.3707 15.1822 11.0506 15.1822 10.4104C15.1822 10.1922 15.2953 9.97029 15.5216 9.74477C15.7478 9.51925 16.0434 9.40649 16.4084 9.40649C16.8609 9.40649 17.204 9.58472 17.4375 9.94119C17.6711 10.2977 17.7879 10.7087 17.7879 11.1743C17.7879 11.6835 17.6054 12.1564 17.2405 12.5929C16.8755 13.0294 16.4303 13.2477 15.9047 13.2477C15.5398 13.2477 15.1603 13.0003 14.7661 12.5056C14.3136 11.9382 14.0873 11.3198 14.0873 10.6505C14.0873 9.95211 14.2114 9.34829 14.4596 8.83904C14.6639 8.43165 14.9267 8.097 15.2478 7.8351C14.9997 7.44226 14.8464 7.21673 14.788 7.15853C14.642 7.01303 14.4523 6.88936 14.2187 6.78751C14.6712 6.46741 15.0143 6.22007 15.2478 6.04547C15.9923 5.47802 16.4376 5.06335 16.5836 4.80146C16.8025 4.97605 17.0288 5.12155 17.2624 5.23795C17.6127 5.41255 17.9266 5.49985 18.2039 5.49985C18.4229 5.49985 18.6127 5.44892 18.7732 5.34707C18.6127 5.92907 18.4083 6.35465 18.1601 6.62383C17.912 6.893 17.5835 7.02758 17.1748 7.02758C16.985 7.02758 16.704 6.98757 16.3317 6.90755C15.9595 6.82752 15.7223 6.78751 15.6201 6.78751L15.5106 6.83116C15.5106 6.88936 15.6347 6.99848 15.8829 7.15853C15.9558 7.20218 16.0872 7.28221 16.277 7.39861Z" fill="white"/>
<path d="M19.4148 14.268C19.6484 14.268 19.8564 14.3662 20.0389 14.5626C20.2213 14.759 20.3126 14.9955 20.3126 15.2719C20.3126 15.4174 20.2177 15.672 20.0279 16.0358C19.9111 16.2395 19.8017 16.385 19.6995 16.4723C19.6995 16.5887 19.7579 16.6469 19.8746 16.6469C20.006 16.6323 20.0863 16.6105 20.1155 16.5814C20.2031 16.4941 20.2688 16.4213 20.3126 16.3631C20.4148 16.2467 20.5096 16.1885 20.5972 16.1885C20.6702 16.2322 20.7505 16.3049 20.8381 16.4068C20.9257 16.5086 20.9914 16.5596 21.0352 16.5596C21.152 16.5596 21.2687 16.5341 21.3855 16.4832C21.5023 16.4323 21.5607 16.3486 21.5607 16.2322L21.495 15.9921C21.3928 15.8612 21.3162 15.7339 21.2651 15.6102C21.214 15.4865 21.1885 15.3519 21.1885 15.2064C21.1885 15.0609 21.2286 14.89 21.3089 14.6935C21.3892 14.4971 21.5826 14.3989 21.8891 14.3989C22.1081 14.3989 22.2468 14.4717 22.3052 14.6172L22.349 15.0973C22.349 15.7084 22.1957 16.345 21.8891 17.007C21.5826 17.669 21.2687 18 20.9476 18C20.7286 18 20.5534 17.9273 20.4221 17.7818C20.3199 17.6363 20.2177 17.498 20.1155 17.3671L20.0498 17.3234C20.0206 17.3234 19.9148 17.4362 19.7323 17.6617C19.5498 17.8872 19.3856 18 19.2396 18C19.0207 18 18.7835 17.8909 18.528 17.6726C18.2725 17.4544 18.0718 17.1998 17.9258 16.9088C18.3492 16.7778 18.6265 16.676 18.7579 16.6032C18.8893 16.5305 19.1083 16.3704 19.4148 16.1231L19.4805 15.8393C19.4367 15.752 19.4002 15.7084 19.371 15.7084C19.3564 15.7084 19.2542 15.7593 19.0645 15.8612C18.9623 15.9194 18.8966 15.9485 18.8674 15.9485C18.6922 15.8757 18.5681 15.803 18.4951 15.7302C18.3784 15.5993 18.32 15.4319 18.32 15.2283C18.32 14.9955 18.4222 14.7772 18.6265 14.5735C18.8309 14.3698 19.0937 14.268 19.4148 14.268Z" fill="white"/>
<path d="M27.0853 7.51319L27.6327 7.44771C28.1728 7.44771 28.629 7.60412 29.0012 7.91694C29.3735 8.22977 29.5596 8.63353 29.5596 9.12822C29.5596 9.27372 29.4866 9.46287 29.3406 9.69567C29.0925 10.0449 28.8735 10.365 28.6837 10.656C29.0195 10.9906 29.3589 11.2198 29.7019 11.3434C30.045 11.4671 30.399 11.5289 30.7639 11.5289C31.304 11.5289 31.8296 11.3107 32.3405 10.8742C32.6762 10.5832 33.0777 10.1176 33.5448 9.47742C33.3988 10.5832 32.9974 11.4853 32.3405 12.1837C31.6836 12.8821 30.8661 13.2313 29.8881 13.2313C29.0414 13.2313 28.3261 13.013 27.7422 12.5765C27.1583 12.14 26.7349 11.5289 26.4721 10.7433C27.348 10.4959 27.8735 10.3286 28.0487 10.2413C28.3115 10.1103 28.545 9.89936 28.7494 9.60837C28.2823 9.28827 27.8589 9.12822 27.4794 9.12822C27.3188 9.12822 27.1546 9.15732 26.9867 9.21552C26.8188 9.27372 26.6473 9.35374 26.4721 9.45559V6.90209C27.2458 6.3783 27.7787 6.02182 28.0706 5.83268C28.5961 5.48348 29.202 5.15611 29.8881 4.85056C30.8077 5.01061 31.6179 5.30161 32.3186 5.72355C33.2091 6.2619 33.6543 6.87299 33.6543 7.55684C33.6543 8.03698 33.4937 8.50985 33.1726 8.97545C32.793 9.52834 32.3259 9.80479 31.7712 9.80479C31.3916 9.80479 31.0522 9.70294 30.753 9.49924C30.4537 9.29554 30.3041 8.99727 30.3041 8.60443C30.3041 8.35708 30.4282 8.10246 30.6763 7.84056C30.9245 7.57866 31.2019 7.44771 31.5084 7.44771C31.7566 7.44771 31.9099 7.495 31.9682 7.58957C32.0266 7.68415 32.0558 7.84056 32.0558 8.05881C32.0558 8.3207 32.0777 8.4953 32.1215 8.5826C32.1653 8.6699 32.2529 8.7572 32.3843 8.8445C32.6033 8.8445 32.7127 8.70627 32.7127 8.42983C32.7127 7.96423 32.4062 7.55684 31.7931 7.20764C31.18 6.85844 30.4574 6.68384 29.6253 6.68384C29.0998 6.68384 28.6436 6.75659 28.2567 6.90209C27.8699 7.04759 27.4794 7.25129 27.0853 7.51319Z" fill="white"/>
<path d="M38.7081 9.4174C38.9125 9.69385 39.1898 9.86117 39.5402 9.91937L39.9781 9.96302C40.2117 9.96302 40.4452 9.90482 40.6788 9.78842C40.4598 10.5305 39.9854 10.9015 39.2555 10.9015C38.657 10.9015 38.1972 10.6905 37.876 10.2686L38.7081 9.4174ZM40.5036 4.81237C40.7664 5.01607 40.9854 5.16884 41.1605 5.27069C41.4963 5.45984 41.8028 5.55441 42.0802 5.55441C42.2846 5.55441 42.4743 5.48894 42.6495 5.35799C42.3284 6.47833 41.8101 7.0385 41.0948 7.0385C40.9489 7.0385 40.7737 7.00212 40.5693 6.92937C40.3649 6.85662 40.1898 6.82025 40.0438 6.82025C39.854 6.82025 39.6934 6.88936 39.5621 7.02758C39.4307 7.16581 39.3431 7.32949 39.2993 7.51864C39.5329 7.41679 39.7372 7.35132 39.9124 7.32222C40.0876 7.29312 40.2409 7.27129 40.3722 7.25674C41.0729 7.25674 41.5839 7.50409 41.905 7.99879C42.1824 8.42073 42.3211 9.01728 42.3211 9.78842C42.2189 10.5305 41.9634 11.1998 41.5547 11.7963C40.9124 12.7566 40.0146 13.2367 38.8614 13.2367C38.0001 13.2367 37.2228 12.9967 36.5294 12.5165C35.836 12.0364 35.3579 11.3889 35.0951 10.5741C35.7228 10.4868 36.19 10.3777 36.4965 10.2467C36.8031 10.1158 37.1169 9.86117 37.4381 9.48287C37.1461 9.29373 36.8177 9.19915 36.4527 9.19915C36.2483 9.19915 35.9965 9.23553 35.6973 9.30828C35.398 9.38103 35.1754 9.43195 35.0294 9.46105V6.36193C35.2922 6.15823 35.4966 5.99091 35.6425 5.85996C36.1097 5.45256 36.4162 5.11064 36.5622 4.83419C36.7812 5.00879 37.0074 5.15429 37.241 5.27069C37.5914 5.44529 37.9052 5.53259 38.1826 5.53259C38.3869 5.53259 38.5694 5.48166 38.73 5.37981C38.4088 6.50015 37.876 7.06032 37.1315 7.06032C36.9855 7.06032 36.8031 7.02395 36.5841 6.9512C36.3651 6.87845 36.1973 6.84207 36.0805 6.84207C35.8907 6.84207 35.7301 6.91119 35.5987 7.04941C35.4674 7.18763 35.3798 7.35132 35.336 7.54047C35.6717 7.40952 35.9235 7.33313 36.0914 7.31131C36.2593 7.28948 36.387 7.27129 36.4746 7.25674C36.9563 7.25674 37.3432 7.36587 37.6351 7.58412C38.0001 7.86056 38.1826 8.26068 38.1826 8.78448C38.1826 8.95908 38.1169 9.17369 37.9855 9.42831C37.8541 9.68293 37.6278 10.0139 37.3067 10.4213C37.6424 10.8287 38.022 11.0979 38.4453 11.2289C38.7227 11.3162 39.0803 11.3598 39.5183 11.3598C39.927 11.3598 40.3832 11.2143 40.8868 10.9233C41.3904 10.6323 41.6423 10.3268 41.6423 10.0067C41.6423 9.68657 41.4087 9.4465 40.9416 9.28645C40.7956 9.2428 40.562 9.19188 40.2409 9.13368C40.0365 9.13368 39.8175 9.14823 39.584 9.17733C39.3504 9.20643 39.1241 9.2719 38.9052 9.37375V6.38375C39.1971 6.1655 39.4161 5.99091 39.5621 5.85996C40.0292 5.45256 40.3431 5.10336 40.5036 4.81237Z" fill="white"/>
<path d="M44.0246 6.38375C44.302 6.18005 44.5137 6.01273 44.6596 5.88178C45.1414 5.47439 45.4552 5.13246 45.6012 4.85602C45.8202 5.03062 46.0464 5.17611 46.28 5.29251C46.6304 5.46711 46.9442 5.55441 47.2216 5.55441C47.4259 5.55441 47.6084 5.50349 47.769 5.40164C47.4478 6.52198 46.915 7.08215 46.1705 7.08215C46.0246 7.08215 45.8421 7.04577 45.6231 6.97302C45.4041 6.90027 45.2363 6.8639 45.1195 6.8639C44.9297 6.8639 44.7691 6.93301 44.6377 7.07123C44.5064 7.20946 44.4188 7.37314 44.375 7.56229C44.5648 7.43134 44.7582 7.35496 44.9553 7.33313C45.1523 7.31131 45.3093 7.29312 45.426 7.27857C45.9516 7.27857 46.3749 7.40952 46.6961 7.67142C47.0172 7.93331 47.1778 8.30433 47.1778 8.78448C47.1778 9.17733 47.0938 9.50106 46.926 9.75568C46.7581 10.0103 46.572 10.2104 46.3676 10.3559C46.3676 10.4723 46.6158 10.6541 47.1121 10.9015C47.6084 11.1488 48.0901 11.2725 48.5573 11.2725C48.9076 11.2725 49.3164 11.1597 49.7835 10.9342C50.2506 10.7087 50.5134 10.4577 50.5718 10.1813C50.5718 9.87572 50.4696 9.63565 50.2652 9.46105C50.0025 9.2428 49.601 9.13368 49.0609 9.13368C48.8565 9.13368 48.696 9.14823 48.5792 9.17733C48.4624 9.20643 48.2507 9.28645 47.9442 9.4174V6.40558C48.4697 6.18733 49.0609 5.91816 49.7178 5.59806C50.2287 5.35071 50.7397 5.09609 51.2506 4.83419C51.6593 4.92149 51.9951 5.00515 52.2578 5.08518C52.5206 5.1652 52.7688 5.25614 53.0023 5.35799C53.3965 5.53259 53.7176 5.69263 53.9658 5.83813C54.0388 5.88178 54.3015 6.06366 54.7541 6.38375V12.6256C54.6811 12.7711 54.6154 12.873 54.557 12.9312C54.3526 13.1349 54.068 13.2367 53.703 13.2367C53.703 13.1058 53.6738 12.9821 53.6154 12.8657C53.5571 12.7493 53.4403 12.6547 53.2651 12.582C52.871 12.4074 52.5571 12.1964 52.3235 11.9491C51.9732 11.5708 51.798 11.1052 51.798 10.5523C51.798 10.2613 52.2323 9.98848 53.1009 9.73386C53.9694 9.47924 54.4037 9.16278 54.4037 8.78448C54.4037 8.37708 53.8819 7.93695 52.8381 7.46408C51.7944 6.99121 50.9075 6.75477 50.1777 6.75477C49.9587 6.75477 49.685 6.81661 49.3565 6.94029C49.0281 7.06396 48.82 7.19127 48.7325 7.32222C49.5937 7.32222 50.2506 7.53319 50.7032 7.95514C51.1557 8.37708 51.382 9.0391 51.382 9.94119C51.382 10.5232 51.1192 11.1634 50.5937 11.8618C49.893 12.7784 48.9806 13.2367 47.8566 13.2367C46.9369 13.2367 46.1413 12.9858 45.4698 12.4838C44.7983 11.9818 44.3385 11.3525 44.0903 10.5959C44.6742 10.5232 45.1596 10.385 45.5465 10.1813C45.9333 9.97757 46.134 9.81025 46.1486 9.6793C46.1486 9.54835 46.061 9.41376 45.8859 9.27554C45.7107 9.13731 45.499 9.0682 45.2509 9.0682C45.0173 9.0682 44.802 9.10094 44.6049 9.16641C44.4078 9.23189 44.2144 9.31555 44.0246 9.4174V6.38375ZM54.4037 10.0285C54.2578 10.1012 54.1446 10.1594 54.0643 10.2031C53.984 10.2467 53.9439 10.3268 53.9439 10.4432C53.9439 10.676 54.0972 10.8069 54.4037 10.836V10.0285ZM56.0679 4.75235C56.0971 4.7669 56.6007 5.0579 57.5788 5.62534C58.1335 5.94544 58.4108 6.17096 58.4108 6.30191V12.2164C58.4108 12.4929 58.2868 12.733 58.0386 12.9366C57.7904 13.1403 57.5861 13.2422 57.4255 13.2422C57.3963 13.053 57.0861 12.7366 56.4949 12.2928C55.9037 11.849 55.6081 11.3798 55.6081 10.8851C55.6081 10.6378 55.9876 10.3468 56.7467 10.0121C57.5058 9.67748 57.8853 9.28463 57.8853 8.83359C57.8853 8.28069 57.5678 7.75326 56.9328 7.25129C56.2978 6.74932 55.681 6.49833 55.0825 6.49833C54.7614 6.49833 54.5607 6.50561 54.4804 6.52016C54.4001 6.53471 54.2505 6.60018 54.0315 6.71658L53.9658 6.43286C54.0096 6.40376 54.3015 6.16369 54.8417 5.71264C55.265 5.36344 55.6737 5.04335 56.0679 4.75235ZM57.8196 10.645L57.8634 9.9903C57.7612 10.0049 57.6627 10.0267 57.5678 10.0558C57.4729 10.0849 57.4109 10.1431 57.3817 10.2304C57.3817 10.3322 57.4766 10.4413 57.6664 10.5577C57.6955 10.5723 57.7466 10.6014 57.8196 10.645Z" fill="white"/>
<path d="M60.941 1.54956C61.1162 1.53501 61.2914 1.49864 61.4665 1.44044C61.6417 1.38224 61.795 1.35314 61.9264 1.35314C62.6125 1.35314 63.1015 1.51319 63.3935 1.83328C63.6124 2.08063 63.7219 2.40073 63.7219 2.79357C63.7219 3.24462 63.5248 3.59382 63.1307 3.84116C62.7366 4.08851 62.2256 4.21219 61.5979 4.21219C61.2622 4.21219 60.9118 4.09579 60.5469 3.86299C60.1819 3.63019 59.9995 3.36829 59.9995 3.0773C59.9995 2.8736 60.0834 2.70991 60.2513 2.58624C60.4191 2.46256 60.5907 2.40073 60.7658 2.40073C61.2914 2.40073 61.5541 2.58988 61.5541 2.96817C61.5541 3.08457 61.5249 3.1937 61.4665 3.29554L61.4228 3.42649C61.4228 3.47014 61.4592 3.51379 61.5322 3.55744C61.6052 3.60109 61.6782 3.63747 61.7512 3.66657C61.9994 3.66657 62.1599 3.56472 62.2329 3.36102C62.3059 3.15732 62.3424 2.95362 62.3424 2.74992C62.3424 2.42983 62.2694 2.19703 62.1234 2.05153C61.9775 1.90603 61.795 1.83328 61.576 1.83328C61.4009 1.83328 61.2476 1.86238 61.1162 1.92058C61.0432 1.97878 60.9921 2.01516 60.9629 2.02971C60.8461 2.10246 60.7512 2.13883 60.6783 2.13883C60.5907 2.10973 60.5469 2.08063 60.5469 2.05153C60.4593 1.83328 60.3863 1.6696 60.3279 1.56047C60.2695 1.45135 60.2038 1.36041 60.1308 1.28766C59.8973 1.06941 59.7659 0.945741 59.7367 0.916641C59.6053 0.771143 59.5396 0.618369 59.5396 0.458321C59.6126 0.327372 59.7148 0.218248 59.8462 0.130949C59.9776 0.0436496 60.1308 0 60.306 0C60.5834 0 60.7658 0.0982116 60.8534 0.294635C60.941 0.491058 60.9848 0.749318 60.9848 1.06941L60.941 1.54956ZM60.4593 8.48985C60.4593 9.29009 60.525 9.86481 60.6564 10.214C60.8607 10.7378 61.2476 10.9997 61.8169 10.9997C62.1672 10.9997 62.4191 10.9342 62.5723 10.8033C62.7256 10.6723 62.8022 10.505 62.8022 10.3013C62.8022 10.1849 62.7731 10.0249 62.7147 9.82116C62.5687 9.71931 62.43 9.66838 62.2986 9.66838C62.1088 9.66838 61.9848 9.77751 61.9264 9.99576C61.9264 10.0249 61.9191 10.0758 61.9045 10.1485C61.5249 10.1485 61.2622 10.0467 61.1162 9.84298C60.9702 9.63928 60.8972 9.34101 60.8972 8.94817C60.8972 8.58442 61.0067 8.3007 61.2257 8.097C61.4446 7.8933 61.7001 7.79145 61.9921 7.79145C62.5322 7.79145 62.8971 8.08972 63.0869 8.68627C63.1891 9.02092 63.2402 9.55926 63.2402 10.3013C63.2402 10.9415 63.1453 11.5308 62.9555 12.0691C62.6782 12.8548 62.2475 13.2477 61.6636 13.2477C61.0651 13.2477 60.5907 12.7893 60.2403 11.8727C60.1381 11.5671 60.0287 11.1015 59.9119 10.4759V6.32919C60.0724 6.21279 60.1965 6.11822 60.2841 6.04547C60.8534 5.56532 61.2403 5.15065 61.4446 4.80146C61.6636 4.97605 61.8899 5.12155 62.1234 5.23795C62.4738 5.41255 62.7877 5.49985 63.065 5.49985C63.2694 5.49985 63.4519 5.44892 63.6124 5.34707C63.2913 6.46741 62.7585 7.02758 62.014 7.02758C61.8972 7.02758 61.7366 6.99121 61.5322 6.91846C61.3279 6.84571 61.1381 6.80934 60.9629 6.80934C60.7877 6.83844 60.66 7.01667 60.5797 7.34404C60.4994 7.67142 60.4593 8.05335 60.4593 8.48985Z" fill="white"/>
<path d="M70.4234 3.22461C70.9052 3.22461 71.2555 3.36647 71.4745 3.6502C71.6934 3.93392 71.8029 4.2722 71.8029 4.66505C71.8029 5.46529 71.4307 6.15641 70.6862 6.73841C70.0731 7.21855 69.5111 7.45862 69.0001 7.45862C68.825 7.45862 68.4746 7.3204 67.9491 7.04395C67.4236 6.76751 66.9345 6.62928 66.482 6.62928C66.0149 6.62928 65.6937 6.72386 65.5185 6.913C65.358 7.1749 65.2412 7.37133 65.1682 7.50227C65.5477 7.41497 65.9346 7.32767 66.3287 7.24038C66.9272 7.24038 67.3615 7.36769 67.6316 7.62231C67.9016 7.87693 68.0367 8.31707 68.0367 8.94271C68.0367 9.36466 67.8177 9.79388 67.3798 10.2304C67.1608 10.4341 66.9491 10.6305 66.7448 10.8196C66.8178 11.0524 66.9236 11.1979 67.0623 11.2561C67.201 11.3143 67.409 11.3434 67.6863 11.3434C67.8177 11.3434 68.0221 11.2343 68.2994 11.0161C68.4454 10.8997 68.5841 10.776 68.7155 10.645C68.9782 10.8924 69.1607 11.0524 69.2629 11.1252C69.4673 11.2707 69.6862 11.3434 69.9198 11.3434C70.7811 11.3434 71.3212 10.8124 71.5402 9.75023C71.4672 9.48833 71.219 9.35738 70.7957 9.35738C70.7373 9.37193 70.657 9.4956 70.5548 9.7284C70.4526 9.9612 70.2702 10.0776 70.0074 10.0776C69.1461 10.0776 68.7155 9.6411 68.7155 8.76811C68.7155 8.40437 68.8542 8.11337 69.1315 7.89512C69.4089 7.67687 69.7884 7.56775 70.2701 7.56775C70.9563 7.56775 71.438 7.88784 71.7153 8.52804C71.9051 8.96453 72 9.56108 72 10.3177C72 11.0597 71.8759 11.6854 71.6278 12.1946C71.292 12.8784 70.7811 13.2204 70.095 13.2204C69.8614 13.1476 69.657 13.0603 69.4819 12.9585C69.1753 12.7693 68.8615 12.5147 68.5403 12.1946C68.1316 12.6166 67.8323 12.8894 67.6425 13.013C67.4528 13.1367 67.1827 13.2131 66.8324 13.2422C66.628 13.2422 66.3652 13.1694 66.0441 13.0239C65.285 12.6747 64.9054 12.1728 64.9054 11.518V10.4704C65.4018 10.4122 65.7594 10.3468 65.9784 10.274C66.3871 10.1431 66.7813 9.9321 67.1608 9.6411C66.9856 9.51015 66.7886 9.40467 66.5696 9.32464C66.3506 9.24462 66.1609 9.20461 66.0003 9.20461C65.8105 9.20461 65.6499 9.21916 65.5185 9.24826C65.212 9.36466 65.0076 9.43013 64.9054 9.44468V6.36738C65.2558 6.09094 65.6609 5.8254 66.1207 5.57078C66.5805 5.31616 67.0294 5.06517 67.4674 4.81782C67.5404 4.84692 68.0367 5.087 68.9563 5.53804C69.4381 5.77084 69.876 5.88724 70.2701 5.88724C70.4891 5.88724 70.6643 5.87269 70.7957 5.84359C70.8249 5.81449 70.8541 5.73447 70.8833 5.60352C70.8833 5.47257 70.6387 5.29797 70.1497 5.07972C69.6607 4.86147 69.4162 4.54865 69.4162 4.14125C69.4162 3.90846 69.5038 3.69748 69.6789 3.50834C69.8541 3.31919 70.1023 3.22461 70.4234 3.22461Z" fill="white"/>
<path d="M71.7548 13.2422C71.7548 13.4895 71.6234 13.7478 71.3606 14.017C71.0979 14.2861 70.8351 14.4789 70.5723 14.5953C69.9008 14.93 69.1344 15.0973 68.2732 15.0973L67.7039 15.0755C67.8352 15.2501 68.0615 15.3956 68.3827 15.512C68.7038 15.6284 69.0177 15.6866 69.3242 15.6866C69.7038 15.6866 70.0906 15.461 70.4847 15.01C70.6891 14.7772 70.9227 14.6608 71.1854 14.6608C71.565 14.6608 71.7548 15.1337 71.7548 16.0794C71.7548 16.4577 71.6672 16.7487 71.492 16.9524C71.3168 17.1561 71.1125 17.258 70.8789 17.258C70.7037 17.258 70.5577 17.207 70.441 17.1052C70.441 17.0179 70.4921 16.8869 70.5942 16.7123C70.6964 16.5377 70.7475 16.4213 70.7475 16.3631C70.7475 16.2758 70.6745 16.1885 70.5285 16.1012C70.1344 16.3631 69.8278 16.545 69.6089 16.6469C69.2293 16.8215 68.8498 16.9088 68.4702 16.9088C68.1199 16.9088 67.7185 16.7996 67.2659 16.5814C66.6528 16.2904 66.3463 15.9412 66.3463 15.5338C66.3463 15.4756 66.3973 15.3883 66.4995 15.2719C66.9083 14.8645 67.3316 14.4353 67.7695 13.9842C68.368 13.9842 68.9812 13.9333 69.6089 13.8315C70.2366 13.7296 70.9519 13.5332 71.7548 13.2422Z" fill="white"/>
</svg>
