<svg width="47" height="46" viewBox="0 0 47 46" fill="none" xmlns="http://www.w3.org/2000/svg">
<path d="M20.9109 38.5158H8.07227C4.69785 38.5158 3.25779 37.0757 3.25779 33.7013V16.0483H38.5639V20.8627C38.5639 21.2884 38.733 21.6965 39.034 21.9975C39.335 22.2985 39.7431 22.4676 40.1688 22.4676C40.5944 22.4676 41.0026 22.2985 41.3036 21.9975C41.6045 21.6965 41.7736 21.2884 41.7736 20.8627V11.2338C41.8993 10.1496 41.7781 9.05113 41.4193 8.02041C41.0605 6.98969 40.4733 6.05345 39.7015 5.28172C38.9298 4.50999 37.9936 3.92275 36.9628 3.56393C35.9321 3.20511 34.8336 3.08399 33.7495 3.20965H31.0748V1.60483C31.0748 1.1792 30.9057 0.771006 30.6047 0.470043C30.3038 0.169079 29.8956 0 29.4699 0C29.0443 0 28.6361 0.169079 28.3352 0.470043C28.0342 0.771006 27.8651 1.1792 27.8651 1.60483V3.20965H13.9566V1.60483C13.9566 1.1792 13.7875 0.771006 13.4866 0.470043C13.1856 0.169079 12.7774 0 12.3518 0C11.9262 0 11.518 0.169079 11.217 0.470043C10.9161 0.771006 10.747 1.1792 10.747 1.60483V3.20965H8.07227C6.98813 3.08399 5.88962 3.20511 4.8589 3.56393C3.82818 3.92275 2.89194 4.50999 2.12021 5.28172C1.34848 6.05345 0.761236 6.98969 0.402416 8.02041C0.0435955 9.05113 -0.0775167 10.1496 0.0481391 11.2338V33.7013C-0.0775167 34.7855 0.0435955 35.884 0.402416 36.9147C0.761236 37.9454 1.34848 38.8817 2.12021 39.6534C2.89194 40.4251 3.82818 41.0124 4.8589 41.3712C5.88962 41.73 6.98813 41.8511 8.07227 41.7255H20.9109C21.3365 41.7255 21.7447 41.5564 22.0457 41.2554C22.3466 40.9545 22.5157 40.5463 22.5157 40.1206C22.5157 39.695 22.3466 39.2868 22.0457 38.9859C21.7447 38.6849 21.3365 38.5158 20.9109 38.5158ZM8.07227 6.4193H10.747V8.02413C10.747 8.44975 10.9161 8.85795 11.217 9.15891C11.518 9.45987 11.9262 9.62895 12.3518 9.62895C12.7774 9.62895 13.1856 9.45987 13.4866 9.15891C13.7875 8.85795 13.9566 8.44975 13.9566 8.02413V6.4193H27.8651V8.02413C27.8651 8.44975 28.0342 8.85795 28.3352 9.15891C28.6361 9.45987 29.0443 9.62895 29.4699 9.62895C29.8956 9.62895 30.3038 9.45987 30.6047 9.15891C30.9057 8.85795 31.0748 8.44975 31.0748 8.02413V6.4193H33.7495C37.1239 6.4193 38.5639 7.85936 38.5639 11.2338V12.8386H3.25779V11.2338C3.25779 7.85936 4.69785 6.4193 8.07227 6.4193ZM14.5344 23.0025C14.5343 23.4248 14.4094 23.8376 14.1752 24.189C13.941 24.5404 13.6081 24.8147 13.2183 24.9773C12.8286 25.1398 12.3994 25.1834 11.985 25.1026C11.5705 25.0217 11.1892 24.8201 10.8891 24.5229C10.589 24.2258 10.3835 23.8466 10.2986 23.4329C10.2136 23.0193 10.253 22.5897 10.4116 22.1984C10.5703 21.807 10.8412 21.4714 11.1903 21.2337C11.5394 20.996 11.9509 20.867 12.3732 20.8627H12.3946C12.9621 20.8627 13.5064 21.0882 13.9076 21.4895C14.3089 21.8907 14.5344 22.435 14.5344 23.0025ZM23.0934 23.0025C23.0934 23.4248 22.9684 23.8376 22.7342 24.189C22.5001 24.5404 22.1671 24.8147 21.7774 24.9773C21.3876 25.1398 20.9585 25.1834 20.544 25.1026C20.1295 25.0217 19.7483 24.8201 19.4482 24.5229C19.1481 24.2258 18.9426 23.8466 18.8577 23.4329C18.7727 23.0193 18.812 22.5897 18.9707 22.1984C19.1294 21.807 19.4003 21.4714 19.7494 21.2337C20.0984 20.996 20.51 20.867 20.9323 20.8627H20.9537C21.5212 20.8627 22.0654 21.0882 22.4667 21.4895C22.868 21.8907 23.0934 22.435 23.0934 23.0025ZM35.8892 25.6772C33.879 25.6772 31.9139 26.2733 30.2425 27.3901C28.571 28.507 27.2683 30.0943 26.499 31.9515C25.7297 33.8088 25.5285 35.8524 25.9206 37.824C26.3128 39.7956 27.2808 41.6066 28.7023 43.0281C30.1237 44.4495 31.9348 45.4175 33.9064 45.8097C35.878 46.2019 37.9216 46.0006 39.7788 45.2313C41.636 44.462 43.2234 43.1593 44.3402 41.4879C45.457 39.8164 46.0531 37.8513 46.0531 35.8411C46.0497 33.1465 44.9778 30.5633 43.0724 28.6579C41.1671 26.7525 38.5838 25.6806 35.8892 25.6772ZM35.8892 42.7953C34.5138 42.7953 33.1693 42.3875 32.0257 41.6233C30.882 40.8592 29.9907 39.7731 29.4644 38.5024C28.938 37.2317 28.8003 35.8334 29.0686 34.4844C29.337 33.1354 29.9993 31.8963 30.9718 30.9237C31.9444 29.9511 33.1835 29.2888 34.5325 29.0205C35.8815 28.7521 37.2798 28.8899 38.5505 29.4162C39.8212 29.9426 40.9073 30.8339 41.6715 31.9775C42.4356 33.1212 42.8435 34.4657 42.8435 35.8411C42.8412 37.6848 42.1078 39.4523 40.8041 40.756C39.5004 42.0597 37.7329 42.7931 35.8892 42.7953ZM39.698 32.9225C39.8472 33.0715 39.9655 33.2485 40.0462 33.4432C40.1269 33.638 40.1684 33.8468 40.1684 34.0576C40.1684 34.2684 40.1269 34.4772 40.0462 34.672C39.9655 34.8668 39.8472 35.0437 39.698 35.1928L36.131 38.7597C35.8299 39.0598 35.4221 39.2282 34.997 39.2282C34.5718 39.2282 34.1641 39.0598 33.8629 38.7597L32.0805 36.9752C31.797 36.671 31.6427 36.2686 31.65 35.8528C31.6573 35.4371 31.8257 35.0404 32.1198 34.7463C32.4138 34.4523 32.8105 34.2839 33.2262 34.2766C33.642 34.2692 34.0444 34.4235 34.3486 34.707L34.9905 35.349L37.4235 32.9182C37.5727 32.7684 37.7501 32.6497 37.9454 32.5688C38.1408 32.4879 38.3502 32.4465 38.5616 32.4469C38.7731 32.4473 38.9823 32.4895 39.1773 32.5711C39.3724 32.6527 39.5493 32.7721 39.698 32.9225ZM14.5344 31.5616C14.5343 31.9839 14.4094 32.3967 14.1752 32.7481C13.941 33.0995 13.6081 33.3738 13.2183 33.5363C12.8286 33.6989 12.3994 33.7425 11.985 33.6617C11.5705 33.5808 11.1892 33.3791 10.8891 33.082C10.589 32.7849 10.3835 32.4056 10.2986 31.992C10.2136 31.5783 10.253 31.1488 10.4116 30.7574C10.5703 30.3661 10.8412 30.0304 11.1903 29.7928C11.5394 29.5551 11.9509 29.426 12.3732 29.4218H12.3946C12.9621 29.4218 13.5064 29.6472 13.9076 30.0485C14.3089 30.4498 14.5344 30.9941 14.5344 31.5616Z" fill="#D0D0D0"/>
</svg>
