<svg width="20" height="21" viewBox="0 0 20 21" fill="none" xmlns="http://www.w3.org/2000/svg">
<path d="M16.4873 9.93781C16.4762 9.85647 16.4492 9.77812 16.4078 9.70723C16.3664 9.63634 16.3114 9.5743 16.246 9.52465C16.1807 9.47499 16.1062 9.43871 16.0268 9.41786C15.9473 9.397 15.8646 9.392 15.7833 9.40312C15.7019 9.41424 15.6236 9.44127 15.5527 9.48267C15.4818 9.52407 15.4198 9.57903 15.3701 9.64441C15.3205 9.70979 15.2842 9.78431 15.2633 9.86371C15.2425 9.94311 15.2375 10.0258 15.2486 10.1072C15.3627 10.9173 15.2864 11.7429 15.0255 12.5183C14.7647 13.2937 14.3266 13.9976 13.7461 14.5741C11.6805 16.6397 8.31859 16.6397 6.25359 14.5741C4.18734 12.5078 4.18734 9.14656 6.25359 7.08093C7.99859 5.33593 10.7055 5.07406 12.7417 6.30031L11.7117 6.44656C11.6297 6.45715 11.5505 6.48392 11.4789 6.52534C11.4073 6.56675 11.3446 6.62197 11.2944 6.68781C11.2443 6.75364 11.2078 6.82877 11.1869 6.90883C11.166 6.9889 11.1613 7.07231 11.1729 7.15424C11.1845 7.23616 11.2123 7.31495 11.2546 7.38605C11.2969 7.45716 11.353 7.51915 11.4194 7.56843C11.4859 7.61772 11.5615 7.65332 11.6418 7.67317C11.7221 7.69302 11.8056 7.69672 11.8873 7.68406L14.3511 7.33281C14.4324 7.32131 14.5107 7.2939 14.5814 7.25214C14.6521 7.21039 14.7139 7.15511 14.7632 7.08946C14.8125 7.02381 14.8485 6.94908 14.8689 6.86955C14.8893 6.79002 14.8939 6.70723 14.8823 6.62593L14.5311 4.16218C14.5077 3.998 14.4201 3.84982 14.2875 3.75025C14.1548 3.65068 13.9881 3.60787 13.8239 3.63124C13.6597 3.65462 13.5115 3.74225 13.412 3.87488C13.3124 4.0075 13.2696 4.17425 13.293 4.33843L13.423 5.25156C10.9005 3.71093 7.53422 4.02906 5.36797 6.19593C2.81484 8.74906 2.81484 12.9034 5.36797 15.4566C6.64484 16.7334 8.32109 17.3716 9.99797 17.3716C11.6748 17.3716 13.3517 16.7334 14.628 15.4566C15.346 14.7448 15.8879 13.8753 16.2107 12.9172C16.5335 11.9591 16.6282 10.9389 16.4873 9.93781Z" fill="#E6F4FF"/>
</svg>
