<svg width="30" height="30" viewBox="0 0 30 30" fill="none" xmlns="http://www.w3.org/2000/svg">
<g clip-path="url(#clip0_4359_17066)">
<path d="M29.4141 12.2314H25.6641C25.3404 12.2314 25.0781 12.4938 25.0781 12.8173V15.7763C25.0781 16.0999 25.3404 16.3622 25.6641 16.3622C25.9877 16.3622 26.25 16.0999 26.25 15.7763V13.4033H28.8281V28.8281H26.25V20.1708C26.25 19.8473 25.9877 19.5849 25.6641 19.5849C25.3404 19.5849 25.0781 19.8473 25.0781 20.1708V28.8281H23.9062V16.6992C23.9062 16.3757 23.6439 16.1133 23.3203 16.1133H19.5703C19.2467 16.1133 18.9844 16.3757 18.9844 16.6992V28.8281H17.8125V20.8008C17.8125 20.4772 17.5502 20.2148 17.2266 20.2148H13.4766C13.1529 20.2148 12.8906 20.4772 12.8906 20.8008V28.8281H11.7188V24.1626C11.7188 23.839 11.4564 23.5767 11.1328 23.5767H7.38281C7.0592 23.5767 6.79688 23.839 6.79688 24.1626V28.8281H1.75781C1.43473 28.8281 1.17188 28.5653 1.17188 28.2422V1.75781C1.17188 1.43473 1.43473 1.17188 1.75781 1.17188H16.8735V5.03924C16.8735 6.0085 17.6621 6.79705 18.6313 6.79705H22.4985V14.0039C22.4985 14.3275 22.7609 14.5898 23.0845 14.5898C23.4081 14.5898 23.6704 14.3275 23.6704 14.0039V6.21111C23.6704 6.05572 23.6087 5.90672 23.4988 5.7968L17.8738 0.171621C17.7639 0.0617524 17.6149 2.14112e-05 17.4595 0L1.75781 0C0.788555 0 0 0.788555 0 1.75781V28.2422C0 29.2114 0.788555 30 1.75781 30H29.4141C29.7377 30 30 29.7376 30 29.4141V12.8173C30 12.4938 29.7377 12.2314 29.4141 12.2314ZM18.0454 2.00057L21.67 5.62518H18.6313C18.3082 5.62518 18.0454 5.36232 18.0454 5.03924V2.00057ZM10.5469 28.8281H7.96875V24.7485H10.5469V28.8281ZM16.6406 28.8281H14.0625V21.3867H16.6406V28.8281ZM22.7344 28.8281H20.1562V17.2852H22.7344V28.8281Z" fill="#444050"/>
<path d="M26.0782 17.4467C25.9692 17.3372 25.818 17.2751 25.6639 17.2751C25.5098 17.2751 25.3587 17.3372 25.2497 17.4467C25.1407 17.5557 25.078 17.7069 25.078 17.861C25.078 18.0151 25.1407 18.1663 25.2497 18.2753C25.3587 18.3842 25.5098 18.4469 25.6639 18.4469C25.818 18.4469 25.9692 18.3842 26.0782 18.2753C26.1872 18.1663 26.2499 18.0151 26.2499 17.861C26.2499 17.7069 26.1872 17.5557 26.0782 17.4467ZM8.52978 3.20312C8.20617 3.20312 7.94385 3.46551 7.94385 3.78906V4.84311C5.24672 5.1359 3.14062 7.42691 3.14062 10.2006C3.14062 13.1722 5.5582 15.5898 8.52978 15.5898C11.3035 15.5898 13.5945 13.4837 13.8873 10.7866H14.9413C15.2649 10.7866 15.5272 10.5242 15.5272 10.2006C15.5272 6.34217 12.3882 3.20312 8.52978 3.20312ZM8.52978 14.4179C6.20437 14.4179 4.3125 12.526 4.3125 10.2006C4.3125 8.07402 5.89482 6.31 7.94385 6.02389V10.2006C7.94385 10.5241 8.20617 10.7865 8.52978 10.7865H12.7065C12.4204 12.8355 10.6563 14.4179 8.52978 14.4179ZM9.11572 9.61469V4.40424C11.861 4.67975 14.0506 6.86945 14.3261 9.61469H9.11572ZM14.9413 17.2376H3.74988C3.42627 17.2376 3.16395 17.4999 3.16395 17.8235C3.16395 18.1471 3.42627 18.4094 3.74988 18.4094H14.9413C15.2649 18.4094 15.5272 18.1471 15.5272 17.8235C15.5272 17.4999 15.2649 17.2376 14.9413 17.2376ZM7.49988 20.0647H3.74988C3.42627 20.0647 3.16395 20.3271 3.16395 20.6506C3.16395 20.9742 3.42627 21.2366 3.74988 21.2366H7.49988C7.8235 21.2366 8.08582 20.9742 8.08582 20.6506C8.08582 20.3271 7.8235 20.0647 7.49988 20.0647ZM10.8485 20.2364C10.7384 20.1269 10.5895 20.0652 10.4343 20.0647C10.2796 20.0647 10.129 20.1273 10.02 20.2364C9.91043 20.3454 9.84832 20.4965 9.84832 20.6506C9.84832 20.8047 9.91043 20.9559 10.02 21.0648C10.1301 21.1744 10.2789 21.2362 10.4343 21.2366C10.5884 21.2366 10.7395 21.1739 10.8485 21.0648C10.9575 20.9559 11.0202 20.8047 11.0202 20.6506C11.0202 20.4965 10.9575 20.3454 10.8485 20.2364Z" fill="#444050"/>
</g>
<defs>
<clipPath id="clip0_4359_17066">
<rect width="30" height="30" fill="white"/>
</clipPath>
</defs>
</svg>
