<svg width="32" height="32" viewBox="0 0 32 32" fill="none" xmlns="http://www.w3.org/2000/svg">
<path d="M1.45456 11.6364C0.581835 11.6364 0 11.0545 0 10.1818V4.36362C0 1.89089 1.89089 0 4.36362 0H10.1818C11.0545 0 11.6364 0.581835 11.6364 1.45456C11.6364 2.32728 11.0545 2.90912 10.1818 2.90912H4.36362C3.49089 2.90912 2.90906 3.49095 2.90906 4.36368V10.1819C2.90912 11.0545 2.32728 11.6364 1.45456 11.6364ZM30.5454 11.6364C29.6727 11.6364 29.0909 11.0545 29.0909 10.1818V4.36362C29.0909 3.49089 28.509 2.90906 27.6363 2.90906H21.8181C20.9454 2.90906 20.3636 2.32722 20.3636 1.4545C20.3636 0.581776 20.9454 0 21.8181 0H27.6363C30.109 0 31.9999 1.89089 31.9999 4.36362V10.1818C32 11.0545 31.4182 11.6364 30.5454 11.6364ZM10.1818 32H4.36362C1.89089 32 0 30.1091 0 27.6364V21.8182C0 20.9455 0.581835 20.3636 1.45456 20.3636C2.32728 20.3636 2.90912 20.9455 2.90912 21.8182V27.6364C2.90912 28.5091 3.49095 29.0909 4.36368 29.0909H10.1819C11.0546 29.0909 11.6364 29.6728 11.6364 30.5455C11.6364 31.4182 11.0545 32 10.1818 32ZM27.6364 32H21.8182C20.9455 32 20.3636 31.4182 20.3636 30.5454C20.3636 29.6727 20.9455 29.0909 21.8182 29.0909H27.6364C28.5091 29.0909 29.0909 28.509 29.0909 27.6363V21.8181C29.0909 20.9454 29.6728 20.3636 30.5455 20.3636C31.4182 20.3636 32.0001 20.9454 32.0001 21.8181V27.6363C32 30.1091 30.1091 32 27.6364 32Z" fill="white"/>
<path d="M13.093 14.5476H7.27487C6.40215 14.5476 5.82031 13.9658 5.82031 13.093V7.27487C5.82031 6.40215 6.40215 5.82031 7.27487 5.82031H13.093C13.9658 5.82031 14.5476 6.40215 14.5476 7.27487V13.093C14.5476 13.9658 13.9658 14.5476 13.093 14.5476ZM8.72943 11.6385H11.6385V8.72937H8.72943V11.6385ZM13.093 26.184H7.27487C6.40215 26.184 5.82031 25.6021 5.82031 24.7294V18.9112C5.82031 18.0385 6.40215 17.4567 7.27487 17.4567H13.093C13.9658 17.4567 14.5476 18.0385 14.5476 18.9112V24.7294C14.5476 25.6021 13.9658 26.184 13.093 26.184ZM8.72943 23.2748H11.6385V20.3657H8.72943V23.2748ZM24.7294 14.5476H18.9112C18.0385 14.5476 17.4567 13.9658 17.4567 13.093V7.27487C17.4567 6.40215 18.0385 5.82031 18.9112 5.82031H24.7294C25.6021 5.82031 26.184 6.40215 26.184 7.27487V13.093C26.184 13.9658 25.6021 14.5476 24.7294 14.5476ZM20.3658 11.6385H23.2749V8.72937H20.3658V11.6385ZM18.9112 21.8203C18.0385 21.8203 17.4567 21.2384 17.4567 20.3657V18.9112C17.4567 18.0384 18.0385 17.4566 18.9112 17.4566C19.7839 17.4566 20.3658 18.0384 20.3658 18.9112V20.3657C20.3658 21.2385 19.7839 21.8203 18.9112 21.8203ZM24.7294 20.3658H23.2748C22.4021 20.3658 21.8203 19.7839 21.8203 18.9112C21.8203 18.0385 22.4021 17.4567 23.2748 17.4567H24.7294C25.6021 17.4567 26.184 18.0385 26.184 18.9112C26.184 19.7839 25.6021 20.3658 24.7294 20.3658ZM24.7294 26.184H20.3658C19.4931 26.184 18.9112 25.6021 18.9112 24.7294C18.9112 23.8567 19.4931 23.2748 20.3658 23.2748H24.7294C25.6021 23.2748 26.184 23.8567 26.184 24.7294C26.184 25.6021 25.6021 26.184 24.7294 26.184Z" fill="white"/>
</svg>
