<svg width="353" height="241" viewBox="0 0 353 241" fill="none" xmlns="http://www.w3.org/2000/svg">
<g clip-path="url(#clip0_4359_17590)">
<path d="M61.8957 181.337C61.8958 181.064 61.8414 180.794 61.7357 180.542C61.63 180.289 61.475 180.06 61.2795 179.867C61.0841 179.674 60.852 179.521 60.5966 179.416C60.3412 179.312 60.0674 179.258 59.791 179.258H25.2223C24.664 179.258 24.1285 179.477 23.7338 179.867C23.339 180.257 23.1172 180.785 23.1172 181.337C23.1172 181.888 23.339 182.417 23.7338 182.807C24.1285 183.197 24.664 183.416 25.2223 183.416H59.7885C60.0651 183.416 60.339 183.363 60.5947 183.258C60.8503 183.154 61.0826 183.001 61.2783 182.808C61.474 182.615 61.6293 182.386 61.7352 182.133C61.8412 181.881 61.8957 181.61 61.8957 181.337Z" fill="#BEE4ED"/>
<path d="M319.558 151.016H341.322C341.88 151.016 342.415 151.235 342.81 151.624C343.205 152.014 343.426 152.543 343.426 153.094C343.426 153.367 343.372 153.637 343.266 153.89C343.16 154.142 343.005 154.371 342.81 154.564C342.614 154.757 342.382 154.91 342.127 155.015C341.872 155.119 341.598 155.173 341.322 155.173H319.558C319.281 155.173 319.008 155.119 318.752 155.015C318.497 154.91 318.265 154.757 318.07 154.564C317.874 154.371 317.719 154.142 317.613 153.89C317.508 153.637 317.453 153.367 317.453 153.094C317.453 152.543 317.675 152.014 318.07 151.624C318.464 151.235 319 151.016 319.558 151.016Z" fill="#BEE4ED"/>
<path d="M156.652 21.7734H178.414C178.691 21.7733 178.965 21.827 179.22 21.9314C179.476 22.0358 179.708 22.1889 179.903 22.3819C180.099 22.575 180.254 22.8041 180.36 23.0564C180.466 23.3086 180.52 23.579 180.52 23.852C180.52 24.125 180.466 24.3954 180.36 24.6476C180.254 24.8999 180.099 25.129 179.903 25.3221C179.708 25.5151 179.476 25.6682 179.22 25.7726C178.965 25.877 178.691 25.9307 178.414 25.9306H156.652C156.375 25.9306 156.102 25.8768 155.846 25.7724C155.591 25.6679 155.359 25.5148 155.163 25.3218C154.968 25.1288 154.813 24.8996 154.707 24.6474C154.601 24.3953 154.547 24.125 154.547 23.852C154.547 23.579 154.601 23.3088 154.707 23.0566C154.813 22.8044 154.968 22.5753 155.163 22.3822C155.359 22.1892 155.591 22.0361 155.846 21.9317C156.102 21.8272 156.375 21.7734 156.652 21.7734Z" fill="#BEE4ED"/>
<path d="M90.4286 82.9766H62.102C59.7589 82.9766 57.8594 84.8524 57.8594 87.1665V124.967C57.8594 127.281 59.7589 129.156 62.102 129.156H90.4286C92.7718 129.156 94.6712 127.281 94.6712 124.967V87.1665C94.6712 84.8524 92.7718 82.9766 90.4286 82.9766Z" stroke="white" stroke-linecap="round" stroke-linejoin="round"/>
<path d="M90.4286 82.9766H62.102C59.7589 82.9766 57.8594 84.8524 57.8594 87.1665V124.967C57.8594 127.281 59.7589 129.156 62.102 129.156H90.4286C92.7718 129.156 94.6712 127.281 94.6712 124.967V87.1665C94.6712 84.8524 92.7718 82.9766 90.4286 82.9766Z" stroke="white" stroke-linecap="round" stroke-linejoin="round"/>
<path d="M324.129 118.906H282.016C279.673 118.906 277.773 120.782 277.773 123.096V158.171C277.773 160.486 279.673 162.361 282.016 162.361H324.129C326.472 162.361 328.371 160.486 328.371 158.171V123.096C328.371 120.782 326.472 118.906 324.129 118.906Z" stroke="white" stroke-linecap="round" stroke-linejoin="round"/>
<path d="M324.129 118.906H282.016C279.673 118.906 277.773 120.782 277.773 123.096V158.171C277.773 160.486 279.673 162.361 282.016 162.361H324.129C326.472 162.361 328.371 160.486 328.371 158.171V123.096C328.371 120.782 326.472 118.906 324.129 118.906Z" stroke="white" stroke-linecap="round" stroke-linejoin="round"/>
<path d="M201.577 140.148H146.016C143.673 140.148 141.773 142.024 141.773 144.338V179.414C141.773 181.728 143.673 183.604 146.016 183.604H201.577C203.92 183.604 205.82 181.728 205.82 179.414V144.338C205.82 142.024 203.92 140.148 201.577 140.148Z" stroke="white" stroke-linecap="round" stroke-linejoin="round"/>
<path d="M201.577 140.148H146.016C143.673 140.148 141.773 142.024 141.773 144.338V179.414C141.773 181.728 143.673 183.604 146.016 183.604H201.577C203.92 183.604 205.82 181.728 205.82 179.414V144.338C205.82 142.024 203.92 140.148 201.577 140.148Z" stroke="white" stroke-linecap="round" stroke-linejoin="round"/>
<g opacity="0.5">
<path d="M315.962 31.7931C315.962 31.7931 218.778 -58.8181 68.7434 65.8996C-81.2913 190.617 51.9032 263.404 114.168 194.152C176.433 124.9 266.01 146.474 266.01 146.474C266.01 146.474 324.523 156.17 341.354 103.517C341.351 103.518 354.988 68.1633 315.962 31.7931Z" fill="white"/>
<path d="M159.17 206.907C159.17 206.907 157.345 240.999 240.81 240.999C336.364 240.999 355.293 193.363 337.705 176.877C314.34 154.974 282.488 184.96 243.609 172.513C193.682 156.529 157.972 175.554 159.17 206.907Z" fill="white"/>
</g>
<path d="M38.6564 146.573C38.6685 145.708 38.939 144.867 39.4341 144.154C39.9291 143.441 40.6264 142.889 41.4385 142.566C42.2505 142.244 43.141 142.166 43.9979 142.342C44.8547 142.518 45.6398 142.94 46.2544 143.555C46.8689 144.171 47.2855 144.952 47.4518 145.801C47.618 146.649 47.5265 147.527 47.1887 148.325C46.8509 149.122 46.282 149.803 45.5534 150.282C44.8248 150.761 43.9691 151.016 43.0939 151.016C41.9087 151.008 40.7755 150.535 39.9433 149.702C39.1111 148.869 38.6482 147.743 38.6564 146.573Z" stroke="white" stroke-linecap="round" stroke-linejoin="round"/>
<path d="M299.055 46.7745C299.062 46.2307 299.233 45.7012 299.544 45.2527C299.856 44.8042 300.295 44.4567 300.806 44.2538C301.317 44.0509 301.877 44.0017 302.416 44.1125C302.955 44.2232 303.449 44.4889 303.836 44.8761C304.223 45.2634 304.485 45.7549 304.59 46.2889C304.694 46.8229 304.637 47.3755 304.424 47.8773C304.212 48.3791 303.854 48.8076 303.395 49.109C302.937 49.4105 302.399 49.5713 301.848 49.5713C301.102 49.5659 300.389 49.2683 299.865 48.7439C299.341 48.2194 299.05 47.5111 299.055 46.7745Z" stroke="white" stroke-linecap="round" stroke-linejoin="round"/>
<path d="M126.516 164.667C126.523 164.123 126.693 163.593 127.005 163.144C127.316 162.696 127.755 162.348 128.267 162.145C128.778 161.942 129.338 161.892 129.878 162.003C130.417 162.114 130.911 162.379 131.298 162.767C131.685 163.154 131.947 163.646 132.052 164.18C132.157 164.714 132.099 165.267 131.887 165.769C131.674 166.271 131.316 166.7 130.858 167.001C130.399 167.303 129.86 167.464 129.31 167.464C128.564 167.458 127.85 167.161 127.326 166.636C126.802 166.112 126.511 165.403 126.516 164.667Z" stroke="white" stroke-linecap="round" stroke-linejoin="round"/>
<path d="M137.047 35.462C137.055 34.9182 137.225 34.3887 137.536 33.9402C137.848 33.4917 138.287 33.1442 138.798 32.9413C139.309 32.7384 139.869 32.6892 140.408 32.8C140.948 32.9107 141.442 33.1764 141.828 33.5636C142.215 33.9509 142.477 34.4424 142.582 34.9764C142.686 35.5104 142.629 36.063 142.416 36.5648C142.204 37.0666 141.846 37.4951 141.388 37.7965C140.929 38.098 140.391 38.2588 139.84 38.2588C139.094 38.2536 138.381 37.9561 137.857 37.4316C137.333 36.9071 137.042 36.1987 137.047 35.462Z" stroke="white" stroke-linecap="round" stroke-linejoin="round"/>
<path d="M343.422 175.102C343.434 174.21 343.714 173.342 344.224 172.606C344.735 171.87 345.455 171.3 346.293 170.967C347.131 170.635 348.05 170.554 348.935 170.735C349.819 170.917 350.629 171.353 351.264 171.988C351.898 172.623 352.328 173.429 352.5 174.305C352.672 175.181 352.577 176.087 352.229 176.91C351.88 177.733 351.293 178.436 350.541 178.93C349.789 179.425 348.906 179.689 348.003 179.689C346.78 179.68 345.61 179.192 344.751 178.332C343.892 177.472 343.414 176.31 343.422 175.102Z" stroke="white" stroke-linecap="round" stroke-linejoin="round"/>
<path d="M144.74 71.2422H122.773" stroke="white" stroke-width="2.956" stroke-linecap="round" stroke-linejoin="round"/>
<path d="M155.133 64.0391H121.234C120.177 64.0391 119.32 64.8853 119.32 65.9293V73.934C119.32 74.9779 120.177 75.8242 121.234 75.8242H155.133C156.19 75.8242 157.047 74.9779 157.047 73.934V65.9293C157.047 64.8853 156.19 64.0391 155.133 64.0391Z" fill="#FF7866"/>
<path d="M124.773 68.0781H149.326" stroke="white" stroke-width="0.904" stroke-miterlimit="10"/>
<path d="M124.773 71.2422H135.708" stroke="white" stroke-width="0.904" stroke-miterlimit="10"/>
<path d="M123.68 74.5391V78.9616L129.31 74.5391H123.68Z" fill="#FF7866"/>
<path d="M262.219 48.1641H228.32C227.263 48.1641 226.406 49.0103 226.406 50.0543V58.0582C226.406 59.1021 227.263 59.9484 228.32 59.9484H262.219C263.276 59.9484 264.133 59.1021 264.133 58.0582V50.0543C264.133 49.0103 263.276 48.1641 262.219 48.1641Z" fill="#FF7866"/>
<path d="M258.685 52.2031H234.133" stroke="white" stroke-width="0.904" stroke-miterlimit="10"/>
<path d="M258.684 55.3672H247.75" stroke="white" stroke-width="0.904" stroke-miterlimit="10"/>
<path d="M259.771 58.6641V63.0866L254.141 58.6641H259.771Z" fill="#FF7866"/>
<mask id="mask0_4359_17590" style="mask-type:luminance" maskUnits="userSpaceOnUse" x="43" y="45" width="278" height="154">
<path d="M320.866 45.125H43.0938V198.221H320.866V45.125Z" fill="white"/>
</mask>
<g mask="url(#mask0_4359_17590)">
<path d="M113.091 220.434C114.59 208.622 115.445 196.739 115.654 184.836C114.661 184.47 113.762 183.894 113.019 183.148C111.293 181.253 111.533 175.016 111.533 175.016L112.711 173.125L105.131 170.922L104.494 174.43L99.4089 174.84C99.413 177.598 99.4155 180.769 99.413 184.24L95.4922 186.213V191.315L100.219 192.481C100.219 192.481 100.027 203.563 99.2115 209.861C98.8798 212.411 98.1675 215.727 97.4335 218.773C97.8855 222.359 98.2371 224.81 98.2371 224.81C98.2371 224.81 97.3655 232.918 97.3655 239.593C97.3655 246.269 98.2371 265.507 98.2371 265.507V267.35L106.429 267.938L106.969 267.848H107.868C107.991 266.839 107.951 264.643 108.096 263.483C111.132 246.706 113.095 223.745 113.095 223.745C114.506 221.752 113.091 220.434 113.091 220.434Z" fill="#003C61"/>
<path d="M100.211 192.479L95.4844 191.312V198.106C95.7058 204.322 96.6951 213.011 97.4224 218.771C98.1563 215.725 98.8712 212.409 99.2004 209.859C100.022 203.561 100.211 192.479 100.211 192.479Z" fill="#00273D"/>
<path d="M113.021 183.148C113.764 183.894 114.663 184.47 115.655 184.836C115.686 182.248 115.666 180.146 115.625 178.587C115.652 176.779 115.652 175.082 115.613 173.544L114.471 173.635L112.713 173.125L111.535 175.016C111.535 175.016 111.295 181.253 113.021 183.148Z" fill="#00273D"/>
<path d="M102.203 177.266C102.507 175.883 102.623 175.119 102.508 175.119L101.816 175.099L100.603 168.289L88.7126 170.51L92.7388 172.116L88.0873 176C88.0873 176 87.6072 181.067 85.4013 184.477C84.2195 186.304 80.9704 186.58 78.2097 186.443C78.1956 186.578 78.1716 186.717 78.1608 186.852C77.5853 193.672 75.5958 221.442 75.5958 221.445C75.5958 221.445 73.4853 230.075 72.4056 238.599C71.3258 247.123 69.7734 268.255 69.7734 268.255H78.8516C78.8516 268.255 82.7492 253.588 85.7852 243.997C88.8212 234.407 90.0055 222.52 90.0055 222.52C96.308 206.174 99.4526 197.041 99.4526 197.041L103.624 185.248L102.203 177.266Z" fill="#003C61"/>
<path d="M85.3947 184.475C87.6006 181.064 88.0807 175.997 88.0807 175.997L92.7322 172.114L88.706 170.508L83.1896 171.538C83.1896 171.538 82.5743 172.709 81.7715 174.53L81.4672 174.522C81.4672 174.649 81.4415 174.952 81.3942 175.405C79.8267 178.923 78.7531 182.636 78.2031 186.441C80.9638 186.578 84.2129 186.304 85.3947 184.475Z" fill="#00273D"/>
<path d="M72.7874 117.32C70.6736 121.351 64.0949 136.248 62.0391 146.558L79.0477 144.845C81.1914 138.482 83.4429 126.219 86.2815 119.53L72.7874 117.32Z" fill="white"/>
<path d="M104.525 174.525C94.5738 176.163 85.1847 173.341 80.8906 171.725L81.1096 174.614C81.1282 174.868 81.2241 175.111 81.3849 175.31C81.5456 175.509 81.7636 175.656 82.0102 175.73C86.4651 177.075 107.53 182.79 116.098 173.472C116.301 173.248 116.415 172.959 116.42 172.658C116.459 170.998 116.511 169.28 116.571 167.523C113.605 171.287 109.297 173.791 104.525 174.525Z" fill="white"/>
<path d="M117.223 133.692L114.063 121.914L81.3287 123.626L78.4453 135.164L79.9612 159.451L80.8892 171.727C85.1816 173.344 94.5724 176.167 104.524 174.527C109.296 173.793 113.605 171.289 116.572 167.526C117.034 154.056 117.99 143.178 117.223 133.692Z" fill="white"/>
<path d="M105.363 106.148C105.553 108.927 104.834 112.958 99.1032 113.11C90.3277 113.346 89.7323 106.727 89.7323 106.727C82.0507 110.887 71.853 113.581 71.9857 120.608C71.9857 120.608 72.2585 126.416 76.317 126.341L96.8774 125.944L105.39 125.544C117.038 125.544 117.038 119.221 117.038 119.221C116.623 113.107 112.227 110.921 105.363 106.148Z" fill="white"/>
<path d="M99.1003 113.11C104.831 112.955 105.55 108.924 105.361 106.148C103.751 105.355 102.189 104.47 100.683 103.499C99.3963 102.648 96.8322 101.633 96.401 101.84C95.9615 101.649 94.3095 103.783 93.0581 104.683C91.9953 105.435 90.8851 106.118 89.7344 106.731C89.7344 106.731 90.3248 113.346 99.1003 113.11Z" fill="white"/>
<path d="M92.7779 101.777C92.691 99.1963 92.4311 96.6245 92 94.0781L101.833 94.5933L102.685 104.257C99.1912 104.593 95.6877 103.716 92.7779 101.777Z" fill="#EFAD9C"/>
<path d="M102.688 104.255L102.905 106.7C103.188 112.767 92.7576 110.164 92.3828 106.398C92.7231 104.881 92.857 103.326 92.7809 101.773C95.6906 103.713 99.1941 104.591 102.688 104.255Z" fill="#FFCFC0"/>
<path d="M103.493 102.196C103.493 102.196 104.862 90.9141 103.721 87.6955L101.731 74.428C100.591 71.2094 97.8332 68.3979 94.7275 68.9228L87.0982 70.2103C83.9892 70.7352 81.7559 74.6057 82.8962 77.8268L90.2834 96.5151C91.4229 99.7304 95.4897 103.47 103.493 102.196Z" fill="#EFAD9C"/>
<path d="M103.598 102.188L103.804 102.171C108.293 101.413 110.609 96.4909 109.842 92.057L107.686 71.91C107.589 71.364 107.278 70.8778 106.82 70.5576C106.362 70.2373 105.794 70.1091 105.241 70.2008L90.0151 72.7708C88.8666 72.9649 86.6831 74.2974 86.8796 75.4316L90.9945 92.7056C92.0477 98.807 97.4157 103.231 103.598 102.188Z" fill="#FFCFC0"/>
<path d="M107.363 83.176C107.632 84.3168 107.264 85.3758 106.541 85.542C105.818 85.7083 105.014 84.9188 104.745 83.7788C104.475 82.6388 104.843 81.579 105.566 81.4127C106.29 81.2465 107.093 82.036 107.363 83.176Z" fill="#00273D"/>
<path d="M97.0181 85.3606C97.3448 86.4859 97.0314 87.5628 96.3182 87.7643C95.605 87.9658 94.7608 87.218 94.4341 86.0927C94.1073 84.9675 94.4208 83.8905 95.134 83.689C95.8472 83.4876 96.6905 84.2353 97.0181 85.3606Z" fill="#00273D"/>
<path d="M85 92.9432C86.4098 94.8891 88.566 95.749 89.8182 94.8637C89.9412 94.7775 90.0526 94.6762 90.1499 94.5623C91.0356 93.5296 90.8133 91.492 89.542 89.7377C88.1322 87.7918 85.9761 86.9319 84.7239 87.8172C83.4717 88.7025 83.5936 91.0006 85 92.9432Z" fill="#EFAD9C"/>
<path d="M94 88.3186C94 88.3186 94.2347 87.2335 96.0442 86.6643C97.2869 86.3779 98.5939 86.5871 99.6814 87.2466L97.245 88.9018L94 88.3186Z" fill="#FFCFC0"/>
<path d="M103.297 86.0999C103.297 86.0999 103.532 85.0147 105.341 84.4456C106.584 84.1591 107.891 84.3684 108.978 85.0278L106.542 86.683L103.297 86.0999Z" fill="#FFCFC0"/>
<path d="M76.6094 73.4455C76.6094 73.4455 83.6583 65.9166 91.7852 63.7316C99.9122 61.5466 108.868 62.3082 108.868 62.3082C108.868 62.3082 110.874 66.1574 108.57 73.8493C108.57 73.8493 107.383 75.0679 102.068 76.1924C98.0128 76.9085 93.8969 77.2376 89.7776 77.1752C89.1606 86.0669 88.2633 88.9046 88.2633 88.9046L86.4281 89.3886C83.8136 86.7242 81.871 83.4893 80.7575 79.9458L76.6094 73.4455Z" fill="#00273D"/>
<path d="M99.6797 95.2145C99.6797 95.2145 103.324 95.1482 104.697 94.5855C105.53 94.2439 106.337 93.8446 107.113 93.3906C107.113 93.3906 106.148 96.2259 104.444 96.7886C102.74 97.3512 99.6797 95.2145 99.6797 95.2145Z" fill="white"/>
<path d="M63.7098 145.645C59.7483 162.919 80.3195 186.454 80.3195 186.454C80.3195 186.454 83.3273 186.8 84.6458 185.616C85.4653 184.839 86.0435 183.848 86.3127 182.758C86.3127 182.758 81.4572 175.908 79.3708 170.011C77.2843 164.114 73.2565 155.306 73.2565 155.306C73.2565 155.306 76.7817 148.7 79.083 137.902C79.083 137.902 67.3271 129.875 63.7098 145.645Z" fill="#FFCFC0"/>
<path d="M62.3083 145.3L64.9188 138.493C64.9188 138.493 69.9534 132.952 70.0977 132.857C70.242 132.763 80.1196 132.289 80.1196 132.289C80.6914 136.5 80.3263 140.783 79.0498 144.84C77.986 148.306 76.7008 151.703 75.2019 155.008C75.9906 157.65 76.3165 160.693 78.2031 165.754C80.8759 172.92 86.3185 182.757 86.3185 182.757C85.4121 187.794 79.7763 186.5 79.7763 186.5C79.7763 186.5 64.6485 169.59 62.3083 156.962C61.4181 153.125 61.4181 149.138 62.3083 145.3Z" fill="white"/>
<path d="M103.246 91.7362C104.094 91.5613 104.856 91.1091 105.411 90.4529C105.5 90.3065 105.557 90.1436 105.578 89.9745C105.6 89.8053 105.586 89.6336 105.537 89.4701C105.205 88.344 103.772 88.1917 103.12 88.1819L102.006 84.9297L101.234 85.1877L102.545 89.0139L102.86 88.991C102.876 88.991 104.518 88.896 104.754 89.6937C104.773 89.753 104.779 89.8156 104.771 89.8773C104.763 89.939 104.741 89.9982 104.707 90.0508C104.263 90.5102 103.686 90.8245 103.055 90.9517L103.246 91.7362Z" fill="#EFAD9C"/>
<path d="M160.837 120.978C162.753 119.601 164.484 117.99 165.991 116.184C164.591 114.452 160.505 109.446 158.231 111.118C157.139 111.922 157.097 113.084 155.803 113.592C155.554 113.402 155.222 113.183 154.939 112.977C154.65 113.216 154.359 113.438 154.049 113.649C153.83 114.482 153.391 115.243 152.778 115.855C151.042 117.359 149.159 118.574 147.773 120.442C149.696 121.324 151.582 122.3 153.487 123.226C156.13 123.362 158.735 122.565 160.837 120.978Z" fill="#FFCFC0"/>
<path d="M138.469 134.485C138.447 134.501 138.386 134.517 138.363 134.532C144.352 131.493 150.129 128.06 155.653 124.256C153.497 121.502 151.288 119.147 149.169 116.367C145.307 118.84 139.917 122.645 135.32 124.74C141.694 127.056 145.967 129.29 138.469 134.485Z" fill="white"/>
<path d="M131.88 128.323C125.59 123.057 119.646 117.461 113.456 112.086C111.684 113.298 109.902 114.497 108.132 115.712C107.57 115.438 107.007 115.167 106.42 114.947C106.363 115.635 106.299 116.32 106.246 117.01C105.807 117.355 105.329 117.648 104.822 117.884C103.863 118.144 85.7432 113.998 94.0751 119.031C102.407 124.064 116.217 133.275 125.945 137.345C126.215 137.458 126.473 137.555 126.738 137.662L131.88 128.32L131.88 128.323Z" fill="white"/>
<path d="M153.533 125.673C152.273 124.935 149.953 126.568 148.99 125.032C148.027 123.496 148.204 119.659 147.538 117.672C141.515 120.915 135.28 123.533 129.055 126.46L129.993 137.052C139.832 135.092 145.487 130.788 153.533 125.673Z" fill="white"/>
<path d="M143.989 131.685C140.014 133.806 135.921 135.704 131.729 137.369C129.403 138.172 126.85 138.035 124.626 136.987C119.63 134.608 114.78 131.941 110.102 128.999L115.458 121.812L129.46 126.273L143.989 131.685Z" fill="white"/>
<path d="M154.697 104.594L167.429 119.203L161.113 122.209L150.305 109.984L154.697 104.594Z" fill="#00273D"/>
<path d="M155.321 106.547L165.185 117.527L160.449 119.713L152.023 110.458L155.321 106.547Z" fill="white"/>
<path d="M156.046 104.023L154.695 104.597L167.426 119.206L168.305 118.068L156.046 104.023Z" fill="#00273D"/>
<path d="M166.238 114.471C164.891 112.821 163.096 110.772 161.65 109.199C161.523 109.027 161.358 108.886 161.167 108.786C160.977 108.687 160.766 108.632 160.55 108.626C160.334 108.619 160.12 108.662 159.924 108.751C159.728 108.839 159.555 108.971 159.418 109.135C158.956 109.555 158.535 110.017 158.161 110.515C157.928 110.77 157.801 111.102 157.805 111.445C157.809 111.788 157.943 112.117 158.182 112.366C159.444 113.815 161.042 115.59 162.269 117.079C162.489 117.344 162.793 117.526 163.132 117.595C163.471 117.664 163.824 117.617 164.132 117.46C164.726 117.236 165.3 116.962 165.847 116.641C166.049 116.554 166.226 116.418 166.362 116.247C166.498 116.075 166.59 115.874 166.629 115.659C166.667 115.445 166.652 115.224 166.584 115.017C166.515 114.81 166.396 114.622 166.238 114.471Z" fill="#FFCFC0"/>
<path d="M153.621 112.619C153.481 113.447 153.289 114.265 153.048 115.07C152.93 115.707 152.92 116.36 153.018 117.001C153.046 117.219 152.887 117.282 152.858 117.389C152.474 118.848 153.979 118.318 154.822 117.992C154.949 118.104 155.127 117.885 155.146 117.858C155.229 117.74 156.638 116.852 156.399 116.827C155.544 116.745 155.95 114.586 155.984 113.848C155.995 113.427 155.939 113.006 155.818 112.602C155.676 112.226 155.418 111.726 154.855 111.724C154.715 111.702 154.571 111.708 154.433 111.741C154.294 111.774 154.164 111.834 154.049 111.917C153.934 112.001 153.837 112.105 153.764 112.226C153.69 112.346 153.641 112.48 153.621 112.619Z" fill="#FFCFC0"/>
<path d="M102.685 104.711L105.836 106.142L107.118 112.745L100.312 110.169C100.312 110.169 103.359 109.635 102.685 104.711Z" fill="#F4EDED"/>
<path d="M92.6494 104.977L88.5859 106.997L95.8007 115.115L100.31 110.175C100.31 110.175 94.2043 110.846 92.6494 104.977Z" fill="#F4EDED"/>
<path d="M98.1328 112.553L101.882 115.036L103.664 111.443L100.307 110.172L98.1328 112.553Z" fill="#FF7866"/>
<path d="M100.811 113.472L97.7422 146.472L105.537 154.938L108.938 145.385L102.454 113.117L100.811 113.472Z" fill="#FF7866"/>
<path d="M186.698 86.1284L184.137 88.3069C183.347 88.8573 182.473 89.2793 181.548 89.5566L181.112 89.9481C179.551 91.1766 179.479 89.8343 179.763 88.4125C179.663 88.2921 179.662 88.1668 179.856 87.9957C180.121 86.9032 180.533 85.9097 180.57 86.1661C180.698 87.071 182.208 85.8221 183.897 84.664C184.32 84.3564 184.793 84.1218 185.295 83.9704C185.582 83.8397 185.908 83.8159 186.211 83.9035C186.515 83.991 186.776 84.184 186.947 84.4468C187.118 84.7096 187.187 85.0245 187.141 85.3335C187.095 85.6425 186.938 85.9248 186.698 86.1284Z" fill="#E8988B"/>
<path d="M174.902 87.2431L175.306 84.4135C175.306 84.4135 184.458 79.8878 184.316 82.7403C184.25 84.0507 184.035 85.3283 184.051 86.307L185.056 86.542L184.947 87.6198C184.259 88.3007 183.678 89.0781 183.221 89.9268C182.216 92.1381 180.595 96.6482 180.595 96.6482L175.667 93.7589C174.276 92.0193 174.294 89.3765 174.902 87.2431Z" fill="#E8988B"/>
<path d="M199.765 100.722C196.635 109.934 199.184 118.851 208.051 123.072C216.918 127.293 225.823 125.005 230.098 116.253C234.372 107.5 230.001 99.2378 221.141 95.0175C212.282 90.7973 202.894 91.5107 199.765 100.722Z" fill="#00273D"/>
<path d="M174.289 124.026C175.507 127.233 176.936 130.359 178.566 133.383C183.186 141.737 188.707 141.827 194.47 136.054C191.089 130.759 188.183 125.151 183.152 121.312L174.289 124.026Z" fill="#E8988B"/>
<path d="M183.181 122.199C184.416 117.308 184.705 112.232 184.034 107.235C183.243 102.34 182.064 98.1028 181.753 93.2225C180.726 92.709 179.981 92.1349 178.685 92.1652C177.389 92.1955 176.301 91.9867 175.309 93.0661C175.303 101.759 174.01 114.12 174.29 124.036L183.179 122.202L183.181 122.199Z" fill="#E8988B"/>
<path d="M206.273 211.954L207.638 204.299C207.346 202.972 207.235 202.239 207.345 202.239L208.008 202.221L209.169 195.688L220.577 197.817L216.714 199.358L221.176 203.084C221.176 203.084 221.637 207.945 223.753 211.216C224.888 212.97 228.004 213.234 230.652 213.1C230.666 213.23 230.689 213.363 230.7 213.492C231.075 217.936 232.075 231.648 232.679 239.991L216.832 241.152C212.46 229.605 210.274 223.267 210.274 223.267L206.273 211.954Z" fill="#003C61"/>
<path d="M223.758 211.22C221.641 207.949 221.181 203.087 221.181 203.087L216.719 199.362L220.582 197.82L225.874 198.809C225.874 198.809 226.464 199.933 227.233 201.675L227.526 201.667C227.526 201.79 227.551 202.081 227.596 202.515C229.1 205.89 230.13 209.452 230.657 213.103C228.009 213.238 224.892 212.973 223.758 211.22Z" fill="#00273D"/>
<path d="M192.297 152.449L196.251 151.195L227.654 152.837L230.42 163.908L228.966 187.204L228.075 198.98L227.865 201.753C227.848 201.996 227.756 202.229 227.602 202.42C227.447 202.611 227.239 202.751 227.002 202.823C222.728 204.114 202.52 209.596 194.3 200.658C194.106 200.442 193.996 200.165 193.991 199.876C193.954 198.283 193.904 196.635 193.846 194.95C193.4 182.031 189.504 163.61 192.297 152.449Z" fill="white"/>
<path d="M222.007 137.859C221.178 137.457 220.363 137.047 219.575 136.621C219.575 136.621 219.008 142.971 210.589 142.745C205.091 142.596 204.401 138.732 204.582 136.062C203.803 136.456 203.067 136.838 202.364 137.214C196.652 140.271 193.501 142.942 193.383 148.605C193.383 148.605 193.383 154.671 204.557 154.671L212.721 155.051L232.445 155.432C236.343 155.507 236.6 149.936 236.6 149.936C236.715 143.917 228.924 141.211 222.007 137.859Z" fill="white"/>
<path d="M210.594 142.745C205.097 142.597 204.406 138.732 204.588 136.063C206.132 135.303 207.631 134.456 209.076 133.524C210.31 132.705 212.769 131.734 213.183 131.932C213.605 131.75 215.19 133.797 216.391 134.66C217.41 135.381 218.475 136.038 219.578 136.626C219.578 136.626 219.013 142.975 210.594 142.745Z" fill="#E8988B"/>
<path d="M217.053 136.308C216.693 139.921 206.687 142.418 206.959 136.598L207.984 124.984L217.417 124.492C216.612 129.512 216.369 133.77 217.053 136.308Z" fill="#E8988B"/>
<path d="M206.381 132.276C206.381 132.276 205.067 121.452 206.162 118.365L208.074 105.639C209.169 102.552 211.811 99.8541 214.792 100.358L222.109 101.593C225.095 102.096 227.234 105.81 226.14 108.897L219.053 126.826C217.961 129.914 214.059 133.501 206.381 132.276Z" fill="#DD7F72"/>
<path d="M206.285 132.267L206.087 132.251C201.78 131.524 199.56 126.801 200.295 122.548L202.368 103.22C202.461 102.697 202.76 102.231 203.199 101.924C203.639 101.617 204.183 101.495 204.714 101.582L219.321 104.048C220.423 104.234 222.517 105.513 222.328 106.6L218.381 123.172C217.366 129.023 212.216 133.268 206.285 132.267Z" fill="#E8988B"/>
<path d="M202.678 114.034C202.42 115.128 202.773 116.144 203.467 116.304C204.161 116.463 204.931 115.706 205.19 114.612C205.449 113.518 205.096 112.501 204.401 112.342C203.707 112.182 202.937 112.939 202.678 114.034Z" fill="#00273D"/>
<path d="M212.601 116.127C212.287 117.207 212.588 118.24 213.272 118.433C213.956 118.627 214.765 117.909 215.079 116.83C215.393 115.75 215.092 114.717 214.408 114.524C213.724 114.33 212.915 115.05 212.601 116.127Z" fill="#00273D"/>
<path d="M224.132 123.408C222.782 125.275 220.713 126.1 219.51 125.25C219.392 125.167 219.285 125.07 219.192 124.961C218.342 123.97 218.559 122.013 219.773 120.333C221.123 118.467 223.192 117.641 224.395 118.49C225.598 119.34 225.482 121.543 224.132 123.408Z" fill="#DD7F72"/>
<path d="M215.498 118.973C215.498 118.973 215.272 117.932 213.537 117.386C212.344 117.111 211.09 117.312 210.047 117.944L212.384 119.532L215.498 118.973Z" fill="#E8988B"/>
<path d="M206.575 116.84C206.575 116.84 206.35 115.799 204.614 115.253C203.422 114.978 202.168 115.179 201.125 115.811L203.462 117.4L206.575 116.84Z" fill="#E8988B"/>
<path d="M227.789 101.425C225.846 96.9029 220.159 96.8497 213.835 95.8153C213.61 95.7785 213.39 95.7408 213.172 95.7031C207.636 96.2764 202.051 98.26 201.579 103.647C201.558 103.888 201.515 104.127 201.453 104.361C201.486 104.819 201.513 105.087 201.513 105.087C201.513 105.087 202.651 106.256 207.75 107.335C211.641 108.022 215.589 108.338 219.541 108.279C220.133 116.809 220.994 119.531 220.994 119.531L222.754 119.996C225.361 115.758 229.732 105.946 227.789 101.425Z" fill="#00273D"/>
<path d="M244.546 173.959C248.347 190.532 228.612 213.107 228.612 213.107C228.612 213.107 225.727 213.434 224.466 212.303C223.68 211.558 223.125 210.607 222.867 209.561C222.867 209.561 227.525 202.989 229.526 197.332C231.527 191.676 235.392 183.225 235.392 183.225C232.826 177.914 230.948 172.304 229.802 166.529C229.802 166.529 241.077 158.83 244.546 173.959Z" fill="#E8988B"/>
<path d="M234.444 144.721C240.812 151.596 243.609 168.913 243.609 168.913C243.609 168.913 240.213 174.072 230.562 173.915C230.562 173.915 226.882 165.763 224.268 158.865C220.253 148.27 227.091 136.781 234.444 144.721Z" fill="#FF7866"/>
<path d="M199.581 136.267C201.304 139.199 202.392 142.453 202.776 145.822C203.364 151.309 198.404 158.346 198.404 158.346C190.749 151.521 184.129 143.643 178.75 134.953C178.75 134.953 178.926 128.623 187.333 124.562C191.73 128.13 195.826 132.044 199.581 136.267Z" fill="#FF7866"/>
<path d="M200.151 138.469C200.151 138.469 192.168 143.603 191.505 158.862C191.085 168.491 216.977 169.709 216.977 169.709L200.151 138.469Z" fill="white"/>
<path d="M202.368 137.224C201.176 136.926 200.045 136.427 199.024 135.75C198.266 138.624 197.077 141.369 195.497 143.896C192.843 148.179 200.763 153.078 200.763 153.078C200.763 153.078 202.985 145.363 202.911 145.253C202.836 145.144 202.368 137.224 202.368 137.224Z" fill="white"/>
<path d="M206.383 122.248L206.566 121.497C205.958 121.379 205.404 121.075 204.981 120.629C204.949 120.578 204.929 120.521 204.921 120.462C204.913 120.403 204.919 120.343 204.937 120.286C205.126 119.641 206.347 119.585 206.753 119.613L207.057 119.636L208.313 115.964L207.573 115.719L206.505 118.838C205.879 118.848 204.503 118.994 204.183 120.074C204.135 120.231 204.122 120.396 204.142 120.559C204.163 120.722 204.217 120.878 204.302 121.019C204.836 121.648 205.569 122.081 206.383 122.248Z" fill="#DD7F72"/>
<path d="M206.353 126.932C207.383 126.876 208.389 126.613 209.312 126.159L208.958 125.47C208.94 125.48 207.004 126.438 205.724 126.083C204.808 125.724 204.026 125.095 203.485 124.281L202.828 124.7C203.472 125.671 204.412 126.414 205.513 126.823C205.786 126.897 206.069 126.934 206.353 126.932Z" fill="#DD7F72"/>
<path d="M175.008 86.4557C176.003 79.3092 176.881 76.1046 177.935 75.7434C178.989 75.3822 182.466 75.1062 183.782 75.5796C185.098 76.053 184.251 83.3951 184.251 83.3951L180.03 88.264L175.008 86.4557Z" fill="#E8988B"/>
<path d="M300.743 88.7661C299.53 99.3875 312.134 110.229 291.314 110.777C270.495 111.325 263.769 109.707 266.929 101.201C270.088 92.694 271.158 88.5639 270.636 84.9587C270.115 81.3535 267.717 72.0745 276.332 67.6413C284.946 63.2082 303.556 64.1189 300.743 88.7661Z" fill="#00273D"/>
<path d="M284.631 109.08C283.543 109.045 282.513 108.585 281.768 107.801C281.023 107.016 280.624 105.972 280.658 104.897L280.985 94.8047L289.195 95.0635L288.868 105.157C288.851 105.689 288.728 106.213 288.506 106.698C288.283 107.184 287.966 107.621 287.573 107.985C287.18 108.349 286.717 108.634 286.212 108.821C285.708 109.009 285.17 109.097 284.631 109.08Z" fill="#FFCFC0"/>
<path d="M303.588 259.347H303.597C303.597 259.347 303.222 233.988 302.768 226.371C302.313 218.754 300.273 215.806 300.273 215.806C300.273 215.806 299.834 191.673 298.882 178.319C298.6 174.362 296.843 172.197 294.517 171.098L293.1 159.822L279.844 155.524L278.805 155.188L279.597 159.476L281.797 171.392C280.831 171.689 280.239 171.921 280.239 171.921C280.239 171.921 279.908 189.507 290.243 217.143C292.171 231.446 294.825 245.644 298.193 259.684L298.664 259.654L298.756 260.111L303.666 260.432L303.588 259.347Z" fill="#E8988B"/>
<path d="M271.338 260.708H271.346C271.346 260.708 275.695 235.713 276.662 228.142C277.629 220.571 276.175 217.301 276.175 217.301C276.175 217.301 280.233 193.499 281.78 180.201C282.239 176.26 280.914 173.813 278.833 172.311L279.539 160.974L267.308 154.34L266.35 153.82L266.33 158.18L266.277 170.292C265.271 170.41 264.647 170.53 264.647 170.53C264.647 170.53 261.049 187.756 266.069 216.798C265.304 231.206 265.272 245.644 265.971 260.056L266.44 260.113L266.445 260.579L271.212 261.785L271.338 260.708Z" fill="#E8988B"/>
<path d="M302.538 178.936C298.535 168.862 300.906 154.798 291.736 146.301C291.361 145.909 290.948 145.554 290.504 145.242L290.282 142.954L286.287 143.19C284.185 142.726 282.027 142.554 279.876 142.681C274.824 142.89 271.939 143.599 270.448 144.123L269.152 144.199C269.152 144.199 268.83 144.81 268.339 145.901C263.313 153.888 262.558 162.04 262.084 171.059C261.587 180.522 257.016 227.247 257.016 227.247C257.016 227.247 266.159 234.02 280.771 232.548C295.383 231.076 301.399 228.327 308.655 229.308C308.655 229.31 307.18 190.619 302.538 178.936Z" fill="#FF7866"/>
<path d="M289.48 104.672C288.352 103.924 287.053 103.466 285.701 103.34C284.349 103.214 282.986 103.424 281.737 103.95C278.723 105.425 275.751 106.306 273.43 107.448C273.927 108.93 274.229 110.56 274.611 111.876C275.248 114.139 275.755 116.435 276.13 118.755L284.16 119.471L299.705 120.92C302.773 121.206 303.265 117.328 303.265 117.328C303.776 111.902 294.979 108.784 289.48 104.672Z" fill="#FFCFC0"/>
<path d="M278.672 78.2109C284.262 78.2344 289.853 78.253 295.443 78.2666L292.338 92.2712C291.872 95.4374 289.497 99.6281 281.895 99.8697C281.895 99.8697 278.586 89.7225 279.052 86.5572L278.672 78.2109Z" fill="#EFAD9C"/>
<path d="M291.912 78.2661L291.143 88.9375C291.278 94.7465 287.686 99.748 281.804 99.8831L281.61 99.9036C279.553 99.9084 277.576 99.1087 276.114 97.6791C274.651 96.2495 273.821 94.3062 273.804 92.274L272.703 78.1875C279.106 78.2214 285.509 78.2476 291.912 78.2661Z" fill="#FFCFC0"/>
<path d="M275.104 84.1463C275.063 85.2446 275.594 86.1544 276.29 86.1798C276.985 86.2052 277.582 85.3355 277.624 84.238C277.665 83.1406 277.134 82.2291 276.438 82.2037C275.742 82.1783 275.146 83.048 275.104 84.1463Z" fill="#00273D"/>
<path d="M285.028 84.3222C284.931 85.4163 285.415 86.3516 286.106 86.4114C286.797 86.4712 287.44 85.6325 287.537 84.5384C287.633 83.4442 287.149 82.5081 286.458 82.4483C285.768 82.3885 285.125 83.2272 285.028 84.3222Z" fill="#00273D"/>
<path d="M297.25 88.0805C296.308 90.1214 294.478 91.295 293.162 90.7012C293.034 90.6428 292.913 90.5691 292.803 90.4817C291.799 89.6873 291.636 87.7709 292.485 85.9315C293.427 83.8906 295.258 82.7161 296.574 83.3107C297.889 83.9053 298.192 86.0387 297.25 88.0805Z" fill="#EFAD9C"/>
<path d="M288.641 86.3088C288.641 86.3088 288.177 85.3071 286.299 85.1409C285.031 85.1278 283.809 85.6089 282.898 86.4799L285.621 87.5651L288.641 86.3088Z" fill="#FFCFC0"/>
<path d="M279.148 86.1369C279.148 86.1369 278.684 85.1345 276.806 84.969C275.539 84.9557 274.317 85.4365 273.406 86.3072L276.129 87.3932L279.148 86.1369Z" fill="#FFCFC0"/>
<path d="M286.609 82.6984L288.152 82.5469L287.216 83.5166L286.609 82.6984Z" fill="#00273D"/>
<path d="M276.207 82.3516L274.656 82.3597L275.694 83.2279L276.207 82.3516Z" fill="#00273D"/>
<path d="M286.484 82.6205L287.243 82.0391L287.164 82.9088L288.152 83.288L287.352 83.8777L286.484 82.6205Z" fill="#00273D"/>
<path d="M276.198 82.4096L275.439 81.8281L275.518 82.6979L274.531 83.0771L275.466 83.471L276.198 82.4096Z" fill="#00273D"/>
<path d="M280.039 94.4891C279.504 94.4896 278.969 94.4579 278.438 94.3941L278.535 93.6758C279.475 93.7885 280.426 93.7885 281.367 93.6758C282.14 93.5466 282.853 93.1851 283.409 92.6406L283.951 93.132C283.283 93.8016 282.416 94.2441 281.476 94.3957C281 94.4615 280.52 94.4927 280.039 94.4891Z" fill="#EFAD9C"/>
<path d="M284.528 93.8394C284.118 93.6737 283.756 93.4113 283.474 93.0753C283.191 92.7394 282.996 92.34 282.906 91.9123L283.629 91.7969C283.699 92.1031 283.843 92.388 284.049 92.6274C284.254 92.8667 284.516 93.0533 284.81 93.1711L284.528 93.8394Z" fill="#EFAD9C"/>
<path d="M294.935 108.305L280.197 118.841L275.261 106.336C274.751 106.511 274.231 106.665 273.7 106.799L271.733 112.869C270.93 115.39 269.715 117.765 268.136 119.899C266.106 122.615 263.93 126.959 267.596 131.654C269.586 134.199 269.594 139.776 269.105 144.722C275.491 147.278 287.399 145.714 290.506 145.243L298.55 120.838L294.935 108.305Z" fill="#003C61"/>
<path d="M268.172 132.383C268.172 132.383 270.403 134.676 276.016 133.71C275.029 134.445 273.889 134.953 272.678 135.197C271.467 135.441 270.216 135.414 269.017 135.119L268.172 132.383Z" fill="#00273D"/>
<path d="M280.797 133.272C280.797 133.272 288.253 135.783 292.372 132.617L290.345 135.801C290.345 135.801 284.509 136.495 280.797 133.272Z" fill="#00273D"/>
<path d="M296.276 127.717L294.493 120.828C293.481 126.359 293.798 131.952 289.912 135.581C289.817 135.871 289.717 136.158 289.613 136.442C288.688 138.974 288.535 142.697 288.133 145.561C289.14 145.439 289.957 145.323 290.502 145.24L296.276 127.717Z" fill="#00273D"/>
<path d="M294.571 90.5154C294.571 90.7054 294.513 90.8911 294.407 91.0491C294.3 91.207 294.148 91.3302 293.97 91.4029C293.792 91.4756 293.597 91.4946 293.408 91.4576C293.219 91.4205 293.046 91.329 292.91 91.1946C292.774 91.0603 292.681 90.8891 292.644 90.7028C292.606 90.5164 292.625 90.3233 292.699 90.1477C292.773 89.9722 292.897 89.8221 293.057 89.7166C293.217 89.611 293.405 89.5547 293.598 89.5547C293.856 89.5547 294.103 89.6559 294.286 89.8361C294.468 90.0162 294.571 90.2606 294.571 90.5154Z" fill="white"/>
<path d="M295.071 163.078C295.085 163.242 295.095 163.399 295.11 163.56C293.932 165.328 293.014 167.253 292.383 169.275C292.678 169.394 292.734 169.647 293.168 169.391C293.702 168.905 294.139 168.324 294.455 167.678C294.342 169.116 293.46 172.137 293.935 173.315C294.233 173.884 294.739 174.321 295.351 174.535C295.963 174.749 296.635 174.724 297.229 174.466C298.345 173.933 298.981 170.871 299.088 169.175C299.195 167.479 298.962 166.855 298.626 164.28C298.619 164.236 298.614 164.185 298.608 164.139C298.66 163.796 298.712 163.458 298.763 163.116L295.071 163.078Z" fill="#FFCFC0"/>
<path d="M309.512 134.659C309.139 130.902 307.158 123.347 305.833 121.047C305.32 121.266 305.335 121.858 304.808 121.965C304.411 122.013 304.008 121.991 303.618 121.9C301.606 122.59 299.478 121.858 297.445 122.469C299.181 127.419 300.981 132.343 302.903 137.227L309.805 137.324C309.792 137.263 309.518 134.722 309.512 134.659Z" fill="#FFCFC0"/>
<path d="M309.811 137.322L304.013 133.391C302.442 136.871 301.085 140.441 299.95 144.083C298.017 150.175 296.463 156.378 295.297 162.658L298.922 163.622C303.024 154.097 305.82 147.29 309.811 137.322Z" fill="#FFCFC0"/>
<path d="M298.803 164.627C297.574 164.292 296.136 163.897 294.905 163.556C294.827 163.537 294.752 163.502 294.687 163.454C294.621 163.407 294.566 163.346 294.525 163.278C294.483 163.209 294.455 163.132 294.444 163.053C294.432 162.973 294.437 162.892 294.457 162.814C294.476 162.64 294.524 162.47 294.6 162.311C294.622 162.234 294.661 162.162 294.712 162.1C294.763 162.037 294.827 161.986 294.898 161.947C294.97 161.909 295.049 161.886 295.13 161.878C295.211 161.87 295.293 161.878 295.371 161.902C296.6 162.237 298.037 162.632 299.268 162.973C299.347 162.992 299.421 163.027 299.486 163.074C299.55 163.122 299.605 163.182 299.647 163.25C299.688 163.318 299.716 163.394 299.728 163.473C299.74 163.552 299.736 163.633 299.716 163.71C299.698 163.885 299.65 164.055 299.574 164.214C299.552 164.291 299.514 164.364 299.463 164.426C299.411 164.489 299.348 164.541 299.276 164.58C299.204 164.618 299.126 164.642 299.044 164.65C298.963 164.658 298.881 164.65 298.803 164.627Z" fill="#00273D"/>
<path d="M241.153 81.3052C241.071 81.1676 240.988 81.0284 240.9 80.8916C241.144 78.7888 241.086 76.6623 240.727 74.5756C240.41 74.6018 240.244 74.4004 239.973 74.8213C239.717 75.4925 239.592 76.2056 239.605 76.9228C239.05 75.5887 238.462 72.5003 237.498 71.6592C236.972 71.2829 236.321 71.1187 235.677 71.2001C235.033 71.2815 234.445 71.6024 234.032 72.0974C233.28 73.0687 234.109 76.0858 234.787 77.6484C235.465 79.2111 235.957 79.6623 237.432 81.8113L237.515 81.9301C237.625 82.2577 237.733 82.5853 237.847 82.9129L241.153 81.3052Z" fill="#FFCFC0"/>
<path d="M252.8 110.129C255.883 112.362 262.904 115.944 265.522 116.504C265.698 115.981 265.245 115.594 265.513 115.138C265.78 114.683 266.028 114.623 266.355 114.305C267.178 112.365 269.15 111.288 270.045 109.385C265.153 107.36 260.237 105.398 255.271 103.555L250.594 108.568C250.648 108.599 252.747 110.092 252.8 110.129Z" fill="#FFCFC0"/>
<path d="M250.596 108.573L257.432 106.935C255.855 103.457 254.066 100.078 252.076 96.8137C248.77 91.3278 245.128 86.0467 241.169 81L238.023 83.0229C242.47 92.3888 245.74 98.9857 250.596 108.573Z" fill="#FFCFC0"/>
<path d="M237.338 82.256C238.41 81.5755 239.667 80.7819 240.743 80.1062C240.81 80.0608 240.886 80.029 240.965 80.0127C241.045 79.9964 241.127 79.9958 241.207 80.011C241.287 80.0263 241.363 80.057 241.431 80.1014C241.499 80.1459 241.557 80.2032 241.602 80.27C241.721 80.3999 241.817 80.5486 241.886 80.7098C241.929 80.7783 241.958 80.8544 241.97 80.9339C241.983 81.0133 241.979 81.0944 241.96 81.1724C241.94 81.2505 241.906 81.324 241.857 81.3887C241.809 81.4534 241.748 81.508 241.678 81.5493C240.606 82.2298 239.349 83.0234 238.273 83.6991C238.206 83.7445 238.131 83.7762 238.051 83.7926C237.971 83.8089 237.889 83.8095 237.809 83.7942C237.73 83.779 237.654 83.7483 237.586 83.7038C237.518 83.6594 237.46 83.6021 237.415 83.5353C237.295 83.4054 237.199 83.2564 237.13 83.0947C237.087 83.0262 237.059 82.9501 237.046 82.8708C237.034 82.7915 237.037 82.7105 237.057 82.6325C237.076 82.5545 237.111 82.4811 237.159 82.4165C237.207 82.3519 237.268 82.2973 237.338 82.256Z" fill="#00273D"/>
<path d="M279.226 90.0927C279.032 90.0468 277.34 89.6177 277.577 88.5514C277.743 87.8077 278.578 87.5956 279.059 87.5342L279.513 85.0625L280.288 85.2009L279.719 88.2827H279.395C279.096 88.2868 278.416 88.4015 278.346 88.7143C278.305 88.9011 278.895 89.2106 279.408 89.3327L279.226 90.0927Z" fill="#EFAD9C"/>
<path d="M294.237 83.7447C292.369 85.6177 292.145 86.8806 292.145 86.8806C292.145 86.8806 292.311 80.4532 287.985 79.6187C283.66 78.7841 279.91 81.2386 274.318 78.269C272.822 80.6746 272.147 83.4911 272.392 86.304C272.765 91.1163 270.641 76.5762 270.641 76.5762C270.641 76.5762 274.182 74.1094 274.927 74.1094H289.985L297.805 74.9931L297.589 77.165L294.237 83.7447Z" fill="#00273D"/>
<path d="M294.136 107.354C293.013 106.612 291.822 105.975 290.579 105.453C287.334 110.285 279.865 117.36 279.586 104.914L279.512 104.931C277.799 105.549 276.006 105.893 274.261 106.399L273.805 112.861L277.668 121.994L286.389 121.646L297.989 111.439C296.886 109.921 295.591 108.548 294.136 107.354Z" fill="#003C61"/>
<path d="M290.602 105.453C290.602 105.453 290.623 105.453 290.623 105.461C290.623 105.497 290.623 105.604 290.608 105.595C294.888 108.056 297.989 109.872 300.516 114.685C301.925 117.373 303.565 122.712 304.762 125.946C303.128 127.071 301.283 127.862 299.335 128.275C299.268 128.158 299.21 128.059 299.142 127.947C297.431 124.993 295.754 122.018 294.109 119.02C292.961 116.486 291.813 113.953 290.667 111.419C290.644 109.43 290.623 107.441 290.602 105.453Z" fill="#003C61"/>
<path d="M290.609 105.594C290.633 105.603 290.609 105.497 290.637 105.461C292.358 106.001 294.549 106.522 296.179 107.124C299.466 108.382 302.127 110.854 303.598 114.018C304.953 117.229 305.584 119.703 306.905 122.707C307.009 122.944 307.052 123.1 307.163 123.341C306.537 124.351 305.724 125.236 304.764 125.946C303.568 122.713 301.931 117.374 300.518 114.686C297.99 109.872 294.891 108.055 290.609 105.594Z" fill="#00273D"/>
<path d="M277.063 105.672C269.788 107.755 267.497 107.371 260.319 104.922C259.828 107.942 258.372 110.729 256.164 112.874C256.164 112.874 260.082 115.356 265.093 117.962C267.282 117.198 269.312 116.048 271.085 114.568C270.375 116.341 269.461 118.028 268.36 119.595C269.589 120.183 270.848 120.751 272.092 121.271C274.041 119.138 275.491 116.609 276.34 113.861C277.112 111.203 277.358 108.422 277.063 105.672Z" fill="#003C61"/>
<path d="M265.094 117.964C266.144 118.51 267.241 119.062 268.361 119.597C269.462 118.031 270.376 116.344 271.085 114.57C269.313 116.051 267.283 117.201 265.094 117.964Z" fill="#00273D"/>
<path d="M295.236 80.9707C295.236 80.9707 293.315 71.1429 284.723 70.0881C276.131 69.0332 272.656 73.0192 272.656 73.0192C272.656 73.0192 276.296 66.8867 286.378 68.645C295.258 70.1937 295.236 80.9707 295.236 80.9707Z" fill="white"/>
</g>
<path d="M320.866 194.719H43.0938V200.877H320.866V194.719Z" fill="#69A8B7"/>
<path d="M216.842 158.672H164.396C164.081 158.673 163.77 158.742 163.485 158.874C163.2 159.006 162.948 159.198 162.747 159.437C162.413 159.821 162.229 160.309 162.227 160.815V190.462C162.227 190.746 162.341 191.019 162.544 191.219C162.747 191.42 163.023 191.533 163.31 191.534H216.847C217.181 191.533 217.51 191.455 217.809 191.308C218.107 191.16 218.367 190.946 218.568 190.683C218.858 190.313 219.016 189.858 219.018 189.39V160.815C219.018 160.533 218.961 160.254 218.852 159.994C218.742 159.733 218.582 159.497 218.38 159.298C218.178 159.099 217.938 158.941 217.674 158.834C217.41 158.726 217.128 158.671 216.842 158.672Z" fill="#003C61"/>
<path d="M159.964 191.531H221.268C221.478 191.531 221.68 191.614 221.828 191.761C221.977 191.907 222.061 192.107 222.061 192.314V193.932C222.061 194.035 222.04 194.136 222 194.231C221.96 194.326 221.902 194.413 221.828 194.485C221.755 194.558 221.667 194.616 221.571 194.655C221.475 194.694 221.372 194.715 221.268 194.715H159.964C159.86 194.715 159.757 194.694 159.661 194.655C159.564 194.616 159.477 194.558 159.404 194.485C159.33 194.413 159.272 194.326 159.232 194.231C159.192 194.136 159.172 194.034 159.172 193.932V192.313C159.172 192.106 159.255 191.907 159.404 191.76C159.552 191.614 159.754 191.531 159.964 191.531Z" fill="#00273D"/>
<path d="M176.23 189.977H168.94C168.473 189.977 168.094 190.351 168.094 190.813V192.14C168.094 192.602 168.473 192.976 168.94 192.976H176.23C176.697 192.976 177.077 192.602 177.077 192.14V190.813C177.077 190.351 176.697 189.977 176.23 189.977Z" fill="#00273D"/>
<path d="M176.279 193.366H168.892C168.577 193.366 168.275 193.242 168.052 193.022C167.829 192.801 167.704 192.503 167.703 192.192V190.767C167.703 190.456 167.829 190.158 168.052 189.937C168.275 189.717 168.577 189.594 168.892 189.594H176.279C176.594 189.594 176.896 189.717 177.119 189.937C177.342 190.158 177.468 190.456 177.468 190.767V192.192C177.467 192.503 177.342 192.801 177.119 193.022C176.896 193.242 176.594 193.366 176.279 193.366ZM168.892 190.365C168.784 190.365 168.681 190.408 168.604 190.483C168.528 190.558 168.485 190.661 168.485 190.767V192.192C168.485 192.298 168.528 192.4 168.605 192.476C168.681 192.551 168.784 192.593 168.892 192.594H176.279C176.387 192.593 176.49 192.551 176.566 192.476C176.643 192.4 176.686 192.298 176.686 192.192V190.767C176.686 190.661 176.643 190.558 176.567 190.483C176.49 190.408 176.387 190.365 176.279 190.365H168.892Z" fill="#003C61"/>
<path d="M212.292 189.977H205.003C204.535 189.977 204.156 190.351 204.156 190.813V192.14C204.156 192.602 204.535 192.976 205.003 192.976H212.292C212.76 192.976 213.139 192.602 213.139 192.14V190.813C213.139 190.351 212.76 189.977 212.292 189.977Z" fill="#00273D"/>
<path d="M212.341 193.366H204.954C204.639 193.365 204.337 193.241 204.114 193.021C203.891 192.801 203.766 192.503 203.766 192.192V190.767C203.766 190.456 203.891 190.158 204.114 189.938C204.337 189.718 204.639 189.594 204.954 189.594H212.341C212.656 189.594 212.958 189.718 213.181 189.938C213.404 190.158 213.529 190.456 213.53 190.767V192.192C213.529 192.503 213.404 192.801 213.181 193.021C212.958 193.241 212.656 193.365 212.341 193.366ZM204.954 190.365C204.846 190.365 204.743 190.408 204.666 190.483C204.59 190.559 204.547 190.661 204.547 190.767V192.192C204.547 192.298 204.59 192.4 204.666 192.476C204.743 192.551 204.846 192.593 204.954 192.594H212.341C212.449 192.593 212.553 192.551 212.629 192.476C212.705 192.4 212.748 192.298 212.748 192.192V190.767C212.748 190.661 212.705 190.559 212.629 190.483C212.553 190.408 212.449 190.365 212.341 190.365H204.954Z" fill="#003C61"/>
</g>
<defs>
<clipPath id="clip0_4359_17590">
<rect width="353" height="241" fill="white"/>
</clipPath>
</defs>
</svg>
